<svg xmlns="http://www.w3.org/2000/svg" width="48" height="48" viewBox="0 0 48 48">
  <g id="icon" transform="translate(-26 -103)">
    <g id="Group_11482" data-name="Group 11482" transform="translate(29 106)">
      <path id="Subtraction_2" data-name="Subtraction 2" d="M11.527,0A11.527,11.527,0,1,1,0,11.527,11.527,11.527,0,0,1,11.527,0Z" transform="translate(9.75 9.739)" fill="#373a3c"/>
      <g id="Group_11479" data-name="Group 11479" transform="translate(11.201 10.837)">
        <path id="Path_47453" data-name="Path 47453" d="M735.218,784.575a1.684,1.684,0,0,1-1.482-.519l-.9.872L745,793.338l-8.884-9.194A1.679,1.679,0,0,1,735.218,784.575Z" transform="translate(-724.844 -772.48)" fill="#d3a06c"/>
        <path id="Path_47454" data-name="Path 47454" d="M766.884,753.479a1.684,1.684,0,0,1-.522,1.485l8.884,9.194h0l-7.989-12.448-.855.827A1.67,1.67,0,0,1,766.884,753.479Z" transform="translate(-755.091 -743.3)" fill="#d3a06c"/>
        <path id="Path_47455" data-name="Path 47455" d="M660.142,675.026a1.667,1.667,0,0,1,2.379-.007l.855-.827-12.166-8.41h0Z" transform="translate(-651.21 -665.782)" fill="#d3a06c"/>
        <path id="Path_47456" data-name="Path 47456" d="M659.668,676.458a1.677,1.677,0,0,1,.475-1.433l-8.932-9.244,7.989,12.449.9-.872A1.676,1.676,0,0,1,659.668,676.458Z" transform="translate(-651.211 -665.782)" fill="#d3a06c"/>
        <rect id="Rectangle_3295" data-name="Rectangle 3295" width="1.715" height="0.001" transform="matrix(0.719, -0.695, 0.695, 0.719, 10.078, 10.429)" fill="#38738b"/>
        <path id="Path_47457" data-name="Path 47457" d="M743.239,772.336h0l-1.186,1.147h0l1.186-1.146Z" transform="translate(-733.16 -761.907)" fill="#38738b"/>
        <g id="Group_11478" data-name="Group 11478" transform="translate(8.438 8.741)">
          <path id="Union_174" data-name="Union 174" d="M.455,2.834,1.64,1.688.453,2.834A1.673,1.673,0,0,1,.495.5,1.683,1.683,0,1,1,1.937,3.355a1.719,1.719,0,0,1-.25.018A1.679,1.679,0,0,1,.455,2.834Z" transform="translate(0 0)" fill="#373a3c" stroke="rgba(0,0,0,0)" stroke-width="1"/>
        </g>
      </g>
      <g id="Group_11481" data-name="Group 11481" transform="translate(-1.394 -1.394)">
        <path id="Path_47460" data-name="Path 47460" d="M731.178,565.936c-1.919-.264-2.628,2.055-2.923,3.7-.287-1.595-.95-3.8-2.732-3.717a1.4,1.4,0,0,0-.036,2.779l.112-.537a.872.872,0,0,1-.77-.9c.021-.99,1.241-1.114,1.964-.077h0c.811,1.166,1.079,3.448,1.171,5.2h.583c.091-1.752.359-4.034,1.17-5.2h0a1.413,1.413,0,0,1,1.243-.716c.951.044,1,1.5-.049,1.7l.112.537A1.4,1.4,0,0,0,731.178,565.936Z" transform="translate(-705.172 -565.915)"/>
        <path id="Path_47461" data-name="Path 47461" d="M729.833,937.6h6.995v.657h-6.995V937.6Zm0-1.757H731.3a2.318,2.318,0,0,1-.127-.236v0a2.377,2.377,0,0,1,3.837-2.682h0a2.373,2.373,0,0,1,.476,2.681v0a2.423,2.423,0,0,1-.128.236h1.469v.657h-2.371v-.557l-.018-.021.018-.017v-.063h.069a1.735,1.735,0,0,0,.366-.514h0a1.728,1.728,0,0,0-.344-1.941h0a1.721,1.721,0,0,0-2.779,1.941h0a1.732,1.732,0,0,0,.366.514h.068v.063l.019.016-.019.021v.557h-2.371Z" transform="translate(-710.247 -892.938)"/>
        <path id="Path_47462" data-name="Path 47462" d="M836.391,590.978a3.4,3.4,0,0,1-.577-1.723h1.262v-.6h-1.254a3.667,3.667,0,0,1,.6-1.743,2.7,2.7,0,0,1,.682-.7l-.344-.5a3.31,3.31,0,0,0-.836.851,4.284,4.284,0,0,0-.711,2.083H834.04a4.289,4.289,0,0,0-.71-2.083,3.313,3.313,0,0,0-.836-.851l-.344.5a2.7,2.7,0,0,1,.682.7,3.673,3.673,0,0,1,.6,1.743h-1.254v.6h1.261a3.4,3.4,0,0,1-.577,1.723,2.791,2.791,0,0,1-.715.714l.34.5a3.4,3.4,0,0,0,.872-.867,4,4,0,0,0,.683-2.068h1.164a4.01,4.01,0,0,0,.684,2.068,3.405,3.405,0,0,0,.871.867l.34-.5A2.8,2.8,0,0,1,836.391,590.978Z" transform="translate(-801.65 -583.126)"/>
        <path id="Path_47463" data-name="Path 47463" d="M888.153,664.033l1.635-1.261.339-.262.072.423.141.838,1.3-1,.34-.262.071.423.141.838,1.3-1,.339-.262.071.423.212,1.261-.507.084-.141-.838-1.3,1-.34.262-.07-.423-.141-.838-1.3,1-.34.262-.071-.423-.141-.838-1.3,1-.314-.407Zm0-2.462,1.635-1.261.339-.262.072.423.141.838,1.3-1,.34-.262.071.423.141.838,1.3-1,.339-.262.071.423.212,1.261-.507.084-.141-.838-1.3,1-.34.262-.07-.423-.141-.838-1.3,1-.34.262-.071-.423-.141-.838-1.3,1Z" transform="translate(-851.508 -649.348)"/>
        <path id="Path_47464" data-name="Path 47464" d="M914.284,750.731a1.43,1.43,0,0,0-.379-.579,1.67,1.67,0,0,0-1.02-.417,2.057,2.057,0,0,0-.226-.006,1.639,1.639,0,0,0-1.482,1.191,8.98,8.98,0,0,1-.044-1.582c.006-.224.013-.44.013-.593a2.5,2.5,0,0,0-.281-1.4.573.573,0,0,0-.625-.248,1.24,1.24,0,0,0-.561.341,4.615,4.615,0,0,0-.77,1.063,2.155,2.155,0,0,0-.375-.873,1.651,1.651,0,0,0-1.185-.619l-.066.538a1.149,1.149,0,0,1,.821.409,2.6,2.6,0,0,1,.361,1.578h0v1.608h.542v-1.512a4.786,4.786,0,0,1,1.048-1.8.736.736,0,0,1,.3-.2.07.07,0,0,1,.075.036,2.1,2.1,0,0,1,.175,1.085c0,.213-.005.391-.011.578a5.212,5.212,0,0,0,.312,2.5c-.04.175-.074.346-.106.507l-.05.25a.461.461,0,0,1-.193.272.69.69,0,0,1-.4.125l-1.055-.007,0,.54,1.055.007a1.235,1.235,0,0,0,.716-.224,1,1,0,0,0,.408-.6c.029-.14.041-.2.052-.254l.01-.053.023.022a2,2,0,0,0,1.141.53c.051.005.1.009.153.01a1.714,1.714,0,0,0,.937-.243,1.444,1.444,0,0,0,.307-.252,1.777,1.777,0,0,0,.464-1.054A1.6,1.6,0,0,0,914.284,750.731Zm-.778,1.357a.876.876,0,0,1-.193.157,1.172,1.172,0,0,1-.654.164c-.032,0-.064,0-.1-.007a1.46,1.46,0,0,1-.832-.39,1.824,1.824,0,0,1-.244-.279c.185-.71.494-1.407,1.173-1.46a1.185,1.185,0,0,1,.181,0h0a1.138,1.138,0,0,1,.7.275.884.884,0,0,1,.235.361,1.073,1.073,0,0,1,.055.445A1.231,1.231,0,0,1,913.506,752.088Z" transform="translate(-869.031 -727.252)"/>
        <path id="Path_47465" data-name="Path 47465" d="M891.609,845.2l1.69-1.649-.971-1,.423-.412.97.994,2.46-2.4h-2.06v-.592h3.159V843.3h-.593v-2.236l-2.554,2.493.946.969-.424.412-.945-.969-1.691,1.65Z" transform="translate(-854.963 -810.345)"/>
        <path id="Path_47466" data-name="Path 47466" d="M822.245,908.286a2.748,2.748,0,0,1,.667-.714.909.909,0,0,1,.491-.177.567.567,0,0,1,.478.235,1.035,1.035,0,0,1,.182.521,2.385,2.385,0,0,1,.477-.544.823.823,0,0,1,.443-.192.511.511,0,0,1,.462.215h0a1.23,1.23,0,0,1,.186.743v4.212a.941.941,0,0,0,.441.89,2.7,2.7,0,0,0,1.459.216l.031.577a3.214,3.214,0,0,1-1.779-.293,1.479,1.479,0,0,1-.731-1.39v-4.212A.863.863,0,0,0,825,908a.439.439,0,0,0-.1.065,3.38,3.38,0,0,0-.82,1.314V912.9H823.5v-4.527a.7.7,0,0,0-.074-.391.016.016,0,0,0-.013-.008.374.374,0,0,0-.174.078,3.376,3.376,0,0,0-.944,1.324h0V912.9h-.58v-4.193a.946.946,0,0,0-.23-.674,1.507,1.507,0,0,0-.532-.334l.222-.534a2.033,2.033,0,0,1,.735.477A1.4,1.4,0,0,1,822.245,908.286Z" transform="translate(-791.872 -870.646)"/>
        <path id="Path_47467" data-name="Path 47467" d="M651.944,911.743a.765.765,0,0,0-.375-.455h0a.748.748,0,0,0-.336-.075,1.138,1.138,0,0,0-.4.073,1.586,1.586,0,0,0-.561.381l-.056.058v-1.075a1.37,1.37,0,0,0-.17-.769.449.449,0,0,0-.437-.207.682.682,0,0,0-.391.206,1.948,1.948,0,0,0-.294.382.9.9,0,0,0-.153-.334.63.63,0,0,0-.51-.256,1.049,1.049,0,0,0-.547.168,3.031,3.031,0,0,0-.818.79,1.413,1.413,0,0,0-.354-.713,2.045,2.045,0,0,0-.737-.478l-.222.536a1.5,1.5,0,0,1,.534.335.95.95,0,0,1,.231.676v4.2h.581V911.66a3.452,3.452,0,0,1,1.081-1.324.5.5,0,0,1,.242-.087.074.074,0,0,1,.059.029.647.647,0,0,1,.076.371v4.538h.581v-3.609a3.584,3.584,0,0,1,.64-1.271,1.634,1.634,0,0,1,.027.341v4.538a2.655,2.655,0,0,0,.035.438,3.419,3.419,0,0,1-1.271.647l.131.565a3.84,3.84,0,0,0,1.323-.627,1.942,1.942,0,0,0,.115.206,2.084,2.084,0,0,0,.865.75l.1.049.229-.531a1.822,1.822,0,0,1-.334-.187,1.434,1.434,0,0,1-.377-.392,1.385,1.385,0,0,1-.133-.269,6.449,6.449,0,0,0,.51-.509,5.309,5.309,0,0,0,.782-1.11,5.656,5.656,0,0,0,.413-1.9h0A1.765,1.765,0,0,0,651.944,911.743Zm-.849,2.217a3.585,3.585,0,0,1-.265.44,5.642,5.642,0,0,1-.617.74v-2.409a3.046,3.046,0,0,1,.466-.657,1.4,1.4,0,0,1,.151-.131.677.677,0,0,1,.4-.151.178.178,0,0,1,.078.015h0a.219.219,0,0,1,.087.128,1.207,1.207,0,0,1,.049.383h0A4.87,4.87,0,0,1,651.095,913.96Z" transform="translate(-634.938 -872.922)"/>
        <path id="Path_47468" data-name="Path 47468" d="M575.235,841.51a.775.775,0,0,1-.45.742.726.726,0,0,1-.3.041.828.828,0,0,1-.3-.079.629.629,0,0,1-.38-.6,4.106,4.106,0,0,1,.728-2,6.423,6.423,0,0,0,.718-1.524,1.805,1.805,0,0,0-.433-1.913,2.113,2.113,0,0,0-.78-.465,2.5,2.5,0,0,0-.9-.13,1.832,1.832,0,0,0-1.676,1.022,2.209,2.209,0,0,0-.081,1.481,3.178,3.178,0,0,0,.116.357,1.688,1.688,0,0,0-.336-.034,1.666,1.666,0,1,0,1.507.956l.006,0-.021-.027a1.673,1.673,0,0,0-.284-.406,3.5,3.5,0,0,1-.45-.982,1.668,1.668,0,0,1,.053-1.117,1.289,1.289,0,0,1,1.185-.691,1.947,1.947,0,0,1,.7.1,1.542,1.542,0,0,1,.572.339,1.278,1.278,0,0,1,.285,1.357,6.005,6.005,0,0,1-.663,1.4,4.55,4.55,0,0,0-.8,2.262,1.171,1.171,0,0,0,.7,1.128,1.392,1.392,0,0,0,.507.133,1.278,1.278,0,0,0,.527-.075,1.3,1.3,0,0,0,.812-1.224Zm-3.294-2.233q.106.163.233.333a1.107,1.107,0,1,1-.233-.333Z" transform="translate(-566.52 -806.433)"/>
        <g id="Group_11480" data-name="Group 11480" transform="translate(0 20.264)">
          <path id="Path_47469" data-name="Path 47469" d="M543.588,753a1.684,1.684,0,0,0,2.384,0h0a1.684,1.684,0,0,0,0-2.383h0a1.689,1.689,0,0,0-.218-.183,7.081,7.081,0,0,1,1.728-.1,6.045,6.045,0,0,1,1.415.268,6.474,6.474,0,0,1,1.253.551l.286-.5A7.006,7.006,0,0,0,548.9,750a6.658,6.658,0,0,0-1.376-.241,8.209,8.209,0,0,0-2.739.306c-.109.03-.219.061-.329.1a1.681,1.681,0,0,0-.863.462h0a1.684,1.684,0,0,0,0,2.383Zm.409-1.974h0a1.1,1.1,0,0,1,.566-.3v0l.016-.005a1.081,1.081,0,0,1,.2-.018,1.1,1.1,0,0,1,.782.323h0a1.107,1.107,0,0,1,0,1.563h0A1.106,1.106,0,0,1,544,751.029Z" transform="translate(-543.094 -749.739)"/>
          <path id="Path_47470" data-name="Path 47470" d="M551.053,763.363h0a1.684,1.684,0,0,0-2.383,0h0a1.684,1.684,0,0,0,0,2.383,1.659,1.659,0,0,0,.217.184,7.094,7.094,0,0,1-1.726.1,6.073,6.073,0,0,1-1.415-.269,6.453,6.453,0,0,1-1.253-.551l-.285.5a7,7,0,0,0,1.538.653,6.6,6.6,0,0,0,1.377.241,8.2,8.2,0,0,0,2.739-.306c.109-.03.219-.061.329-.1a1.686,1.686,0,0,0,.862-.462h0a1.684,1.684,0,0,0,0-2.382Zm-.411,1.972h0a1.1,1.1,0,0,1-.566.3v0l-.019.006a1.106,1.106,0,0,1-1.3-1.088,1.1,1.1,0,0,1,.323-.781h0a1.106,1.106,0,0,1,1.563,0h0a1.106,1.106,0,0,1,0,1.563Z" transform="translate(-544.06 -761.13)"/>
        </g>
        <path id="Path_47471" data-name="Path 47471" d="M580.453,653.67q.729-.086,1.459-.242l-.111-.536a14.71,14.71,0,0,1-2.919.331h-.018a11.9,11.9,0,0,1-2.893-.33l-.128.531a12.092,12.092,0,0,0,1.468.261v4.489a12.139,12.139,0,0,0-1.468.261l.128.532a11.884,11.884,0,0,1,2.893-.33h.018a14.723,14.723,0,0,1,2.919.331l.111-.536q-.73-.154-1.459-.241Zm-.549,4.47q-.512-.041-1.023-.046h-.016q-.5,0-1.007.032v-4.387q.5.035,1.007.032h.016q.511,0,1.023-.045Z" transform="translate(-572.99 -642.906)"/>
        <path id="Path_47472" data-name="Path 47472" d="M640.428,584.491c-.307.515-.622,1.043-1.295,1.136a2.33,2.33,0,0,0-.788,0c-.672-.093-.987-.621-1.294-1.136-.424-.712-.836-1.4-1.981-1.3l.048.535c.808-.074,1.135.474,1.472,1.038a3.076,3.076,0,0,0,.97,1.149,2.318,2.318,0,1,0,2.358,0,3.073,3.073,0,0,0,.971-1.149c.337-.564.664-1.112,1.472-1.038l.049-.535C641.264,583.089,640.852,583.78,640.428,584.491ZM640,586.653a1.778,1.778,0,1,1-1.257-.521A1.773,1.773,0,0,1,640,586.653Z" transform="translate(-625.32 -580.591)"/>
      </g>
    </g>
    <rect id="Rectangle_3365" data-name="Rectangle 3365" width="48" height="48" transform="translate(26 103)" fill="none"/>
  </g>
</svg>
