<svg width="417" height="576" viewBox="0 0 417 576" fill="none" xmlns="http://www.w3.org/2000/svg">
<g clip-path="url(#clip0_6251_18812)">
<path d="M132.5 473C153 504.5 146.281 561.818 132.5 630.5H298L289 538.5L292 484.5L301 467.5L326 400.5L338.5 325L336 309L343 266L362 199.5L364 174.5L348 167.5L336 177.5L325.5 206.5C322 215.5 314.6 233.7 313 234.5C311.4 235.3 302 268.167 297.5 284.5L287 266L297.5 170.5L292.5 102.5L280 92.5L264.5 106L249.5 237L240 243L237.5 160L240 100L231.5 68L217.5 63.5L203 77L200 167.5L203 223.5C201.5 227.5 197.7 237 194.5 243C191.3 249 187.833 245.5 186.5 243L155 86.5C143.061 79.2396 137.458 82.627 128 92.5C129.046 147.344 132.476 177.817 145.5 231.5L141.5 266C149.433 301.469 148.47 320.952 124.5 354C101.235 342.836 91.2503 332.507 73.5 314C64.0748 287.677 56.5349 276.132 36 266L12.5 271.5C17.2794 300.904 21.7461 316.64 36 342C53.9863 361.519 60.1271 374.828 68 400.5C89.9017 432.369 104.412 447.851 132.5 473Z" fill="url(#paint0_linear_6251_18812)"/>
<path d="M301.018 628.883C301.182 631.083 299.531 633 297.331 633.164C295.13 633.328 293.213 631.677 293.049 629.477L284.633 520.066V519.957C284.12 509.436 285.13 499.82 287.216 490.702C289.288 481.652 292.423 473.105 296.182 464.653C308.853 436.166 315.741 418.808 320.503 401.785C325.274 384.725 327.96 367.851 332.208 340.39C333.275 333.494 333.796 327.353 333.997 321.39C334.023 320.631 334.043 319.875 334.059 319.12C333.764 314.834 333.16 311.189 332.179 307.933C330.403 302.039 327.33 297.339 322.53 292.272C321.581 291.274 321.62 289.696 322.618 288.747C323.615 287.798 325.194 287.837 326.143 288.835C329.379 292.251 331.918 295.539 333.867 299.092C334.543 277.773 344.672 243.537 353.087 215.098C355.164 208.076 357.135 201.415 358.881 195.213C360.165 190.651 360.653 186.862 360.536 183.784C360.495 183.525 360.48 183.259 360.491 182.989C360.299 180.419 359.662 178.381 358.705 176.834C357.81 175.387 356.599 174.401 355.221 173.842C353.766 173.252 352.096 173.112 350.373 173.387C348.394 173.703 346.373 174.544 344.507 175.866C344.369 175.982 344.226 176.086 344.077 176.181C342.325 177.509 340.728 179.27 339.456 181.428C336.509 186.426 332.971 198.11 330.139 207.461C329.871 208.346 329.704 208.898 330.139 207.461L330.128 207.457L329.327 210.086C326.679 218.787 322.615 227.199 318.645 235.417C317.594 237.591 317.605 237.553 317.037 238.737C314.965 243.058 313.002 247.902 311.12 252.964C309.249 257.999 307.426 263.351 305.652 268.628C305.302 269.67 304.941 271.089 304.569 272.558C303.743 275.814 302.865 279.273 301.203 282.047C302.963 282.947 305.13 283.709 307.795 284.492C309.909 285.113 311.119 287.331 310.498 289.445C309.877 291.559 307.659 292.769 305.545 292.148C300.328 290.616 296.513 289.034 293.432 286.462C290.248 283.804 288.096 280.322 286.349 275.09C282.482 263.507 287.236 221.201 290.17 195.097C290.568 191.555 290.934 188.298 291.176 186.074C292.934 169.88 292.635 150.472 292.353 132.154C292.274 127.056 292.197 122.042 292.165 117.137C292.111 108.72 289.6 103.943 286.199 101.868C284.767 100.995 283.149 100.583 281.491 100.567C279.72 100.55 277.878 100.976 276.122 101.771C271.713 103.766 268.058 108.031 267.593 113.4L262.984 166.635C262.181 175.905 261.122 184.496 260.066 193.059C258.789 203.415 257.517 213.729 256.73 224.957C256.31 230.953 255.372 235.141 253.66 238.485C252.147 241.442 250.151 243.582 247.504 245.524C250.205 249.041 254.005 252.18 258.123 255.378C259.866 256.733 260.181 259.244 258.826 260.987C257.472 262.73 254.96 263.045 253.217 261.691C249.561 258.851 246.107 256.019 243.187 252.788C239.603 249.697 236.928 247.578 233.921 246.509C230.516 245.299 226.323 245.268 219.378 246.448C218.019 246.675 216.733 245.757 216.507 244.398C216.28 243.038 217.198 241.753 218.557 241.526C226.409 240.192 231.32 240.288 235.581 241.802C235.957 241.936 236.325 242.079 236.687 242.232C235.681 239.365 235.124 236.208 235.137 232.659H235.122V169.927H235.137C235.135 168.564 234.577 166.677 234.001 164.727C233.225 162.104 232.422 159.389 232.412 156.387C232.402 153.145 233.178 150.279 233.913 147.566C234.468 145.519 234.993 143.579 234.958 142.186L233.511 86.2221C233.384 81.3011 232.472 76.476 230.046 73.0689C228.265 70.5666 225.528 68.772 221.455 68.2524C220.991 68.1932 220.523 68.1546 220.052 68.1359C215.952 67.9727 213.055 69.6858 211.075 72.3289C208.801 75.3631 207.544 79.6211 206.996 83.9196C206.845 85.1021 206.749 86.3062 206.701 87.5048L204.725 137.131C204.104 152.721 203.717 164.405 203.813 175.737C203.909 187.1 204.485 198.225 205.79 212.731C206.478 220.373 206.247 227.458 204.678 233.359C203.362 238.304 201.121 242.459 197.731 245.506C199.783 247.24 202.085 248.876 204.607 250.505C206.462 251.696 207 254.166 205.81 256.021C204.619 257.876 202.149 258.415 200.294 257.224C196.929 255.05 193.883 252.834 191.185 250.375C186.541 247.536 183.106 245.921 179.079 245.743C174.469 245.538 168.756 247.1 159.375 250.708C158.091 251.198 156.653 250.556 156.162 249.272C155.671 247.989 156.314 246.55 157.597 246.059C167.654 242.191 173.918 240.524 179.294 240.762C180.866 240.832 182.335 241.057 183.773 241.429C181.657 237.881 180.07 233.827 179.068 229.008L168.865 179.965C168.841 179.85 168.823 179.735 168.809 179.621C168.622 178.379 167.888 176.747 167.131 175.062C166.066 172.694 164.963 170.242 164.576 167.459C164.159 164.456 164.525 161.644 164.872 158.982C165.124 157.05 165.362 155.219 165.154 153.929L156.745 102.094C156.057 97.8578 154.748 93.7902 152.403 90.9778C152.339 90.9083 152.277 90.8362 152.218 90.7618C152.125 90.6545 152.029 90.549 151.932 90.4457C150.003 88.3896 147.289 87.0951 143.514 87.1256C143.08 87.1291 142.647 87.152 142.215 87.1931C138.484 87.5492 136.072 89.4577 134.603 92.0959C132.892 95.1673 132.269 99.2427 132.301 103.269C132.31 104.383 132.373 105.507 132.479 106.619L136.906 152.994C138.285 167.441 139.396 178.294 140.94 188.98C142.462 199.525 144.4 209.781 147.439 223.076C150.035 234.433 148.729 242.098 147.386 249.973C146.429 255.591 145.451 261.328 146.097 268.549C146.139 269.024 146.264 270.379 146.39 271.75C148.547 295.148 152.199 334.799 128.918 353.034C132.321 354.802 135.88 356.532 139.622 358.262C141.624 359.186 142.499 361.557 141.576 363.559C140.652 365.561 138.281 366.436 136.279 365.512C124.881 360.243 115.065 354.936 106.099 348.551C97.0732 342.124 88.9766 334.659 81.0971 325.123C78.9629 322.54 76.8132 321.478 74.9396 320.552C74.3929 320.281 73.8629 320.019 73.3829 319.764C68.8123 322.33 64.72 323.973 60.6586 324.775C55.7384 325.745 50.9481 325.462 45.5101 324.068C44.178 323.728 43.3734 322.372 43.7131 321.04C44.0528 319.708 45.4083 318.904 46.7404 319.243C51.4283 320.445 55.5289 320.696 59.7017 319.872C62.6929 319.282 65.7635 318.13 69.1499 316.373C68.4771 315.522 67.9556 314.598 67.5588 313.597C67.5067 313.465 67.4623 313.332 67.425 313.198C66.6922 311.136 66.5478 308.93 66.7008 306.46C67.0673 300.541 55.9759 287.008 48.4193 277.788L47.9941 277.269L47.9846 277.277C45.4124 274.138 41.1958 272.382 36.5395 271.678C30.5962 270.78 24.1059 271.588 19.1722 273.443C17.4891 274.075 18.0746 279.764 19.6524 287.299L19.7704 287.824C19.7911 287.916 19.8083 288.008 19.8223 288.1C19.9869 288.866 20.1607 289.649 20.343 290.447C22.8205 301.289 27.1971 314.065 30.4506 323.465C32.6528 329.827 35.0094 334.251 37.7651 337.987C40.5364 341.744 43.821 344.928 47.7818 348.707C53.7671 354.417 57.901 361.358 61.0785 368.864C64.155 376.132 66.3015 383.865 68.3889 391.501C73.8037 411.311 103.473 439.26 126.224 460.692C127.641 462.026 129.031 463.336 130.388 464.617C146.831 480.15 151.382 506.98 150.267 537.34C149.178 566.964 142.734 599.998 136.823 628.9C136.383 631.057 134.277 632.449 132.12 632.009C129.963 631.569 128.571 629.463 129.011 627.306C134.858 598.714 141.233 566.053 142.298 537.059C143.336 508.8 139.376 484.087 124.919 470.43C123.562 469.149 122.172 467.839 120.755 466.504C97.3016 444.411 66.7156 415.599 60.7013 393.595C58.687 386.226 56.6182 378.77 53.7347 371.958C50.952 365.384 47.3798 359.352 42.2818 354.488C38.032 350.433 34.499 347.005 31.3276 342.706C28.1406 338.386 25.4288 333.309 22.9194 326.059C19.5842 316.423 15.0979 303.327 12.5618 292.228C12.3592 291.341 12.1704 290.465 11.9956 289.601L11.9892 289.574L6.35175 264.5C5.78325 261.995 5.92934 259.897 6.60645 258.171C7.16835 256.739 8.05774 255.609 9.19604 254.749C10.2189 253.976 11.4214 253.456 12.7416 253.156C15.7737 252.468 19.5635 253.034 22.9387 254.358C28.1556 256.405 32.5697 260.111 35.4479 262.527C35.9696 262.965 36.433 263.354 36.7855 263.642C37.1005 263.682 37.4145 263.725 37.7271 263.772C44.1964 264.75 50.2117 267.381 54.1722 272.214L54.1628 272.222L54.5754 272.725C62.944 282.936 75.2271 297.923 74.6695 306.929C74.5799 308.376 74.618 309.562 74.9025 310.441C74.9356 310.512 74.9671 310.585 74.9964 310.659C75.2713 311.353 75.8352 311.967 76.8264 312.537C77.4015 312.867 77.9246 313.125 78.4709 313.395C81.0695 314.68 84.0508 316.154 87.2534 320.029C94.6904 329.03 102.289 336.045 110.724 342.051C114.042 344.414 117.499 346.628 121.136 348.753C144.163 334.453 140.546 295.181 138.453 272.468C138.374 271.616 138.301 270.823 138.159 269.237C137.415 260.924 138.474 254.713 139.511 248.629C140.719 241.542 141.895 234.644 139.658 224.857C136.561 211.308 134.586 200.853 133.033 190.105C131.501 179.497 130.375 168.473 128.969 153.744L124.541 107.369C124.417 106.067 124.344 104.714 124.333 103.332C124.297 98.8991 124.929 94.3158 126.6 90.3501C126.568 89.9385 126.601 89.515 126.704 89.0923L130.143 75.1482C130.165 75.0606 130.189 74.9744 130.216 74.8896C131.191 71.6672 132.927 69.1454 135.048 67.4308C136.955 65.8891 139.166 64.9979 141.443 64.8177C143.762 64.634 146.112 65.1876 148.249 66.5402C150.429 67.9205 152.347 70.1286 153.686 73.2215L153.739 73.3504L153.749 73.3465L158.833 86.2395C162.02 90.2595 163.755 95.5121 164.62 100.844L173.029 152.679C173.419 155.095 173.107 157.488 172.778 160.014C172.501 162.142 172.208 164.39 172.483 166.365C172.715 168.039 173.578 169.958 174.412 171.812C175.394 173.996 176.345 176.112 176.698 178.435L186.88 227.383C187.929 232.423 189.738 236.386 192.216 239.73C194.482 237.768 196.014 234.878 196.959 231.328C198.284 226.348 198.461 220.179 197.853 213.419C196.527 198.687 195.942 187.373 195.844 175.8C195.746 164.197 196.134 152.448 196.756 136.818L198.732 87.1922C198.787 85.8087 198.904 84.3763 199.089 82.9196C199.75 77.7436 201.302 72.4915 204.13 68.3449C204.154 68.2505 204.181 68.1562 204.212 68.0623L208.705 54.4215C208.739 54.3197 208.776 54.2202 208.817 54.123C210.031 51.0173 211.946 48.6555 214.181 47.1149C216.197 45.7248 218.477 45.006 220.774 45C223.115 44.9939 225.42 45.7214 227.435 47.2249C229.492 48.7589 231.23 51.1053 232.332 54.2995L232.373 54.4263L232.379 54.4245L236.649 68.269C236.7 68.4327 236.739 68.5972 236.768 68.7616C240.078 73.6023 241.32 79.8398 241.48 86.0345L242.927 141.999C242.993 144.607 242.33 147.05 241.632 149.629C241.02 151.886 240.374 154.272 240.381 156.387C240.387 158.183 241.033 160.367 241.657 162.477C242.392 164.962 243.103 167.365 243.106 169.927H243.122V232.659H243.106L243.106 232.674C243.098 234.703 243.348 236.555 243.814 238.267C244.986 237.262 245.892 236.177 246.567 234.86C247.747 232.553 248.419 229.319 248.762 224.426C249.578 212.771 250.851 202.452 252.128 192.091C253.172 183.621 254.22 175.122 255.015 165.947L259.624 112.713C259.997 108.404 261.65 104.557 264.083 101.412C264.105 101.086 264.168 100.757 264.275 100.432L268.769 86.7907C268.802 86.6889 268.839 86.5894 268.88 86.4922C270.095 83.3865 272.009 81.0247 274.244 79.4841C276.261 78.094 278.54 77.3753 280.838 77.3693C283.179 77.3632 285.483 78.0907 287.499 79.5941C289.556 81.1282 291.294 83.4747 292.396 86.6687L292.437 86.7955L292.443 86.7937L296.713 100.638C296.866 101.138 296.917 101.644 296.876 102.135C298.871 105.881 300.093 110.816 300.134 117.106C300.165 121.902 300.243 126.939 300.322 132.06C300.608 150.655 300.911 170.355 299.113 186.918C298.772 190.059 298.454 192.894 298.108 195.972C295.247 221.424 290.611 262.674 293.912 272.559C294.343 273.851 294.794 274.982 295.282 275.976C295.861 274.396 296.352 272.462 296.819 270.62C297.21 269.076 297.589 267.585 298.089 266.097C299.859 260.833 301.69 255.461 303.651 250.183C305.603 244.933 307.655 239.876 309.849 235.3C311.48 231.899 311.429 232.005 311.457 231.948C315.313 223.967 319.26 215.796 321.702 207.773L322.499 205.153L322.494 205.152C322.11 206.404 321.565 208.18 322.483 205.148C325.432 195.409 329.117 183.239 332.581 177.365C334.343 174.376 336.58 171.899 339.066 169.982L348.192 157.868C348.262 157.776 348.335 157.688 348.411 157.603C350.672 155.089 353.335 153.544 356.004 152.9C358.401 152.322 360.785 152.464 362.916 153.277C365.094 154.108 366.987 155.623 368.343 157.771C369.719 159.949 370.504 162.758 370.39 166.111C370.386 166.216 370.379 166.32 370.368 166.423L370.374 166.423L368.473 183.385C368.641 187.351 368.079 192.003 366.568 197.369C364.894 203.318 362.873 210.148 360.743 217.348C351.914 247.186 341.163 283.524 341.833 303.027C342.052 309.429 342.176 315.425 341.966 321.64C341.755 327.894 341.207 334.346 340.083 341.609C335.783 369.402 333.064 386.485 328.19 403.91C323.306 421.372 316.307 439.028 303.463 467.903C299.909 475.894 296.948 483.963 294.998 492.483C293.07 500.903 292.134 509.777 292.597 519.473L292.602 519.472L301.018 628.883ZM265.263 248.332C264.012 247.76 263.461 246.282 264.033 245.031C264.605 243.78 266.083 243.229 267.334 243.8C269.146 244.626 270.825 245.705 272.581 247.041C274.314 248.359 276.038 249.849 278.028 251.58C279.069 252.486 279.178 254.064 278.272 255.105C277.366 256.146 275.787 256.255 274.747 255.349C272.767 253.628 271.064 252.155 269.554 251.006C268.067 249.875 266.686 248.98 265.263 248.332ZM15.0079 266.642C15.4249 266.381 15.8742 266.156 16.3596 265.974C18.7185 265.087 21.359 264.393 24.1306 263.938C22.8194 263.101 21.4367 262.347 20.0325 261.796C18.0015 260.999 15.9167 260.614 14.4916 260.938C14.2919 260.983 14.1346 261.039 14.0331 261.107C13.9288 261.409 13.949 261.94 14.1329 262.75L15.0079 266.642ZM352.608 165.281C354.556 165.339 356.451 165.718 358.221 166.436C359.602 166.996 360.9 167.756 362.081 168.724L362.426 165.64C362.448 164.084 362.133 162.877 361.593 162.021C361.204 161.405 360.674 160.975 360.072 160.745C359.421 160.497 358.665 160.46 357.879 160.65C356.753 160.921 355.563 161.635 354.455 162.83L352.608 165.281ZM274.919 93.6733C277.073 92.9518 279.32 92.5765 281.553 92.5981C283.085 92.6129 284.603 92.8133 286.075 93.2144L284.818 89.1375L284.82 89.1367C284.288 87.6542 283.55 86.6208 282.718 86.0003C282.118 85.5531 281.469 85.3365 280.838 85.3381C280.164 85.3398 279.451 85.5807 278.775 86.0467C277.81 86.7125 276.945 87.8236 276.339 89.3633L274.919 93.6733ZM215.082 60.6165C216.701 60.2519 218.459 60.0912 220.365 60.1671C221.025 60.1933 221.721 60.2525 222.455 60.3462C223.743 60.5105 224.952 60.7592 226.085 61.0841L224.754 56.7683L224.757 56.7675C224.225 55.2849 223.486 54.2516 222.654 53.6311C222.055 53.1838 221.406 52.9672 220.774 52.9688C220.1 52.9705 219.388 53.2115 218.712 53.6775C217.746 54.3433 216.882 55.4544 216.275 56.9941L215.082 60.6165ZM137.13 80.1478C138.453 79.7092 139.895 79.4054 141.465 79.2555C142.091 79.1959 142.752 79.1624 143.451 79.1568C144.919 79.1449 146.295 79.2594 147.587 79.4877L146.311 76.2527L146.318 76.2502C145.672 74.8082 144.863 73.8372 143.999 73.2902C143.379 72.8975 142.712 72.7355 142.068 72.7865C141.382 72.8408 140.684 73.1351 140.048 73.6496C139.132 74.3901 138.355 75.5649 137.871 77.1446L137.13 80.1478ZM330.139 207.461C330.568 206.039 331.255 203.76 330.128 207.457L330.139 207.461ZM322.499 205.153C322.957 203.645 322.766 204.268 322.494 205.152L322.499 205.153Z" fill="#D2C8EE"/>
<path d="M220.201 286.686C219.535 284.763 216.98 284.394 215.797 286.053C215.329 286.714 215.212 287.545 215.472 288.311L215.653 288.832L215.838 289.349L216.026 289.864L216.218 290.376L216.413 290.886L216.612 291.392L216.813 291.896L217.019 292.397L217.228 292.895L217.332 293.138C218.071 294.86 220.334 295.197 221.55 293.769C222.152 293.043 222.304 292.059 221.936 291.188L221.832 290.945L221.638 290.482L221.447 290.017L221.26 289.549L221.075 289.079L220.894 288.606L220.716 288.13L220.541 287.651L220.369 287.17L220.201 286.686ZM315.653 359.471C316.714 359.912 317.931 359.578 318.619 358.66C319.593 357.348 319.081 355.492 317.579 354.856C316.034 354.21 314.486 353.573 312.935 352.942C311.273 352.277 309.493 353.486 309.493 355.276C309.506 356.29 310.11 357.191 311.052 357.574C312.589 358.199 314.122 358.831 315.653 359.471ZM297.138 352.029C298.838 352.698 300.64 351.395 300.556 349.573C300.498 348.59 299.896 347.747 298.98 347.381C297.433 346.773 295.887 346.155 294.344 345.535C292.519 344.805 290.601 346.373 290.954 348.308C291.116 349.161 291.68 349.85 292.484 350.177C294.033 350.797 295.584 351.419 297.138 352.029ZM278.561 344.403C280.397 345.197 282.376 343.626 282.016 341.655C281.859 340.831 281.325 340.156 280.555 339.818C279.04 339.161 277.528 338.49 276.024 337.807C274.757 337.23 273.259 337.801 272.699 339.076C272.149 340.329 272.706 341.79 273.952 342.358C275.482 343.052 277.019 343.734 278.561 344.403ZM260.345 335.656C262.177 336.637 264.331 335.103 264 333.049C263.871 332.281 263.407 331.629 262.722 331.258C261.279 330.481 259.846 329.68 258.428 328.857C256.772 327.899 254.72 329.061 254.67 330.97C254.657 331.887 255.121 332.712 255.911 333.177C257.374 334.027 258.855 334.855 260.345 335.656ZM243.138 324.778C243.872 325.33 244.828 325.434 245.667 325.063C247.401 324.271 247.665 321.938 246.149 320.786L245.648 320.407L245.257 320.108L244.869 319.807L244.482 319.505L244.097 319.201L243.714 318.895L243.333 318.588L242.954 318.28L242.576 317.969L242.327 317.762C241.401 316.993 240.079 316.983 239.143 317.741C237.927 318.736 237.915 320.587 239.119 321.597L239.389 321.821L239.786 322.148L240.185 322.473L240.586 322.796L240.989 323.118L241.393 323.437L241.8 323.755L242.208 324.07L242.618 324.384L243.138 324.778ZM228.167 310.728C229.372 312.165 231.66 311.827 232.394 310.098C232.755 309.228 232.61 308.258 232.011 307.53L231.648 307.092L231.345 306.72L231.044 306.346L230.746 305.971L230.451 305.593L230.158 305.213L229.868 304.831L229.58 304.446L229.295 304.06L229.048 303.72C228.325 302.723 226.999 302.398 225.897 302.949C224.521 303.647 224.094 305.392 224.993 306.646L225.261 307.015L225.568 307.429L225.876 307.841L226.187 308.251L226.501 308.659L226.818 309.063L227.137 309.466L227.459 309.866L227.783 310.264L228.167 310.728ZM230.596 453.264C230.163 454.365 230.548 455.612 231.533 456.269C232.862 457.147 234.651 456.589 235.243 455.111L235.529 454.384L235.812 453.658L236.089 452.934L236.362 452.21L236.63 451.488L236.893 450.767L237.039 450.363C237.691 448.56 236.148 446.718 234.257 447.048C233.365 447.21 232.651 447.809 232.338 448.659L232.192 449.064L231.938 449.761L231.679 450.458L231.415 451.158L231.147 451.858L230.874 452.56L230.596 453.264ZM192.365 328.154C190.586 327.239 188.508 328.676 188.735 330.666C188.841 331.505 189.321 332.203 190.071 332.597L190.46 332.796L190.973 333.063L191.485 333.332L191.994 333.604L192.501 333.877L193.005 334.154L193.508 334.432L194.009 334.713L194.376 334.922C195.931 335.804 197.863 334.836 198.098 333.065C198.219 332.052 197.742 331.093 196.858 330.581L196.467 330.359L195.943 330.065L195.417 329.774L194.889 329.484L194.358 329.198L193.826 328.914L193.291 328.633L192.754 328.354L192.365 328.154ZM209.618 339.115C208.695 338.401 207.436 338.403 206.519 339.125C205.256 340.137 205.261 342.049 206.532 343.05L207.111 343.505L207.544 343.851L207.976 344.2L208.405 344.55L208.831 344.903L209.255 345.258L209.676 345.615L210.095 345.975L210.29 346.144C210.994 346.755 211.964 346.927 212.835 346.593C214.593 345.907 214.989 343.624 213.579 342.377L213.362 342.189L212.921 341.811L212.477 341.434L212.03 341.06L211.581 340.689L211.129 340.32L210.676 339.953L210.219 339.588L209.618 339.115ZM224.352 353.379C223.283 352.081 221.277 352.181 220.339 353.576C219.728 354.496 219.788 355.694 220.486 356.549L220.768 356.89L221.11 357.31L221.449 357.732L221.785 358.155L222.118 358.581L222.449 359.009L222.777 359.438L223.102 359.87L223.476 360.375C224.257 361.432 225.685 361.717 226.809 361.032C228.049 360.26 228.377 358.615 227.519 357.432L227.106 356.875L226.762 356.418L226.414 355.963L226.064 355.51L225.711 355.059L225.355 354.61L224.996 354.164L224.634 353.72L224.352 353.379ZM235.528 370.615C234.688 368.901 232.334 368.709 231.23 370.27C230.709 371.021 230.632 371.969 231.027 372.794L231.241 373.231L231.476 373.72L231.707 374.212L231.936 374.704L232.161 375.199L232.383 375.696L232.602 376.194L232.818 376.695L233.034 377.206C233.459 378.228 234.481 378.846 235.582 378.745C237.258 378.581 238.292 376.862 237.659 375.305L237.416 374.73L237.187 374.199L236.954 373.67L236.718 373.143L236.479 372.617L236.236 372.093L235.99 371.572L235.741 371.053L235.528 370.615ZM242.317 390.004C241.884 388.05 239.458 387.363 238.067 388.807C237.491 389.416 237.254 390.245 237.431 391.067L237.512 391.436L237.631 391.988L237.745 392.542L237.856 393.098L237.964 393.655L238.068 394.214L238.168 394.775L238.265 395.338L238.349 395.844C238.512 396.847 239.253 397.638 240.239 397.878C241.983 398.279 243.561 396.814 243.284 395.046L243.195 394.506L243.093 393.911L242.987 393.317L242.876 392.725L242.763 392.134L242.645 391.546L242.523 390.959L242.398 390.374L242.317 390.004ZM244.489 410.391C244.489 408.517 242.517 407.304 240.845 408.159C240.011 408.595 239.495 409.431 239.489 410.374L239.485 411.165L239.477 411.774L239.465 412.385L239.449 412.998L239.429 413.612L239.406 414.228L239.378 414.845L239.358 415.245C239.277 416.864 240.704 418.122 242.301 417.84C243.442 417.63 244.286 416.674 244.35 415.515L244.372 415.084L244.401 414.436L244.426 413.788L244.447 413.143L244.464 412.498L244.476 411.855L244.485 411.214L244.489 410.391ZM242.473 430.736C242.833 428.89 241.105 427.325 239.301 427.86C238.402 428.141 237.752 428.849 237.566 429.775L237.497 430.135L237.366 430.791L237.231 431.449L237.093 432.108L236.949 432.769L236.802 433.432L236.65 434.095L236.539 434.566C236.286 435.642 236.758 436.741 237.709 437.303C239.167 438.146 241.008 437.358 241.404 435.722L241.521 435.225L241.679 434.533L241.833 433.843L241.982 433.154L242.127 432.466L242.267 431.78L242.403 431.096L242.473 430.736ZM275.496 534.761C276.704 534.098 278.222 534.54 278.885 535.748C279.548 536.956 279.107 538.473 277.899 539.136C252.696 553.04 243.709 550.644 226.114 545.951C220.493 544.452 213.949 542.707 205.562 541.215C204.203 540.978 203.293 539.684 203.531 538.324C203.768 536.965 205.062 536.056 206.421 536.293C214.941 537.809 221.634 539.594 227.384 541.127C243.703 545.479 252.039 547.702 275.496 534.761ZM177.105 537.437C175.897 538.1 174.38 537.659 173.716 536.451C173.053 535.243 173.495 533.725 174.703 533.062C199.905 519.158 208.893 521.555 226.487 526.247C232.109 527.746 238.652 529.491 247.04 530.983C248.399 531.221 249.308 532.515 249.071 533.874C248.834 535.233 247.539 536.142 246.18 535.905C237.66 534.389 230.967 532.604 225.218 531.071C208.898 526.719 200.562 524.496 177.105 537.437ZM226.57 466.132C227.185 464.902 228.68 464.404 229.91 465.019C231.14 465.634 231.638 467.129 231.023 468.359C224.789 480.82 217.657 488.692 208.387 493.919C199.214 499.092 188.111 501.571 173.791 503.305C172.421 503.467 171.179 502.487 171.017 501.117C170.855 499.748 171.835 498.506 173.205 498.344C186.929 496.682 197.479 494.357 205.946 489.583C214.316 484.863 220.811 477.644 226.57 466.132ZM244.337 485.19C243.431 484.154 243.536 482.58 244.572 481.674C245.607 480.768 247.181 480.873 248.087 481.908C251.48 485.786 256.99 489.566 263.195 492.444C269.189 495.224 275.764 497.128 281.64 497.432C283.015 497.502 284.073 498.674 284.003 500.049C283.933 501.424 282.761 502.482 281.386 502.412C274.848 502.074 267.626 499.999 261.105 496.975C254.304 493.82 248.191 489.595 244.337 485.19ZM113.708 374.045C114.517 372.929 116.078 372.679 117.194 373.488C118.31 374.297 118.56 375.858 117.751 376.975C112.136 384.732 109.038 390.042 107.322 395.572C105.595 401.137 105.191 407.125 104.981 416.177C104.954 417.552 103.817 418.645 102.442 418.618C101.067 418.591 99.9736 417.454 100 416.079C100.221 406.56 100.66 400.219 102.556 394.107C104.464 387.962 107.77 382.248 113.708 374.045ZM149.259 358.226C148.094 358.959 146.555 358.61 145.822 357.445C145.088 356.28 145.438 354.741 146.603 354.007C148.899 352.566 150.661 350.529 152.01 348.262C153.809 345.237 154.878 341.816 155.495 338.793C155.77 337.445 157.087 336.575 158.435 336.85C159.783 337.125 160.653 338.441 160.378 339.789C159.665 343.279 158.419 347.248 156.307 350.801C154.585 353.695 152.295 356.32 149.259 358.226Z" fill="#F2ED71"/>
<path d="M26.7646 471.119C24.4776 471.894 22.0788 472.279 19.6668 472.257C18.8133 472.243 18.7573 473.545 19.6256 473.59C25.2344 473.662 30.0033 474.795 31.5179 481.911C32.0889 485.523 32.8459 489.518 32.7612 492.833C32.7867 493.91 34.4474 493.914 34.4192 492.833C34.3917 491.783 34.3598 490.734 34.3039 489.686C35.5411 479.873 35.9593 473.502 47.3546 473.59C48.2114 473.543 48.1785 472.249 47.3133 472.257C43.5928 472.286 36.1702 471.505 35.1574 464.972C34.8104 462.624 34.4354 458.695 34.2555 456.712C34.2719 456.29 34.2675 455.868 34.2612 455.462C34.2495 454.703 34.3944 453.685 33.7824 453.149C33.6853 453.053 33.5553 453 33.4199 453C33.2846 453 33.1546 453.053 33.0574 453.149C32.518 453.748 32.7159 454.536 32.7162 455.3C32.704 458.22 32.2097 461.99 31.8228 464.972C31.4195 467.702 29.3395 470.23 26.7646 471.119ZM33.1263 465.169C33.2474 464.351 33.3715 463.344 33.4898 462.294C33.6145 467.57 36.2353 471.886 41.5673 472.906C35.5431 474.797 34.1678 479.828 33.4898 485.992C32.809 479.82 31.4399 474.802 25.4122 472.906C29.2269 472.218 32.5786 469.142 33.1263 465.17V465.169Z" fill="#B19AF1"/>
<path d="M17.9672 122.591C16.5041 123.087 14.9696 123.333 13.4266 123.319C12.8806 123.31 12.8447 124.143 13.4002 124.172C16.9883 124.218 20.0391 124.943 21.008 129.495C21.3733 131.806 21.8576 134.361 21.8034 136.482C21.8197 137.171 22.8821 137.174 22.8641 136.482C22.8465 135.811 22.826 135.139 22.7903 134.469C23.5818 128.191 23.8493 124.116 31.1392 124.172C31.6873 124.142 31.6662 123.314 31.1128 123.319C28.7327 123.337 23.9842 122.838 23.3363 118.659C23.1143 117.157 22.8744 114.643 22.7593 113.375C22.7699 113.105 22.767 112.835 22.763 112.575C22.7555 112.09 22.8482 111.438 22.4567 111.095C22.3946 111.034 22.3114 111 22.2248 111C22.1382 111 22.0551 111.034 21.9929 111.095C21.6478 111.478 21.7744 111.983 21.7746 112.471C21.7668 114.339 21.4506 116.751 21.2031 118.659C20.9451 120.405 19.6144 122.022 17.9672 122.591ZM22.037 118.785C22.1144 118.261 22.1938 117.617 22.2695 116.946C22.3493 120.321 24.0259 123.082 27.4369 123.735C23.5831 124.944 22.7032 128.163 22.2695 132.106C21.834 128.157 20.9581 124.948 17.1021 123.735C19.5424 123.294 21.6866 121.326 22.037 118.786V118.785Z" fill="#B19AF1"/>
<path d="M312.765 43.119C310.478 43.8942 308.079 44.2789 305.667 44.2572C304.813 44.2427 304.757 45.5446 305.626 45.5903C311.234 45.6624 316.003 46.795 317.518 53.9111C318.089 57.5235 318.846 61.5176 318.761 64.833C318.787 65.9103 320.447 65.914 320.419 64.833C320.392 63.7833 320.36 62.7335 320.304 61.6862C321.541 51.8729 321.959 45.5019 333.355 45.5898C334.211 45.5426 334.178 44.2487 333.313 44.2567C329.593 44.2855 322.17 43.5047 321.157 36.9716C320.81 34.6242 320.435 30.6945 320.255 28.712C320.272 28.2902 320.267 27.8678 320.261 27.4622C320.25 26.7034 320.394 25.6848 319.782 25.1486C319.685 25.0533 319.555 25 319.42 25C319.285 25 319.155 25.0533 319.057 25.1486C318.518 25.7476 318.716 26.5361 318.716 27.2998C318.704 30.2198 318.21 33.99 317.823 36.9716C317.419 39.702 315.339 42.2297 312.765 43.119ZM319.126 37.1693C319.247 36.3506 319.371 35.344 319.49 34.2944C319.615 39.5701 322.235 43.8858 327.567 44.9064C321.543 46.7972 320.168 51.8281 319.49 57.9917C318.809 51.8197 317.44 46.8023 311.412 44.9064C315.227 44.2176 318.579 41.1419 319.126 37.1703V37.1693Z" fill="#B19AF1"/>
<path d="M388.281 123.323C386.725 123.851 385.094 124.112 383.454 124.098C382.873 124.088 382.835 124.973 383.425 125.004C387.24 125.053 390.484 125.824 391.514 130.664C391.902 133.12 392.417 135.837 392.359 138.092C392.377 138.825 393.506 138.827 393.487 138.092C393.468 137.378 393.447 136.664 393.409 135.952C394.25 129.277 394.535 124.944 402.285 125.004C402.868 124.972 402.845 124.092 402.257 124.097C399.726 124.117 394.678 123.586 393.989 119.142C393.753 117.546 393.498 114.873 393.376 113.525C393.387 113.238 393.384 112.951 393.38 112.675C393.372 112.159 393.47 111.466 393.054 111.101C392.988 111.036 392.9 111 392.808 111C392.715 111 392.627 111.036 392.561 111.101C392.194 111.508 392.329 112.045 392.329 112.564C392.321 114.55 391.984 117.114 391.721 119.142C391.447 120.999 390.032 122.719 388.281 123.323ZM392.608 119.277C392.69 118.72 392.775 118.035 392.855 117.321C392.94 120.91 394.722 123.845 398.349 124.539C394.252 125.825 393.316 129.247 392.855 133.439C392.392 129.241 391.461 125.829 387.361 124.539C389.956 124.071 392.235 121.979 392.608 119.277V119.277Z" fill="#B19AF1"/>
<path d="M375.627 478.13C373.969 478.691 372.231 478.97 370.483 478.955C369.865 478.944 369.824 479.887 370.453 479.92C374.518 479.973 377.973 480.793 379.071 485.95C379.485 488.568 380.033 491.462 379.972 493.865C379.99 494.645 381.194 494.648 381.173 493.865C381.153 493.104 381.13 492.343 381.09 491.584C381.986 484.473 382.289 479.856 390.547 479.92C391.168 479.886 391.144 478.948 390.517 478.954C387.821 478.975 382.442 478.409 381.708 473.675C381.457 471.974 381.185 469.126 381.055 467.69C381.067 467.384 381.063 467.078 381.059 466.784C381.05 466.234 381.155 465.496 380.712 465.108C380.641 465.039 380.547 465 380.449 465C380.351 465 380.257 465.039 380.187 465.108C379.796 465.542 379.939 466.113 379.939 466.666C379.93 468.782 379.572 471.514 379.292 473.675C379 475.654 377.492 477.485 375.627 478.13ZM380.236 473.818C380.324 473.225 380.414 472.496 380.5 471.735C380.59 475.558 382.489 478.685 386.353 479.425C381.988 480.795 380.991 484.441 380.5 488.907C380.006 484.435 379.014 480.799 374.647 479.425C377.411 478.926 379.84 476.697 380.236 473.819V473.818Z" fill="#B19AF1"/>
<path d="M79.4545 191.675C78.6881 191.674 77.7003 191.589 77.1371 192.168C77.0862 192.218 77.0479 192.278 77.0248 192.344C77.0018 192.41 76.9947 192.48 77.004 192.549C77.0133 192.619 77.0388 192.685 77.0787 192.743C77.1185 192.801 77.1716 192.85 77.234 192.886C77.9521 193.243 78.9449 193.073 79.7402 193.095C88.9678 192.536 87.9678 203.659 88.8111 208.716C88.8874 209.422 89.9926 209.442 90.0735 208.716C90.749 205.037 90.1111 194.466 96.5242 193.329C97.5387 193.167 98.5618 193.061 99.5888 193.01C100.409 192.962 100.372 191.785 99.5365 191.799C88.8705 191.833 90.9153 182.661 90.0754 176.558C90.0201 175.824 88.8685 175.804 88.8092 176.558C88.8052 176.615 88.418 182.26 88.0697 185.193C87.4651 189.354 84.9668 191.181 81.2865 191.667C80.6874 191.596 80.053 191.676 79.4545 191.675Z" fill="#B19AF1"/>
<path d="M1.71344 360.962C1.17839 360.961 0.488877 360.902 0.0956769 361.306C0.0602017 361.341 0.0334213 361.383 0.0173337 361.429C0.00124605 361.475 -0.00373339 361.524 0.00277273 361.572C0.00927885 361.62 0.0271003 361.667 0.0549035 361.707C0.0827068 361.748 0.119772 361.782 0.163332 361.807C0.664604 362.056 1.35766 361.938 1.91286 361.953C8.35432 361.563 7.65628 369.327 8.24492 372.857C8.29818 373.35 9.06974 373.364 9.12621 372.857C9.5977 370.29 9.15246 362.91 13.6292 362.116C14.3374 362.003 15.0516 361.929 15.7685 361.894C16.341 361.86 16.3153 361.039 15.732 361.048C8.28644 361.072 9.71386 354.669 9.12754 350.409C9.0889 349.897 8.285 349.883 8.24359 350.409C8.24082 350.449 7.97053 354.389 7.72737 356.437C7.30538 359.341 5.56139 360.617 2.99225 360.956C2.57402 360.907 2.13122 360.963 1.71344 360.962Z" fill="#B19AF1"/>
<path d="M356.943 371.719C356.336 371.718 355.554 371.654 355.108 372.087C355.068 372.124 355.038 372.169 355.02 372.219C355.001 372.268 354.996 372.32 355.003 372.372C355.011 372.424 355.031 372.473 355.062 372.517C355.094 372.56 355.136 372.597 355.185 372.624C355.754 372.89 356.539 372.764 357.169 372.78C364.473 372.362 363.682 380.677 364.349 384.458C364.41 384.986 365.284 385 365.348 384.458C365.883 381.708 365.378 373.805 370.455 372.955C371.258 372.834 372.067 372.755 372.88 372.717C373.529 372.681 373.5 371.801 372.839 371.811C364.396 371.836 366.015 364.98 365.35 360.418C365.306 359.868 364.395 359.853 364.348 360.418C364.344 360.46 364.038 364.68 363.762 366.873C363.284 369.983 361.306 371.349 358.393 371.712C357.919 371.659 357.417 371.719 356.943 371.719Z" fill="#B19AF1"/>
<path d="M149.943 11.7187C149.336 11.7176 148.554 11.6544 148.108 12.087C148.068 12.1243 148.038 12.1693 148.02 12.2187C148.001 12.268 147.996 12.3205 148.003 12.3721C148.011 12.4237 148.031 12.4731 148.062 12.5167C148.094 12.5603 148.136 12.5968 148.185 12.6237C148.754 12.8902 149.539 12.7636 150.169 12.7796C157.473 12.3621 156.682 20.6774 157.349 24.4577C157.41 24.9856 158.284 25.0004 158.348 24.4577C158.883 21.7078 158.378 13.8051 163.455 12.9547C164.258 12.834 165.067 12.7545 165.88 12.7167C166.529 12.6807 166.5 11.8008 165.839 11.811C157.396 11.8363 159.015 4.97966 158.35 0.417502C158.306 -0.131721 157.395 -0.146564 157.348 0.417502C157.344 0.459767 157.038 4.67961 156.762 6.87287C156.284 9.98317 154.306 11.3487 151.393 11.7123C150.919 11.6593 150.417 11.7194 149.943 11.7187Z" fill="#B19AF1"/>
<path d="M400.943 245.719C400.336 245.718 399.554 245.654 399.108 246.087C399.068 246.124 399.038 246.169 399.02 246.219C399.001 246.268 398.996 246.32 399.003 246.372C399.011 246.424 399.031 246.473 399.062 246.517C399.094 246.56 399.136 246.597 399.185 246.624C399.754 246.89 400.539 246.764 401.169 246.78C408.473 246.362 407.682 254.677 408.349 258.458C408.41 258.986 409.284 259 409.348 258.458C409.883 255.708 409.378 247.805 414.455 246.955C415.258 246.834 416.067 246.755 416.88 246.717C417.529 246.681 417.5 245.801 416.839 245.811C408.396 245.836 410.015 238.98 409.35 234.418C409.306 233.868 408.395 233.853 408.348 234.418C408.344 234.46 408.038 238.68 407.762 240.873C407.284 243.983 405.306 245.349 402.393 245.712C401.919 245.659 401.417 245.719 400.943 245.719Z" fill="#B19AF1"/>
</g>
<defs>
<linearGradient id="paint0_linear_6251_18812" x1="188.25" y1="63.5" x2="188.25" y2="630.5" gradientUnits="userSpaceOnUse">
<stop stop-color="#EBE7F7"/>
<stop offset="1" stop-color="#F7F5FE"/>
</linearGradient>
<clipPath id="clip0_6251_18812">
<rect width="417" height="576" fill="white"/>
</clipPath>
</defs>
</svg>
