<svg width="230" height="231" viewBox="0 0 230 231" fill="none" xmlns="http://www.w3.org/2000/svg">
<path d="M135.29 46.5586C151.06 70.6972 203.35 41.386 243.19 65.5246V249.15H29.88C18.26 210.356 34.03 165.527 14.11 156.906C37.35 150.01 10.79 69.8351 37.35 65.5246C46.48 43.1102 126.99 69.8351 135.29 46.5586Z" fill="url(#paint0_linear_5247_46474)"/>
<path fill-rule="evenodd" clip-rule="evenodd" d="M135.598 42.8906C132.52 55.4662 114.42 54.817 88.4895 53.8871L88.06 53.8717C87.3928 53.8478 86.7249 53.8236 86.0567 53.7994C59.6847 52.8456 32.9763 51.8795 34.8966 65.1855C21.3948 65.1855 21.788 86.1494 22.52 107.779C23.4658 135.731 23.9264 152.381 10.7059 156.707C23.9264 161.033 23.4658 177.683 22.52 205.635C21.788 227.264 21.3948 248.228 34.8966 248.228C32.9763 261.534 59.6847 260.568 86.0567 259.614C86.7248 259.59 87.3928 259.566 88.06 259.542L88.4895 259.527C114.42 258.597 132.52 257.947 135.598 270.523C138.675 257.947 156.775 258.597 182.706 259.527L183.135 259.542C183.803 259.566 184.471 259.59 185.139 259.614C211.511 260.568 238.219 261.534 236.299 248.228C249.801 248.228 249.407 227.264 248.675 205.635C247.73 177.683 247.269 161.033 260.489 156.707C247.269 152.381 247.73 135.731 248.675 107.779C249.407 86.1494 249.801 65.1855 236.299 65.1855C238.219 51.8795 211.511 52.8456 185.139 53.7994C184.471 53.8236 183.803 53.8478 183.135 53.8717L182.706 53.8871C156.776 54.817 138.675 55.4662 135.598 42.8906ZM251.69 158.643C244.036 163.474 243.243 177.684 243.893 205.635C244.408 227.755 242.427 242.045 234.298 244.023L188.076 202.15C203.051 200.663 213.151 190.333 223.377 179.875C231.799 171.262 240.305 162.563 251.69 158.643ZM185.486 199.804C201.244 198.084 212.365 186.498 222.66 175.772C232.161 165.873 240.96 156.707 252.051 156.707C240.96 156.707 232.161 147.541 222.66 137.641C212.275 126.822 201.051 115.127 185.073 113.567L137.639 156.458L185.486 199.804ZM157.696 233.3C147.509 240.841 137.957 247.911 135.598 261.87C133.238 247.911 123.686 240.841 113.499 233.3C103.279 225.735 92.4205 217.696 87.5447 201.754L135.598 158.304L183.651 201.754C178.775 217.696 167.916 225.735 157.696 233.3ZM160.2 235.447C170.299 227.921 180.738 220.141 185.884 203.773L232.668 246.077C230.485 255.667 215.643 255.397 195.76 255.034C191.737 254.96 187.508 254.883 183.135 254.883C152.726 254.883 141.087 254.883 137.192 263.283C141.352 249.493 150.623 242.584 160.2 235.447ZM137.192 50.1311C141.352 63.9202 150.623 70.8292 160.2 77.9663C170.205 85.4225 180.544 93.1275 185.739 109.186L232.529 66.798C229.917 57.7567 215.263 58.024 195.76 58.3798C191.737 58.4532 187.508 58.5303 183.135 58.5303C152.726 58.5303 141.087 58.5303 137.192 50.1311ZM183.51 111.205C178.568 95.564 167.818 87.6068 157.696 80.1137C147.509 72.5731 137.957 65.5024 135.598 51.5433C133.238 65.5024 123.686 72.5731 113.499 80.1137C103.377 87.6068 92.6275 95.564 87.6857 111.205L135.598 154.609L183.51 111.205ZM38.527 246.077L85.3117 203.773C90.4571 220.141 100.896 227.921 110.996 235.447C120.573 242.584 129.844 249.493 134.004 263.283C130.108 254.883 118.469 254.883 88.06 254.883C83.6875 254.883 79.4582 254.96 75.4352 255.034C55.5521 255.397 40.7099 255.667 38.527 246.077ZM85.4566 109.186C90.6512 93.1275 100.99 85.4225 110.996 77.9663C120.573 70.8292 129.844 63.9202 134.004 50.1311C130.108 58.5303 118.469 58.5303 88.06 58.5303C83.6875 58.5303 79.4582 58.4532 75.4353 58.3798C55.932 58.024 41.2788 57.7567 38.6659 66.7979L85.4566 109.186ZM251.69 154.771C244.036 149.94 243.243 135.73 243.893 107.779C244.414 85.3931 242.38 71.0261 234.002 69.3249L187.664 111.225C202.866 112.562 213.058 122.985 223.377 133.539C231.799 142.151 240.305 150.851 251.69 154.771ZM133.557 156.458L86.1805 113.62C70.4705 115.374 59.3729 126.936 49.0979 137.641C39.5964 147.541 30.7984 156.707 19.7071 156.707C30.7984 156.707 39.5964 165.873 49.0979 175.772C59.2839 186.385 70.2783 197.839 85.7733 199.746L133.557 156.458ZM27.3019 205.635C27.9721 176.824 27.109 162.613 18.7805 158.224C30.817 161.913 39.6446 170.941 48.3805 179.875C58.4914 190.216 68.4796 200.431 83.178 202.097L36.8974 244.023C28.7679 242.045 26.7872 227.755 27.3019 205.635ZM37.193 69.3249L83.5847 111.273C68.6633 112.795 58.5844 123.103 48.3805 133.539C39.6446 142.473 30.817 151.501 18.7805 155.19C27.109 150.8 27.9721 136.589 27.3019 107.779C26.781 85.3931 28.8158 71.0261 37.193 69.3249Z" fill="#D3C8EE"/>
<path d="M49.1489 109.344C50.203 108.042 49.9539 106.17 48.5926 105.162C47.2313 104.154 45.2733 104.392 44.2193 105.694C43.1653 106.996 43.4144 108.868 44.7757 109.876C46.1369 110.884 48.0949 110.645 49.1489 109.344Z" fill="#F2ED71"/>
<path d="M224.507 109.344C225.561 108.042 225.312 106.17 223.95 105.162C222.589 104.154 220.631 104.392 219.577 105.694C218.523 106.996 218.772 108.868 220.133 109.876C221.495 110.884 223.453 110.645 224.507 109.344Z" fill="#F2ED71"/>
<path d="M49.1483 208.049C50.2023 206.747 49.9532 204.875 48.5919 203.867C47.2306 202.859 45.2727 203.097 44.2186 204.399C43.1646 205.701 43.4137 207.573 44.775 208.581C46.1363 209.589 48.0943 209.35 49.1483 208.049Z" fill="#F2ED71"/>
<path d="M224.507 208.049C225.561 206.747 225.312 204.875 223.95 203.867C222.589 202.859 220.631 203.097 219.577 204.399C218.523 205.701 218.772 207.573 220.133 208.581C221.495 209.589 223.453 209.35 224.507 208.049Z" fill="#F2ED71"/>
<path d="M190.609 76.1991C191.663 74.8975 191.414 73.0253 190.052 72.0174C188.691 71.0096 186.733 71.2477 185.679 72.5494C184.625 73.851 184.874 75.7233 186.236 76.7311C187.597 77.739 189.555 77.5008 190.609 76.1991Z" fill="#F2ED71"/>
<path d="M192.266 82.8419C193.008 81.9255 192.833 80.6073 191.874 79.8977C190.916 79.188 189.537 79.3557 188.795 80.2722C188.053 81.1887 188.228 82.5069 189.187 83.2165C190.145 83.9261 191.524 83.7584 192.266 82.8419Z" fill="#F2ED71"/>
<path d="M136.535 109.691C137.589 108.39 137.34 106.517 135.978 105.51C134.617 104.502 132.659 104.74 131.605 106.042C130.551 107.343 130.8 109.215 132.162 110.223C133.523 111.231 135.481 110.993 136.535 109.691Z" fill="#F2ED71"/>
<path d="M78.2051 154.42C79.2591 153.118 79.01 151.246 77.6488 150.238C76.2875 149.23 74.3295 149.468 73.2755 150.77C72.2215 152.072 72.4705 153.944 73.8318 154.952C75.1931 155.96 77.1511 155.722 78.2051 154.42Z" fill="#F2ED71"/>
<path d="M199.273 156.385C200.327 155.083 200.078 153.211 198.717 152.203C197.355 151.195 195.397 151.433 194.343 152.735C193.289 154.037 193.538 155.909 194.9 156.917C196.261 157.925 198.219 157.686 199.273 156.385Z" fill="#F9F487"/>
<path d="M132.116 102.808C132.836 101.918 132.666 100.638 131.735 99.9488C130.804 99.2598 129.466 99.4226 128.745 100.312C128.025 101.202 128.195 102.482 129.126 103.171C130.056 103.86 131.395 103.698 132.116 102.808Z" fill="#F2ED71"/>
<path d="M84.7074 154.239C85.428 153.349 85.2577 152.069 84.3271 151.38C83.3964 150.691 82.0578 150.854 81.3372 151.744C80.6166 152.634 80.7869 153.914 81.7175 154.603C82.6482 155.292 83.9868 155.129 84.7074 154.239Z" fill="#F2ED71"/>
<path d="M191.247 153.013C191.968 152.123 191.798 150.843 190.867 150.154C189.936 149.465 188.598 149.628 187.877 150.518C187.157 151.407 187.327 152.687 188.258 153.377C189.188 154.066 190.527 153.903 191.247 153.013Z" fill="#F2ED71"/>
<path d="M138.455 103.769C139.122 102.946 138.965 101.761 138.103 101.124C137.242 100.486 136.003 100.637 135.337 101.46C134.67 102.284 134.827 103.468 135.689 104.106C136.55 104.743 137.788 104.593 138.455 103.769Z" fill="#F2ED71"/>
<path d="M136.535 209.92C137.589 208.618 137.34 206.746 135.978 205.738C134.617 204.73 132.659 204.968 131.605 206.27C130.551 207.572 130.8 209.444 132.162 210.452C133.523 211.46 135.481 211.222 136.535 209.92Z" fill="#F2ED71"/>
<path d="M132.116 202.616C132.836 201.726 132.666 200.446 131.735 199.757C130.805 199.068 129.466 199.231 128.745 200.121C128.025 201.011 128.195 202.291 129.126 202.98C130.056 203.669 131.395 203.506 132.116 202.616Z" fill="#F2ED71"/>
<path d="M138.455 204.273C139.122 203.45 138.965 202.265 138.103 201.627C137.242 200.99 136.003 201.14 135.337 201.964C134.67 202.787 134.827 203.972 135.689 204.61C136.55 205.247 137.788 205.097 138.455 204.273Z" fill="#F2ED71"/>
<path d="M81.3001 159.545C81.9669 158.721 81.8093 157.537 80.9481 156.899C80.0869 156.261 78.8482 156.412 78.1813 157.235C77.5145 158.059 77.6721 159.243 78.5333 159.881C79.3945 160.519 80.6333 160.368 81.3001 159.545Z" fill="#F2ED71"/>
<path d="M192.683 159.545C193.349 158.721 193.192 157.537 192.331 156.899C191.469 156.261 190.231 156.412 189.564 157.235C188.897 158.059 189.055 159.243 189.916 159.881C190.777 160.519 192.016 160.368 192.683 159.545Z" fill="#F2ED71"/>
<path d="M81.5188 75.2167C82.5728 73.9151 82.3237 72.0428 80.9625 71.035C79.6012 70.0271 77.6432 70.2653 76.5892 71.567C75.5352 72.8686 75.7843 74.7409 77.1455 75.7487C78.5068 76.7566 80.4648 76.5184 81.5188 75.2167Z" fill="#F2ED71"/>
<path d="M85.5031 79.7888C86.342 78.7528 86.1438 77.2626 85.0603 76.4605C83.9768 75.6583 82.4184 75.8479 81.5795 76.8839C80.7406 77.9199 80.9389 79.41 82.0223 80.2122C83.1058 81.0144 84.6642 80.8248 85.5031 79.7888Z" fill="#F2ED71"/>
<path d="M81.519 235.785C82.573 234.483 82.3239 232.611 80.9627 231.603C79.6014 230.595 77.6434 230.834 76.5894 232.135C75.5354 233.437 75.7844 235.309 77.1457 236.317C78.507 237.325 80.465 237.087 81.519 235.785Z" fill="#F2ED71"/>
<path d="M65.6187 38.4453C65.3443 38.4448 64.9907 38.4141 64.7891 38.6242C64.7709 38.6423 64.7571 38.6641 64.7489 38.6881C64.7406 38.7121 64.7381 38.7375 64.7414 38.7626C64.7447 38.7876 64.7539 38.8116 64.7681 38.8328C64.7824 38.8539 64.8014 38.8717 64.8238 38.8847C65.0808 39.0141 65.4363 38.9527 65.721 38.9604C69.0245 38.7578 68.6665 42.7949 68.9684 44.6302C68.9957 44.8865 69.3914 44.8937 69.4204 44.6302C69.6622 43.2951 69.4338 39.4583 71.7298 39.0454C72.0929 38.9868 72.4592 38.9483 72.8269 38.9299C73.1205 38.9124 73.1073 38.4852 72.8082 38.4902C68.9897 38.5024 69.7218 35.1735 69.4211 32.9586C69.4012 32.6919 68.989 32.6847 68.9677 32.9586C68.9663 32.9791 68.8277 35.0278 68.703 36.0927C68.4866 37.6027 67.5922 38.2657 66.2746 38.4423C66.0601 38.4165 65.833 38.4457 65.6187 38.4453Z" fill="#B19AF1"/>
<path d="M151.513 6.35264C150.729 6.62444 149.907 6.75931 149.08 6.75172C148.787 6.74663 148.768 7.20308 149.066 7.21909C150.989 7.24439 152.623 7.64148 153.143 10.1364C153.338 11.403 153.598 12.8033 153.569 13.9657C153.578 14.3434 154.147 14.3447 154.137 13.9657C154.128 13.5977 154.117 13.2296 154.098 12.8625C154.522 9.42182 154.665 7.18813 158.572 7.21892C158.865 7.20238 158.854 6.74874 158.557 6.75154C157.282 6.76165 154.738 6.48788 154.39 4.19734C154.271 3.3743 154.143 1.99654 154.081 1.30144C154.087 1.15357 154.085 1.00547 154.083 0.863275C154.079 0.597223 154.129 0.240091 153.919 0.0520898C153.886 0.0186832 153.841 0 153.795 0C153.748 0 153.704 0.0186832 153.67 0.0520898C153.485 0.262116 153.553 0.538567 153.553 0.806314C153.549 1.8301 153.38 3.15195 153.247 4.19734C153.109 5.15464 152.396 6.04084 151.513 6.35264ZM153.694 4.26663C153.736 3.97961 153.778 3.62668 153.819 3.25868C153.861 5.10837 154.76 6.6215 156.588 6.97933C154.523 7.64224 154.051 9.40611 153.819 11.5671C153.585 9.40319 153.116 7.64405 151.05 6.97933C152.357 6.73781 153.506 5.65947 153.694 4.26698V4.26663Z" fill="#B19AF1"/>
<path d="M2.24599 206.201C1.94264 206.201 1.55171 206.169 1.32878 206.385C1.30867 206.404 1.29348 206.426 1.28436 206.451C1.27524 206.476 1.27242 206.502 1.27611 206.528C1.2798 206.554 1.2899 206.578 1.30566 206.6C1.32143 206.622 1.34244 206.64 1.36714 206.654C1.65134 206.787 2.04428 206.724 2.35906 206.732C6.01112 206.523 5.61536 210.681 5.9491 212.571C5.97929 212.835 6.41674 212.842 6.44876 212.571C6.71607 211.196 6.46364 207.244 9.00181 206.819C9.40329 206.759 9.80824 206.719 10.2147 206.7C10.5393 206.682 10.5247 206.242 10.194 206.247C5.97264 206.26 6.78193 202.832 6.44951 200.551C6.4276 200.276 5.97182 200.269 5.94834 200.551C5.94677 200.572 5.79353 202.682 5.65566 203.778C5.41641 205.333 4.42764 206.016 2.97103 206.198C2.73391 206.171 2.48286 206.202 2.24599 206.201Z" fill="#B19AF1"/>
<path d="M2.32188 96.7166C1.63797 96.9444 0.920666 97.0574 0.199393 97.051C-0.0558302 97.0468 -0.0725823 97.4293 0.187075 97.4427C1.8643 97.4639 3.29035 97.7967 3.74324 99.8877C3.91402 100.949 4.14037 102.123 4.11504 103.097C4.12268 103.413 4.61928 103.415 4.61085 103.097C4.60263 102.788 4.59307 102.48 4.57636 102.172C4.94634 99.2888 5.07139 97.4168 8.47896 97.4426C8.73517 97.4287 8.72531 97.0485 8.46659 97.0509C7.35406 97.0594 5.13446 96.8299 4.83159 94.9103C4.72782 94.2205 4.61568 93.0658 4.56188 92.4833C4.56681 92.3594 4.56548 92.2352 4.5636 92.1161C4.5601 91.8931 4.60341 91.5938 4.42042 91.4362C4.39137 91.4082 4.35249 91.3926 4.31203 91.3926C4.27156 91.3926 4.23268 91.4082 4.20363 91.4362C4.04232 91.6123 4.10149 91.8439 4.10159 92.0683C4.09795 92.9263 3.95013 94.0341 3.83444 94.9103C3.71383 95.7126 3.09184 96.4553 2.32188 96.7166ZM4.22423 94.9683C4.26044 94.7278 4.29754 94.432 4.33292 94.1236C4.37022 95.6738 5.15392 96.9419 6.74837 97.2418C4.94693 97.7974 4.53567 99.2756 4.33292 101.087C4.12933 99.2732 3.71994 97.7989 1.91747 97.2418C3.05818 97.0394 4.06045 96.1353 4.22423 94.9683Z" fill="#B19AF1"/>
<defs>
<linearGradient id="paint0_linear_5247_46474" x1="34.03" y1="63.8004" x2="237.988" y2="234.589" gradientUnits="userSpaceOnUse">
<stop stop-color="#F0EBFD"/>
<stop offset="1" stop-color="white"/>
</linearGradient>
</defs>
</svg>
