<svg xmlns="http://www.w3.org/2000/svg" width="48" height="48" viewBox="0 0 48 48">
  <g id="icon" transform="translate(-26 -103)">
    <g id="tG8RWg.tif" transform="translate(33.5 110.532)">
      <g id="Group_11485" data-name="Group 11485">
        <path id="Path_47473" data-name="Path 47473" d="M-694.492,450.294c.134-.119.089-.3.122-.44a3.484,3.484,0,0,1,3.442-2.684,1.4,1.4,0,0,0,1.026-.342,3.146,3.146,0,0,1,.836-.561c.2-.081.032-.257-.09-.356a8.961,8.961,0,0,1-1.611-1.721,11.821,11.821,0,0,1-1.656-3.139.438.438,0,0,0-.4-.338,1.483,1.483,0,0,1-1.276-1.3,1.493,1.493,0,0,1,.858-1.544.3.3,0,0,0,.214-.35,5.346,5.346,0,0,1,.526-2.645.494.494,0,0,0-.018-.5,4.845,4.845,0,0,1-.68-2.779,1.309,1.309,0,0,1,.1-.384c.154-.345.418-.4.685-.13.2.206.378.443.581.651a1.933,1.933,0,0,0,1.112.627,5.314,5.314,0,0,1,.238-2.415,2.173,2.173,0,0,1,.606-1.018c.34-.293.6-.215.714.217.077.292.117.6.2.884a1.457,1.457,0,0,0,.7.9,4.18,4.18,0,0,1,.858-1.669,1.819,1.819,0,0,1,.7-.563c.405-.162.616,0,.561.428a3.712,3.712,0,0,0-.087.9.937.937,0,0,0,.179.507c.125-.036.142-.158.2-.244a2.58,2.58,0,0,1,.589-.687c.185-.136.393-.29.631-.154s.139.367.091.561a1.175,1.175,0,0,0,.394,1.242c.158.142.257.444.413.467.182.027.282-.288.451-.423a.356.356,0,0,1,.615.14,1.8,1.8,0,0,1,.1,1.21.611.611,0,0,0,.194.638,5.6,5.6,0,0,1,1.626,4.22.439.439,0,0,0,.246.456,1.452,1.452,0,0,1,.672,1.568,1.424,1.424,0,0,1-1.2,1.17.53.53,0,0,0-.462.411,10.732,10.732,0,0,1-3.268,4.854.363.363,0,0,0-.127.439.355.355,0,0,1,.508.029c.1.089.222.151.316.244a1.861,1.861,0,0,0,1.408.507,3.474,3.474,0,0,1,3.129,2.747,12.113,12.113,0,0,1,.071,2.1c.013.461,0,.922,0,1.383s-.015.46-.477.463c-.825,0-1.649.012-2.474.011q-5.837,0-11.676-.013c-.139,0-.3.037-.376-.143-.055-.966-.009-1.933-.026-2.9a.794.794,0,0,0-.035-.392Z" transform="translate(694.492 -420.96)" fill="#313131"/>
        <path id="Path_47474" data-name="Path 47474" d="M-694.492,451.525a.437.437,0,0,1,.072.311q-.006,1.49-.011,2.981a.078.078,0,0,1-.061-.016Z" transform="translate(694.492 -422.045)" fill="#696969"/>
        <path id="Path_47475" data-name="Path 47475" d="M-668.248,453.893h-6.911c-.586,0-.618-.027-.61-.615a16.029,16.029,0,0,1,.082-3.049,3.731,3.731,0,0,0-.09-2.22,2.216,2.216,0,0,1,.147-1.6.675.675,0,0,0,.01-.552,2.852,2.852,0,0,1,0-2.231.627.627,0,0,0,0-.518,2.875,2.875,0,0,1,0-2.232.631.631,0,0,0,0-.518,2.871,2.871,0,0,1-.065-2.061.837.837,0,0,0,.02-.462,7.62,7.62,0,0,1,7.843-9.227,7.629,7.629,0,0,1,7.205,7.759,6.929,6.929,0,0,1-.165,1.441.959.959,0,0,0,.026.532,2.871,2.871,0,0,1-.084,2.027.623.623,0,0,0,.009.515,2.9,2.9,0,0,1-.006,2.232.624.624,0,0,0,0,.515,2.9,2.9,0,0,1,0,2.233.629.629,0,0,0,0,.514,2.9,2.9,0,0,1-.1,2.463.579.579,0,0,0-.019.54,3.149,3.149,0,0,1,.245,1.274c-.011.921,0,1.843,0,2.765,0,.438-.028.47-.477.47Q-664.719,453.9-668.248,453.893Z" transform="translate(693.609 -420.958)" fill="#313131"/>
        <path id="Path_47476" data-name="Path 47476" d="M-681.178,420.639a3.887,3.887,0,0,1,2.684.964c.177.165.25.07.376-.038a3.846,3.846,0,0,1,3.194-.873,3.542,3.542,0,0,1,2.882,3.38,5.778,5.778,0,0,1-.905,3.206,13.742,13.742,0,0,1-3.8,4.057c-.319.241-.639.482-.968.71a.934.934,0,0,1-1.125.047,16.047,16.047,0,0,1-4.636-4.452,6.774,6.774,0,0,1-1.122-3,3.64,3.64,0,0,1,2.859-3.949C-681.542,420.653-681.334,420.652-681.178,420.639Z" transform="translate(694.024 -420.581)" fill="#313131"/>
        <path id="Path_47477" data-name="Path 47477" d="M-687.469,424.192c-.016.144-.123.2-.238.245a4.009,4.009,0,0,0-.97.568,1.777,1.777,0,0,0-.714,1.143c-.022.147-.029.312-.227.313s-.209-.167-.25-.307a3.376,3.376,0,0,0-.491-1.049,1.529,1.529,0,0,0-1.044-.663c-.141-.019-.279-.046-.3-.208s.109-.217.25-.255a1.945,1.945,0,0,0,1.621-1.69.238.238,0,0,1,.2-.231c.151-.02.206.091.257.208a7.383,7.383,0,0,0,.336.724,1.772,1.772,0,0,0,1.287.972C-687.614,423.981-687.485,424.018-687.469,424.192Z" transform="translate(694.36 -420.648)" fill="#313131"/>
        <path id="Path_47478" data-name="Path 47478" d="M-692.9,427.894a.249.249,0,0,1-.228-.207,3.845,3.845,0,0,0-.146-.41,1.212,1.212,0,0,0-.935-.822c-.12-.018-.211-.067-.224-.2a.208.208,0,0,1,.176-.238,1.366,1.366,0,0,0,1.153-1.194.2.2,0,0,1,.2-.176.229.229,0,0,1,.217.164c.071.153.129.313.209.462a1.257,1.257,0,0,0,.9.723c.132.023.237.072.242.22,0,.127-.087.19-.193.234a2.782,2.782,0,0,0-.657.382,1.161,1.161,0,0,0-.493.774C-692.69,427.753-692.739,427.868-692.9,427.894Z" transform="translate(694.489 -420.771)" fill="#313131"/>
        <path id="Path_47479" data-name="Path 47479" d="M-692.906,420.578c.171.013.213.127.256.244a2.311,2.311,0,0,0,.388.694,1.07,1.07,0,0,0,.6.386c.138.03.313.03.333.221.022.21-.169.231-.3.307a5.565,5.565,0,0,0-.554.342,1.105,1.105,0,0,0-.488.775c-.014.13-.056.245-.2.261-.172.02-.223-.109-.262-.244a2.3,2.3,0,0,0-.331-.721,1.026,1.026,0,0,0-.714-.453c-.127-.016-.238-.064-.245-.218s.1-.2.225-.239a3.077,3.077,0,0,0,.4-.157,1.205,1.205,0,0,0,.68-.927C-693.094,420.7-693.052,420.59-692.906,420.578Z" transform="translate(694.489 -420.578)" fill="#313131"/>
        <path id="Path_47480" data-name="Path 47480" d="M-692.362,439.091c-.061-.232.054-.38.352-.493a2.937,2.937,0,0,0,1.671-1.681c.121-.284.225-.4.57-.349a2.186,2.186,0,0,0,1.947-.581c.091-.09.16-.137.261-.011.769.966,2.5.833,3.516.025.29-.23.387-.2.51.128a6.321,6.321,0,0,0,.567,1.257,2.824,2.824,0,0,0,1.376,1.193.371.371,0,0,1,.278.433,7.562,7.562,0,0,1-.34,1.928,10.491,10.491,0,0,1-3.09,4.884c-1.426,1.225-2.659,1.272-4.07.051a10.348,10.348,0,0,1-3.526-6.427C-692.355,439.353-692.352,439.255-692.362,439.091Z" transform="translate(694.392 -421.302)" fill="#f9e0a6"/>
        <path id="Path_47481" data-name="Path 47481" d="M-684.891,429.977a1.823,1.823,0,0,0,.656,1.739.591.591,0,0,1,.168.467c0,.132-.015.28.138.345s.274-.051.376-.154c.194-.2.382-.4.592-.616a1.211,1.211,0,0,1,.037,1,.706.706,0,0,0,.232.736,5.25,5.25,0,0,1,1.609,3.994c-.017.452-.113.517-.525.309a2.492,2.492,0,0,1-1.135-1.187c-.234-.492-.437-1-.675-1.489-.172-.355-.274-.36-.56-.078a2.638,2.638,0,0,1-2.376.814,1.409,1.409,0,0,1-1.068-.733c-.158-.287-.33-.313-.488-.067a1.782,1.782,0,0,1-2.044.733.512.512,0,0,0-.7.4,2.727,2.727,0,0,1-1.337,1.609c-.392.2-.484.156-.514-.29a4.753,4.753,0,0,1,.512-2.463.757.757,0,0,0-.047-.835,5.268,5.268,0,0,1-.676-2.133.773.773,0,0,1,.011-.252c.023-.1,0-.248.131-.272.106-.021.148.107.21.177a2.975,2.975,0,0,0,1.621,1.1c.533.11.651.01.557-.508a4.566,4.566,0,0,1,.333-2.523,1.584,1.584,0,0,1,.179-.314.215.215,0,0,1,.14-.094c.077,0,.07.084.083.139.048.189.084.379.138.565a2.245,2.245,0,0,0,1.035,1.353c.325.19.451.13.523-.241a3.558,3.558,0,0,1,.847-1.705.962.962,0,0,1,.351-.281c0,.263,0,.508,0,.754a1.593,1.593,0,0,0,.394,1.068c.253.306.415.288.572-.072A2.864,2.864,0,0,1-684.891,429.977Z" transform="translate(694.408 -420.987)" fill="#d3a06c"/>
        <path id="Path_47482" data-name="Path 47482" d="M-691.366,451.169c.2-.092.222-.26.219-.455-.007-.606.01-1.213-.008-1.818-.007-.274.1-.345.357-.36a.834.834,0,0,1,.818.391c.567.8,1.18,1.569,1.761,2.361.193.263.366.3.627.09s.534-.576.854-.576.581.359.854.575.432.179.627-.089c.61-.83,1.237-1.648,1.857-2.47a.89.89,0,0,1,.935-.248c.133.057.127.166.127.272,0,1.745,0,3.491,0,5.237,0,.219-.08.3-.3.3q-4.11-.006-8.218,0c-.212,0-.315-.065-.3-.291.012-.2-.008-.413,0-.617a.385.385,0,0,0-.219-.417A2.342,2.342,0,0,1-691.366,451.169Z" transform="translate(694.353 -421.902)" fill="#fb5968"/>
        <path id="Path_47483" data-name="Path 47483" d="M-691.48,451.179v1.881c-.245.123-.22.351-.222.569-.006.828.09.747-.767.752-.375,0-.75-.009-1.125,0-.253.007-.38-.078-.377-.352.01-.919-.014-1.839.016-2.758a3.035,3.035,0,0,1,1.927-2.515c.264-.088.327.025.326.255,0,.556,0,1.113,0,1.669C-691.7,450.884-691.686,451.072-691.48,451.179Z" transform="translate(694.467 -421.912)" fill="#fb5968"/>
        <path id="Path_47484" data-name="Path 47484" d="M-679.246,452.731c0,.437-.007.874,0,1.31.006.251-.1.347-.347.343-.5-.009-.993-.01-1.491,0-.251,0-.344-.1-.343-.348q.006-2.492,0-4.984c0-.322.129-.35.376-.226a3.075,3.075,0,0,1,1.8,2.7c.026.4,0,.8,0,1.2Z" transform="translate(693.873 -421.914)" fill="#fb5968"/>
        <path id="Path_47485" data-name="Path 47485" d="M-688.216,447.3a1.127,1.127,0,0,1,.478.184,2.652,2.652,0,0,0,2.379-.076c.285-.145.343-.076.332.218a.963.963,0,0,1-.2.6c-.4.5-.788,1.014-1.156,1.537-.169.241-.253.2-.4-.008q-.627-.867-1.29-1.71A.814.814,0,0,1-688.216,447.3Z" transform="translate(694.196 -421.845)" fill="#f9e0a6"/>
        <path id="Path_47486" data-name="Path 47486" d="M-683.417,448.372c-.063.1-.109.183-.166.259-.516.685-1.043,1.362-1.549,2.055-.174.237-.311.23-.53.062-.633-.485-.515-.353-.126-.89.455-.626.94-1.229,1.387-1.859.175-.247.314-.25.513-.059C-683.735,448.085-683.517,448.163-683.417,448.372Z" transform="translate(694.095 -421.868)" fill="#d3a06c"/>
        <path id="Path_47487" data-name="Path 47487" d="M-687.023,450.3c-.027.2-.2.251-.314.343-.431.337-.434.334-.758-.1-.486-.647-.962-1.3-1.462-1.938-.173-.22-.152-.356.078-.487a.936.936,0,0,0,.087-.066c.447-.337.448-.337.777.1q.72.956,1.437,1.914C-687.122,450.149-687.071,450.231-687.023,450.3Z" transform="translate(694.264 -421.869)" fill="#d3a06c"/>
        <path id="Path_47488" data-name="Path 47488" d="M-693.631,439.679a1.086,1.086,0,0,1,.544-.9c.149-.09.245-.09.235.13a5.817,5.817,0,0,0,.183,1.652c.046.191-.028.207-.184.172A1.109,1.109,0,0,1-693.631,439.679Z" transform="translate(694.451 -421.438)" fill="#f9e0a6"/>
        <path id="Path_47489" data-name="Path 47489" d="M-679.559,439.6a1.117,1.117,0,0,1-.7,1.108c-.167.053-.3.061-.241-.181a7,7,0,0,0,.182-1.617c0-.226.117-.2.253-.117A1.016,1.016,0,0,1-679.559,439.6Z" transform="translate(693.83 -421.438)" fill="#f9e0a6"/>
        <path id="Path_47490" data-name="Path 47490" d="M-673.645,438.95c-.089-.332.112-.507.489-.653a35.8,35.8,0,0,0,5.805-2.835.337.337,0,0,1,.47.041,22.989,22.989,0,0,0,3.936,2.667.577.577,0,0,1,.349.567,7.274,7.274,0,0,1-.474,2.6,10.324,10.324,0,0,1-2.98,4.493c-1.423,1.2-2.639,1.245-4.042.03a10.335,10.335,0,0,1-3.529-6.462C-673.64,439.275-673.635,439.153-673.645,438.95Z" transform="translate(693.505 -421.28)" fill="#f9e0a6"/>
        <path id="Path_47491" data-name="Path 47491" d="M-668.843,430.2a6.787,6.787,0,0,1,4.782,1.528c.241.2.274.323.009.553a30.377,30.377,0,0,1-7.17,4.465c-.924.427-1.867.811-2.819,1.175-.42.16-.445.148-.514-.283C-675.188,433.681-672.235,430.2-668.843,430.2Z" transform="translate(693.551 -421.034)" fill="#d3a06c"/>
        <path id="Path_47492" data-name="Path 47492" d="M-670.22,451.308a.433.433,0,0,0-.034.506c.285.734.554,1.475.848,2.205.112.282.046.363-.249.359q-1.29-.019-2.581,0c-.28,0-.393-.091-.384-.378.014-.52.006-1.041,0-1.562,0-.153.023-.36-.193-.369-.239-.01-.234.2-.236.372-.006.509-.014,1.017,0,1.526.008.288-.077.423-.389.412-.5-.018-.994-.01-1.49,0-.23,0-.33-.091-.328-.323.009-.945-.031-1.892.024-2.834a3.046,3.046,0,0,1,2.9-2.668c.049,0,.1,0,.146,0,.772.011.641-.1.923.629.071.183.124.377.373.383a.276.276,0,0,1,.268.2c.169.4.318.808.463,1.216A.275.275,0,0,1-670.22,451.308Z" transform="translate(693.581 -421.903)" fill="#fb5968"/>
        <path id="Path_47493" data-name="Path 47493" d="M-675.175,440.524a1.449,1.449,0,0,0,1.062.749.55.55,0,0,1,.464.433,11.638,11.638,0,0,0,2.7,4.31,1.013,1.013,0,0,0,.214.2,1.075,1.075,0,0,1,.507,1.179c-.018.247-.106.345-.353.34-.534-.009-1.067,0-1.6,0a3.489,3.489,0,0,0-2.7,1.214c-.232.255-.256.25-.373-.086a2.382,2.382,0,0,1,.1-1.84.683.683,0,0,0,.01-.621,2.473,2.473,0,0,1,.023-2.212.556.556,0,0,0-.015-.519,2.422,2.422,0,0,1,.008-2.209c.172-.343-.07-.577-.13-.859C-675.274,440.52-675.241,440.5-675.175,440.524Z" transform="translate(693.587 -421.523)" fill="#d3a06c"/>
        <path id="Path_47494" data-name="Path 47494" d="M-660.766,440.689c-.239.4-.055.738.063,1.1a2.446,2.446,0,0,1-.073,1.775.894.894,0,0,0,0,.764,2.472,2.472,0,0,1,.007,1.98.957.957,0,0,0,0,.8,2.609,2.609,0,0,1,.058,1.813c-.07.229-.164.282-.338.08a3.635,3.635,0,0,0-3.146-1.261c-.373.021-.751-.009-1.126.008-.289.011-.362-.113-.381-.387a1.194,1.194,0,0,1,.469-1.087,10.746,10.746,0,0,0,2.956-4.553.562.562,0,0,1,.5-.439A2.327,2.327,0,0,0-660.766,440.689Z" transform="translate(693.128 -421.531)" fill="#d3a06c"/>
        <path id="Path_47495" data-name="Path 47495" d="M-670.006,451.249l-.665-1.75c.266-.242.055-.476-.032-.693-.108-.265-.047-.325.228-.323.941.006.9.137.89-.9,0-.224.008-.358.289-.206a2.7,2.7,0,0,0,2.643.019c.2-.1.286-.11.291.167.012.883.023.89.929.918.228.007.269.061.186.273q-.547,1.4-1.072,2.815a.325.325,0,0,1-.351.241q-1.307-.01-2.615,0a.328.328,0,0,1-.366-.27C-669.7,451.371-669.792,451.233-670.006,451.249Z" transform="translate(693.367 -421.845)" fill="#f9e0a6"/>
        <path id="Path_47496" data-name="Path 47496" d="M-661.442,436.67c-.031.329-.066.666-.092,1-.025.306-.141.359-.419.213a23.888,23.888,0,0,1-3.085-1.91c-.372-.272-.728-.564-1.1-.838-.162-.12-.219-.211-.01-.345a25.167,25.167,0,0,0,2.924-2.211c.147-.129.223-.064.321.057a6.272,6.272,0,0,1,1.4,3.37C-661.475,436.227-661.461,436.444-661.442,436.67Z" transform="translate(693.155 -421.144)" fill="#d3a06c"/>
        <path id="Path_47497" data-name="Path 47497" d="M-664.534,448.914c.049-.3.237-.357.518-.377a3.1,3.1,0,0,1,3.366,2.52,11.8,11.8,0,0,1,.034,1.741c.008.4-.006.8,0,1.2.006.252-.078.384-.352.379-.52-.009-1.041-.008-1.562,0-.248,0-.348-.1-.345-.35.01-.617.007-1.235.01-1.853a5.865,5.865,0,0,1-.133-.814,2.8,2.8,0,0,0-1.159-2.058A2,2,0,0,1-664.534,448.914Z" transform="translate(693.072 -421.903)" fill="#fb5968"/>
        <path id="Path_47498" data-name="Path 47498" d="M-664.634,448.933a2.288,2.288,0,0,1,1.32,1.169,2.8,2.8,0,0,1,.352,2.09c-.281-.177-.414-.12-.425.219-.018.521-.021,1.044,0,1.565.011.316-.1.428-.42.421-.813-.016-1.625,0-2.438-.006-.44,0-.454-.018-.3-.426Q-665.594,451.448-664.634,448.933Z" transform="translate(693.172 -421.922)" fill="#fb5968"/>
        <path id="Path_47499" data-name="Path 47499" d="M-675.219,438.475a4.013,4.013,0,0,0-.127-1.5,7.206,7.206,0,0,1,6.16-7.839,7.145,7.145,0,0,1,8.093,6.162,6.73,6.73,0,0,1-.065,2.318,2,2,0,0,0-.065.792.594.594,0,0,1-.349-.677,6.683,6.683,0,0,0-1.778-5.94,6.462,6.462,0,0,0-4.4-2.08,6.622,6.622,0,0,0-5.526,2.155,6.636,6.636,0,0,0-1.721,5.919A.594.594,0,0,1-675.219,438.475Z" transform="translate(693.587 -420.981)" fill="#d3a06c"/>
        <path id="Path_47500" data-name="Path 47500" d="M-667.891,452.509c.352,0,.7,0,1.054,0,.2,0,.307.051.218.277q-.3.762-.583,1.527a.335.335,0,0,1-.358.245l-.036,0c-1.107-.017-.855.151-1.236-.813-.107-.27-.207-.543-.311-.814-.148-.389-.13-.418.271-.422C-668.545,452.506-668.218,452.509-667.891,452.509Z" transform="translate(693.295 -422.091)" fill="#fb5968"/>
        <path id="Path_47501" data-name="Path 47501" d="M-674.143,438.886a7.059,7.059,0,0,0,.2,1.72c.034.137-.023.165-.154.147a1.1,1.1,0,0,1-.813-1.033C-674.912,439.222-674.685,438.969-674.143,438.886Z" transform="translate(693.564 -421.446)" fill="#f9e0a6"/>
        <path id="Path_47502" data-name="Path 47502" d="M-660.839,439.731a1.07,1.07,0,0,1-.681.981c-.175.061-.322.083-.256-.189a6.541,6.541,0,0,0,.18-1.508c0-.2.066-.22.239-.154A.863.863,0,0,1-660.839,439.731Z" transform="translate(692.942 -421.443)" fill="#f9e0a6"/>
        <path id="Path_47503" data-name="Path 47503" d="M-675.175,440.474l-.076.071a1.79,1.79,0,0,1-.1-1.079A2.674,2.674,0,0,0-675.175,440.474Z" transform="translate(693.587 -421.473)" fill="#515151"/>
        <path id="Path_47504" data-name="Path 47504" d="M-681.037,421.1a3.244,3.244,0,0,1,2.462,1.056c.243.275.387.145.586-.05a3.272,3.272,0,0,1,3.485-.834,3.282,3.282,0,0,1,2.007,3.713,7.932,7.932,0,0,1-2,3.737,18.584,18.584,0,0,1-3.334,2.91.659.659,0,0,1-.837.068,16.743,16.743,0,0,1-4.216-3.969,6.2,6.2,0,0,1-1.258-3.1A3.158,3.158,0,0,1-681.037,421.1Z" transform="translate(694.002 -420.602)" fill="red"/>
        <path id="Path_47505" data-name="Path 47505" d="M-688.307,424.3a3.905,3.905,0,0,0-1.2,1.071c-.107.152-.161,0-.2-.075a2.845,2.845,0,0,0-.961-1.065,2.6,2.6,0,0,0,1.081-1.013c.065-.118.138-.065.191.018A2.75,2.75,0,0,0-688.307,424.3Z" transform="translate(694.311 -420.7)" fill="#d3a06c"/>
        <path id="Path_47506" data-name="Path 47506" d="M-692.138,426.32c-.116.1-.219.179-.317.265-.394.344-.373.323-.752-.036-.244-.232-.236-.359.031-.538a2.8,2.8,0,0,0,.381-.372c.119.133.235.271.359.4C-692.346,426.132-692.247,426.217-692.138,426.32Z" transform="translate(694.439 -420.818)" fill="#d3a06c"/>
        <path id="Path_47507" data-name="Path 47507" d="M-692.877,421.626c.213.172.51.3.606.514.172.385-.36.392-.475.657-.068.154-.157.071-.236-.032-.139-.182-.386-.337-.416-.532-.034-.214.3-.294.422-.487A.613.613,0,0,1-692.877,421.626Z" transform="translate(694.44 -420.628)" fill="#d3a06c"/>
        <path id="Path_47508" data-name="Path 47508" d="M-689.917,441.445c-.555,0-.979-.325-.954-.734a.914.914,0,0,1,1.046-.685c.5.053.886.375.869.721C-688.976,441.15-689.382,441.445-689.917,441.445Z" transform="translate(694.32 -421.499)" fill="#d3a06c" opacity="0.5"/>
        <path id="Path_47509" data-name="Path 47509" d="M-683.386,441.445a1.611,1.611,0,0,1-.255-.038.755.755,0,0,1-.612-.67c0-.322.213-.553.611-.665a1.076,1.076,0,0,1,.428-.044c.533.068.863.344.849.723C-682.382,441.148-682.8,441.449-683.386,441.445Z" transform="translate(694.007 -421.499)" fill="#d3a06c" opacity="0.5"/>
        <path id="Path_47510" data-name="Path 47510" d="M-686.451,444.133a1.938,1.938,0,0,1-1.912-.966c-.077-.138-.172-.3.028-.406.17-.091.273.032.339.173a1.56,1.56,0,0,0,2.691-.011c.066-.143.177-.261.341-.152s.1.26.022.39A1.8,1.8,0,0,1-686.451,444.133Z" transform="translate(694.206 -421.628)" fill="#323232"/>
        <path id="Path_47511" data-name="Path 47511" d="M-688.168,439.015a.554.554,0,0,1-.571.536.562.562,0,0,1-.542-.568.554.554,0,0,1,.573-.533A.544.544,0,0,1-688.168,439.015Z" transform="translate(694.245 -421.425)" fill="#323232"/>
        <path id="Path_47512" data-name="Path 47512" d="M-684.452,438.451a.536.536,0,0,1,.533.563.544.544,0,0,1-.563.537.552.552,0,0,1-.537-.566A.545.545,0,0,1-684.452,438.451Z" transform="translate(694.043 -421.425)" fill="#313131"/>
        <path id="Path_47513" data-name="Path 47513" d="M-671.2,440.055c.544,0,.961.292.964.675,0,.423-.435.735-1,.716-.524-.018-.911-.315-.913-.7S-671.744,440.056-671.2,440.055Z" transform="translate(693.433 -421.501)" fill="#d3a06c" opacity="0.5"/>
        <path id="Path_47514" data-name="Path 47514" d="M-664.608,440.048a2.174,2.174,0,0,1,.341.031c.309.079.568.228.614.584a.647.647,0,0,1-.473.694,1.113,1.113,0,0,1-.952-.009.647.647,0,0,1-.45-.676.689.689,0,0,1,.574-.584A2.144,2.144,0,0,1-664.608,440.048Z" transform="translate(693.119 -421.501)" fill="#d3a06c" opacity="0.5"/>
        <path id="Path_47515" data-name="Path 47515" d="M-667.607,444.134a2.013,2.013,0,0,1-2.033-.961c-.077-.138-.176-.3.023-.409.17-.093.275.03.34.171a1.561,1.561,0,0,0,2.693-.008c.065-.143.173-.263.34-.155s.1.257.027.388A1.791,1.791,0,0,1-667.607,444.134Z" transform="translate(693.319 -421.628)" fill="#323232"/>
        <path id="Path_47516" data-name="Path 47516" d="M-669.445,438.985a.553.553,0,0,1-.539.567.556.556,0,0,1-.574-.533.555.555,0,0,1,.541-.566A.549.549,0,0,1-669.445,438.985Z" transform="translate(693.358 -421.425)" fill="#323232"/>
        <path id="Path_47517" data-name="Path 47517" d="M-665.738,439.552a.55.55,0,0,1-.561-.541.548.548,0,0,1,.544-.558.539.539,0,0,1,.557.54A.541.541,0,0,1-665.738,439.552Z" transform="translate(693.156 -421.425)" fill="#313131"/>
        <path id="Path_47518" data-name="Path 47518" d="M-682.283,426.05a.888.888,0,0,1,.5-.912.883.883,0,0,1,1.014.168c.332.3.64.629.957.946.369.367.369.367.726.01l2.931-2.932a2.831,2.831,0,0,1,.294-.271.874.874,0,0,1,1.137.051.873.873,0,0,1,.151,1.126,2.3,2.3,0,0,1-.326.389q-1.965,1.97-3.934,3.935c-.481.48-.739.479-1.221,0-.635-.634-1.268-1.27-1.9-1.9A.863.863,0,0,1-682.283,426.05Z" transform="translate(693.913 -420.687)" fill="#313131"/>
        <path id="Path_47519" data-name="Path 47519" d="M-681.33,425.508c.13-.01.265.112.4.242.4.4.815.8,1.206,1.212.215.229.376.23.6,0,1.09-1.1,2.191-2.2,3.289-3.295a1.949,1.949,0,0,1,.3-.264.417.417,0,0,1,.563.066.412.412,0,0,1,.071.533,1.328,1.328,0,0,1-.229.279c-1.327,1.331-2.662,2.655-3.981,3.993-.231.234-.379.253-.616,0-.627-.657-1.28-1.292-1.924-1.933a.5.5,0,0,1-.141-.563A.453.453,0,0,1-681.33,425.508Z" transform="translate(693.892 -420.708)" fill="#fff7ea"/>
      </g>
    </g>
    <rect id="Rectangle_3367" data-name="Rectangle 3367" width="48" height="48" transform="translate(26 103)" fill="none"/>
  </g>
</svg>
