<svg xmlns="http://www.w3.org/2000/svg" width="48" height="48" viewBox="0 0 48 48">
  <g id="icon" transform="translate(-26 -103)">
    <rect id="Rectangle_3366" data-name="Rectangle 3366" width="48" height="48" transform="translate(26 103)" fill="none"/>
    <g id="_5L96A6.tif" data-name="5L96A6.tif" transform="translate(-2278.022 262.994)">
      <g id="Group_11846" data-name="Group 11846" transform="translate(2310.021 -150.994)">
        <path id="Path_47666" data-name="Path 47666" d="M2589.117-121.515a8.286,8.286,0,0,1-1.555-.571,2.61,2.61,0,0,1-1.251-2.343c-.008-.692,0-1.385,0-2.077,0-.112,0-.225,0-.379h-5.9v-4.506a5.434,5.434,0,0,0,4.517-1.8,4.5,4.5,0,0,0,1.172-3.1,4.62,4.62,0,0,0-1.7-3.589,5.534,5.534,0,0,0-3.984-1.272v-4.509h5.9c0-.818,0-1.6,0-2.382a2.976,2.976,0,0,1,.425-1.589,3.1,3.1,0,0,1,3.162-1.321,2.858,2.858,0,0,1,2.335,2.307,13.729,13.729,0,0,1,.06,1.45c.009.494,0,.989,0,1.507.106.011.188.027.268.027q2.7,0,5.4,0a1.98,1.98,0,0,0,.253-.033v18.84a1.97,1.97,0,0,0-.253-.032q-2.695,0-5.389,0c-.081,0-.164.015-.276.025,0,.812,0,1.605,0,2.4a2.623,2.623,0,0,1-1.254,2.373,8.24,8.24,0,0,1-1.553.57Z" transform="translate(-2561.566 150.994)" fill="#fb5968" stroke="#373a3c" stroke-width="1"/>
        <path id="Path_47667" data-name="Path 47667" d="M2321.155-145.645h5.538v6.582c.148,0,.271,0,.392,0,.8.007,1.595-.015,2.389.029a2.751,2.751,0,0,1,2.569,2.757,2.751,2.751,0,0,1-2.58,2.781c-.783.044-1.57.021-2.355.028-.125,0-.25,0-.409,0v6.562h-5.546c0-.788,0-1.569,0-2.35a3.138,3.138,0,0,0-.4-1.59,2.822,2.822,0,0,0-2.96-1.327,2.772,2.772,0,0,0-2.193,2.3c-.056.479-.047.967-.056,1.451s0,.991,0,1.513h-5.526v-18.736h5.526c0-.824,0-1.606,0-2.388a3.13,3.13,0,0,1,.4-1.59,2.823,2.823,0,0,1,2.962-1.324,2.772,2.772,0,0,1,2.189,2.306,14.5,14.5,0,0,1,.056,1.451C2321.161-146.692,2321.155-146.2,2321.155-145.645Z" transform="translate(-2310.021 150.991)" fill="#f9e0a6" stroke="#373a3c" stroke-width="1"/>
        <g id="Group_11847" data-name="Group 11847" transform="translate(5.672 9.065)">
          <path id="Path_47668" data-name="Path 47668" d="M1967.829-276.628l1.29-.125a1.576,1.576,0,0,0,.473.954,1.43,1.43,0,0,0,.961.3,1.477,1.477,0,0,0,.965-.271.806.806,0,0,0,.325-.634.6.6,0,0,0-.136-.4,1.094,1.094,0,0,0-.477-.284q-.233-.081-1.062-.287a3.6,3.6,0,0,1-1.5-.649,1.709,1.709,0,0,1-.6-1.322,1.688,1.688,0,0,1,.284-.938,1.781,1.781,0,0,1,.82-.665,3.284,3.284,0,0,1,1.292-.229,2.773,2.773,0,0,1,1.861.542,1.913,1.913,0,0,1,.656,1.447l-1.326.058a1.127,1.127,0,0,0-.365-.728,1.336,1.336,0,0,0-.84-.222,1.515,1.515,0,0,0-.9.237.479.479,0,0,0-.211.408.505.505,0,0,0,.2.4,3.484,3.484,0,0,0,1.219.439,6.429,6.429,0,0,1,1.431.473,1.846,1.846,0,0,1,.726.667,1.953,1.953,0,0,1,.262,1.046,1.934,1.934,0,0,1-.313,1.057,1.88,1.88,0,0,1-.887.732,3.721,3.721,0,0,1-1.429.24,2.845,2.845,0,0,1-1.913-.576A2.5,2.5,0,0,1,1967.829-276.628Z" transform="translate(-1967.829 281.17)" fill="#373a3c"/>
        </g>
        <g id="Group_11848" data-name="Group 11848" transform="translate(27.183 9.921)">
          <path id="Path_47669" data-name="Path 47669" d="M1972.518-273.688v-5.939h2.524a4.32,4.32,0,0,1,1.384.16,1.365,1.365,0,0,1,.691.569,1.711,1.711,0,0,1,.259.936,1.585,1.585,0,0,1-.393,1.1,1.887,1.887,0,0,1-1.175.549,2.8,2.8,0,0,1,.642.5,6.772,6.772,0,0,1,.682.964l.725,1.159h-1.434l-.867-1.292a8.409,8.409,0,0,0-.632-.873.922.922,0,0,0-.361-.247,1.975,1.975,0,0,0-.6-.067h-.243v2.479Zm1.2-3.427h.887a4.585,4.585,0,0,0,1.078-.073.646.646,0,0,0,.336-.251.773.773,0,0,0,.122-.446.711.711,0,0,0-.16-.484.734.734,0,0,0-.452-.233q-.146-.02-.875-.02h-.936Z" transform="translate(-1972.518 279.627)" fill="#f9e0a6"/>
        </g>
      </g>
    </g>
  </g>
</svg>
