<svg width="99" height="103" viewBox="0 0 99 103" fill="none" xmlns="http://www.w3.org/2000/svg">
<g opacity="0.8">
<path d="M59.843 82.8168C47.2258 82.8168 36.9648 72.5738 36.9648 59.9787C36.9648 47.3836 47.2258 37.1406 59.843 37.1406C72.4602 37.1406 82.7212 47.3836 82.7212 59.9787C82.7212 72.5738 72.4602 82.8168 59.843 82.8168ZM59.843 38.8099C48.1379 38.8099 38.713 48.2941 38.713 59.9028C38.713 71.5874 48.2139 80.9958 59.843 80.9958C71.5481 80.9958 80.973 71.5115 80.973 59.9028C80.973 48.2941 71.5481 38.8099 59.843 38.8099Z" fill="#B19AF1"/>
<path d="M57.1995 76.8714C56.7435 76.8714 56.3635 76.4921 56.3635 76.0368V67.8424C56.3635 67.3872 56.7435 67.0078 57.1995 67.0078C57.6556 67.0078 58.0356 67.3872 58.0356 67.8424V76.0368C58.0356 76.4921 57.6556 76.8714 57.1995 76.8714Z" fill="#8F6EEB"/>
<path d="M62.3968 76.8714C61.9408 76.8714 61.5607 76.4921 61.5607 76.0368V67.8424C61.5607 67.3872 61.9408 67.0078 62.3968 67.0078C62.8529 67.0078 63.2329 67.3872 63.2329 67.8424V76.0368C63.3089 76.4921 62.9289 76.8714 62.3968 76.8714Z" fill="#8F6EEB"/>
<path d="M63.7653 79.2221C63.3092 79.2221 62.9292 78.8427 62.9292 78.3874C62.9292 77.2493 61.5611 76.263 59.8889 76.263C58.2167 76.263 56.8486 77.2493 56.8486 78.3874C56.8486 78.8427 56.4686 79.2221 56.0125 79.2221C55.5565 79.2221 55.1765 78.8427 55.1765 78.3874C55.1765 76.263 57.3047 74.5938 59.8889 74.5938C62.4731 74.5938 64.6013 76.263 64.6013 78.3874C64.6013 78.8427 64.2213 79.2221 63.7653 79.2221Z" fill="#8F6EEB"/>
<path d="M59.8889 69.3725C57.3047 69.3725 55.1765 67.7032 55.1765 65.5788C55.1765 65.1235 55.5565 64.7441 56.0125 64.7441C56.4686 64.7441 56.8486 65.1235 56.8486 65.5788C56.8486 66.7169 58.2167 67.7032 59.8889 67.7032C61.5611 67.7032 62.9292 66.7169 62.9292 65.5788C62.9292 65.1235 63.3092 64.7441 63.7653 64.7441C64.2213 64.7441 64.6013 65.1235 64.6013 65.5788C64.6013 67.6273 62.4731 69.3725 59.8889 69.3725Z" fill="#8F6EEB"/>
<path d="M49.737 59.974C49.281 59.974 48.9009 59.5947 48.9009 59.1394V51.7038C48.9009 51.2485 49.281 50.8691 49.737 50.8691C50.1931 50.8691 50.5731 51.2485 50.5731 51.7038V59.1394C50.5731 59.5947 50.1931 59.974 49.737 59.974Z" fill="#8F6EEB"/>
<path d="M49.7586 52.5324C49.6066 52.5324 49.3786 52.4565 49.2266 52.3806C48.8465 52.0771 48.7705 51.546 49.0746 51.1666L49.8346 50.1803C50.7467 48.9663 52.2669 48.4352 53.711 48.6628C55.1551 48.8904 56.2952 49.8768 56.7513 51.2425V51.3184C56.9033 51.7736 56.5993 52.2289 56.2192 52.3806C55.7632 52.5324 55.3072 52.2289 55.1551 51.8495V51.7736C54.9271 51.0149 54.2431 50.4838 53.407 50.332C52.5709 50.1803 51.6588 50.4838 51.1268 51.2425L50.3667 52.2289C50.2907 52.3806 50.0627 52.5324 49.7586 52.5324Z" fill="#8F6EEB"/>
<path d="M49.7294 52.5343C49.5014 52.5343 49.1973 52.4585 49.0453 52.2308L48.2853 51.2445C47.7532 50.5616 46.9171 50.1822 46.005 50.334C45.169 50.4857 44.5609 51.0168 44.2569 51.7756C44.1049 52.2308 43.6488 52.5343 43.1928 52.3826C42.7367 52.2308 42.5087 51.7756 42.6607 51.3203V51.2445C43.1168 49.8787 44.2569 48.8924 45.701 48.6648C47.2212 48.4371 48.6653 48.9683 49.5774 50.1822L50.3375 51.1686C50.6415 51.548 50.5655 52.0791 50.1854 52.3826C50.1094 52.4585 49.9574 52.5343 49.7294 52.5343Z" fill="#8F6EEB"/>
<path d="M64.9712 59.5827C64.7432 59.5827 64.5152 59.5068 64.3632 59.3551C64.0591 59.0516 64.0591 58.5205 64.3632 58.1411L73.484 49.0362C73.788 48.7327 74.3201 48.7327 74.7001 49.0362C75.0042 49.3397 75.0042 49.8708 74.7001 50.2502L65.5793 59.3551C65.4273 59.5068 65.1992 59.5827 64.9712 59.5827Z" fill="#8F6EEB"/>
<path d="M71.1606 60.2619C70.9326 60.2619 70.7046 60.186 70.5525 60.0342L63.7879 53.2814C63.4839 52.978 63.4839 52.4468 63.7879 52.0675C64.0919 51.764 64.624 51.764 65.004 52.0675L71.7687 58.8202C72.0727 59.1237 72.0727 59.6549 71.7687 60.0342C71.5406 60.186 71.3126 60.2619 71.1606 60.2619Z" fill="#8F6EEB"/>
<path d="M74.8539 49.804H68.8493C68.3933 49.804 68.0132 49.4246 68.0132 48.9694C68.0132 48.5141 68.3933 48.1348 68.8493 48.1348H74.8539C75.3099 48.1348 75.69 48.5141 75.69 48.9694C75.69 49.4246 75.3099 49.804 74.8539 49.804Z" fill="#8F6EEB"/>
<path d="M74.7954 55.798C74.3394 55.798 73.9594 55.4187 73.9594 54.9634V48.9694C73.9594 48.5141 74.3394 48.1348 74.7954 48.1348C75.2515 48.1348 75.6315 48.5141 75.6315 48.9694V54.9634C75.6315 55.4187 75.2515 55.798 74.7954 55.798Z" fill="#8F6EEB"/>
<path d="M59.938 60.8133C59.482 60.8133 59.1019 60.4339 59.1019 59.9787V37.9752C59.1019 37.52 59.482 37.1406 59.938 37.1406C60.394 37.1406 60.7741 37.52 60.7741 37.9752V59.9787C60.7741 60.4339 60.394 60.8133 59.938 60.8133Z" fill="#B19AF1"/>
<path d="M40.7608 71.8039C40.4568 71.8039 40.1528 71.6521 40.0008 71.3486C39.7727 70.9693 39.9247 70.4382 40.3048 70.2105L59.3066 59.2847C59.6866 59.0571 60.2187 59.2088 60.4467 59.5882C60.6747 59.9675 60.5227 60.4987 60.1427 60.7263L41.1409 71.6521C41.0649 71.728 40.9128 71.8039 40.7608 71.8039Z" fill="#B19AF1"/>
<path d="M78.8844 71.7947C78.7323 71.7947 78.5803 71.7947 78.4283 71.7188L59.8066 60.8689C59.4265 60.6412 59.2745 60.1101 59.5025 59.7308C59.7305 59.3514 60.2626 59.1996 60.6426 59.4273L79.3404 70.2014C79.7204 70.429 79.8724 70.9601 79.6444 71.3395C79.4164 71.643 79.1884 71.7947 78.8844 71.7947Z" fill="#B19AF1"/>
<path d="M11.3728 5.9245C11.3728 2.77936 8.80961 0.220703 5.65709 0.220703C2.53424 0.220703 -0.00482178 2.77936 -0.00482178 5.9245C-0.00482178 9.06963 2.53424 11.6292 5.65709 11.6292C8.80961 11.6292 11.3728 9.06963 11.3728 5.9245ZM1.89299 5.9245C1.89299 3.82373 3.58137 2.11518 5.65709 2.11518C7.76248 2.11518 9.47495 3.82373 9.47495 5.9245C9.47495 8.02526 7.76248 9.73474 5.65709 9.73474C3.58137 9.73474 1.89299 8.02526 1.89299 5.9245Z" fill="#D2C5F7"/>
<path d="M84.9217 7.82906C85.1071 8.01406 85.3499 8.10657 85.5926 8.10657C85.8354 8.10657 86.0782 8.01406 86.2635 7.82906L87.8129 6.28239L89.3623 7.82906C89.5476 8.01406 89.7904 8.10657 90.0332 8.10657C90.276 8.10657 90.5188 8.01406 90.7041 7.82906C91.0748 7.45904 91.0748 6.85962 90.7041 6.4896L89.1547 4.94293L90.7041 3.39627C91.0748 3.02625 91.0748 2.42682 90.7041 2.05681C90.3335 1.68679 89.733 1.68679 89.3623 2.05681L87.8129 3.60348L86.2635 2.05681C85.8929 1.68679 85.2924 1.68679 84.9217 2.05681C84.5511 2.42682 84.5511 3.02625 84.9217 3.39627L86.4711 4.94293L84.9217 6.4896C84.5511 6.85961 84.5511 7.45904 84.9217 7.82906Z" fill="#D2C5F7"/>
<path d="M20.0006 13.5683C20.1859 13.7533 20.4287 13.8458 20.6715 13.8458C20.9143 13.8458 21.1571 13.7533 21.3424 13.5683L22.8927 12.021L24.443 13.5683C24.6284 13.7533 24.8711 13.8458 25.1139 13.8458C25.3567 13.8458 25.5995 13.7533 25.7848 13.5683C26.1555 13.1982 26.1555 12.5988 25.7848 12.2288L24.2346 10.6817L25.7848 9.13455C26.1555 8.76453 26.1555 8.16511 25.7848 7.79509C25.4142 7.42507 24.8137 7.42507 24.443 7.79509L22.8927 9.34233L21.3424 7.79509C20.9717 7.42507 20.3713 7.42507 20.0006 7.79509C19.6299 8.16511 19.6299 8.76453 20.0006 9.13455L21.5508 10.6817L20.0006 12.2288C19.6299 12.5988 19.6299 13.1982 20.0006 13.5683Z" fill="#D2C5F7"/>
<path d="M10.5829 87.6458H8.39222V85.459C8.39222 84.9354 7.96781 84.5117 7.44332 84.5117C6.91883 84.5117 6.49442 84.9354 6.49442 85.459V87.6458H4.30193C3.77744 87.6458 3.35303 88.0694 3.35303 88.593C3.35303 89.1166 3.77744 89.5402 4.30193 89.5402H6.49442V91.728C6.49442 92.2515 6.91883 92.6752 7.44332 92.6752C7.96781 92.6752 8.39222 92.2515 8.39222 91.728V89.5402H10.5829C11.1073 89.5402 11.5318 89.1166 11.5318 88.593C11.5318 88.0694 11.1073 87.6458 10.5829 87.6458Z" fill="#D2C5F7"/>
<path d="M98.0023 20.9217C87.7849 10.7213 74.2001 5.10352 59.7497 5.10352C44.8971 5.10352 31.4234 11.1061 21.6341 20.807C21.5859 20.8394 21.5396 20.8773 21.497 20.9208C21.4543 20.9633 21.4154 21.0096 21.3821 21.0577C11.6539 30.827 5.63434 44.278 5.63434 59.1064C5.63434 73.9357 11.6521 87.3858 21.3821 97.1551C21.4154 97.2032 21.4543 97.2495 21.497 97.293C21.5396 97.3364 21.5859 97.3744 21.636 97.4077C31.4234 107.109 44.8971 113.11 59.7497 113.11C74.2001 113.11 87.7849 107.492 98.0023 97.292C108.222 87.0935 113.848 73.5324 113.848 59.1064C113.848 44.6813 108.222 31.1203 98.0023 20.9217ZM83.6168 82.9308C77.2414 89.296 68.7642 92.8019 59.7497 92.8019L59.7456 92.8027C50.728 92.8022 42.2518 89.2991 35.8769 82.9391C29.4959 76.5739 25.982 68.1098 25.982 59.1064C25.982 50.103 29.4959 41.6398 35.8769 35.2746C42.2524 28.915 50.7295 25.4118 59.7459 25.4118H59.7497C68.7642 25.4118 77.2414 28.9168 83.6168 35.282C89.9923 41.6463 93.5025 50.1076 93.5025 59.1064C93.5025 68.1061 89.9923 76.5674 83.6168 82.9308ZM85.6207 34.6211L97.3259 22.9364C106.544 32.4699 111.708 44.9089 111.941 58.1592H95.3873C95.1575 49.3243 91.7181 41.0326 85.6207 34.6211ZM84.2785 33.2811C77.8567 27.1944 69.5501 23.7588 60.6986 23.5294V7.00632C73.9721 7.24128 86.432 12.3938 95.9841 21.597L84.2785 33.2811ZM58.8008 7.00632L58.7989 23.5285C49.9456 23.7579 41.6371 27.1907 35.2153 33.2737L23.5264 21.6081C32.7115 12.7702 45.1232 7.25053 58.8008 7.00632ZM22.1846 22.9466L33.8716 34.6132C27.7705 41.0247 24.327 49.3195 24.0972 58.1592H7.54141C7.78605 44.5028 13.3201 32.1137 22.1846 22.9466ZM7.54141 60.0536H24.0972C24.327 68.8942 27.7705 77.1891 33.8716 83.6005L22.1846 95.2671C13.3219 86.1 7.78605 73.7109 7.54141 60.0536ZM35.2153 84.94C41.6371 91.023 49.9474 94.4568 58.8008 94.6853V111.207C45.1232 110.963 32.7115 105.443 23.5264 96.6057L35.2153 84.94ZM60.6986 111.207V94.6843C69.5501 94.4549 77.8567 91.0193 84.2785 84.9316L95.9841 96.6168C86.432 105.82 73.9721 110.972 60.6986 111.207ZM97.3259 95.2764L91.4765 89.4378L85.6207 83.5917C91.7181 77.1811 95.1575 68.8894 95.3873 60.0536H111.941C111.708 73.3039 106.544 85.7438 97.3259 95.2764Z" fill="#D2C5F7"/>
<path d="M36.4586 23.5371C36.6143 23.5371 36.7718 23.4992 36.9164 23.4196C37.376 23.1671 37.5428 22.5908 37.2889 22.1329C36.9701 21.5547 36.896 20.8878 37.0813 20.2532C37.2667 19.6196 37.6855 19.096 38.2638 18.7787C38.8476 18.4586 39.5166 18.3856 40.1468 18.5678C40.7806 18.7509 41.3032 19.1709 41.622 19.7491L41.6258 19.7536L43.6959 23.5029C43.8682 23.8165 44.1926 23.9931 44.5262 23.9931C44.6818 23.9931 44.8394 23.9552 44.9839 23.8757C45.4436 23.6231 45.6104 23.0468 45.3565 22.5889L43.2863 18.837C42.6284 17.6427 43.0657 16.1377 44.2593 15.4819C44.8375 15.1646 45.5047 15.0915 46.1404 15.2728C46.7761 15.456 47.3006 15.875 47.6212 16.4531C47.8733 16.912 48.4552 17.0775 48.9093 16.8259C49.3689 16.5734 49.5357 15.9971 49.2818 15.5392C48.7184 14.517 47.7899 13.7761 46.6668 13.4523C45.5473 13.1304 44.3649 13.2599 43.3437 13.8223C42.1244 14.4919 41.3705 15.6658 41.1597 16.9414C40.9997 16.8738 40.8444 16.7973 40.675 16.7482C39.55 16.4254 38.3731 16.5577 37.3482 17.1192C36.327 17.6807 35.5857 18.6057 35.2595 19.725C34.9333 20.8452 35.0631 22.0256 35.6283 23.0468C35.8007 23.3604 36.125 23.5371 36.4586 23.5371Z" fill="#B19AF1"/>
<path d="M80.728 93.3824C79.6086 93.0596 78.4243 93.19 77.405 93.7524C76.3801 94.3158 75.6369 95.2417 75.3126 96.3601C75.2637 96.5288 75.2455 96.7003 75.2173 96.871C75.0579 96.8036 74.903 96.7272 74.7344 96.6783C73.6187 96.3564 72.4344 96.485 71.4095 97.0493C69.2985 98.2111 68.5257 100.871 69.6896 102.978C69.862 103.291 70.1863 103.468 70.5199 103.468C70.6756 103.468 70.8331 103.43 70.9777 103.351C71.4373 103.098 71.6041 102.522 71.3502 102.064C70.6922 100.872 71.1296 99.3665 72.325 98.7088C72.9051 98.3915 73.5705 98.3156 74.2062 98.4979C74.84 98.682 75.3645 99.101 75.6851 99.6801L77.7571 103.433C77.9295 103.747 78.2538 103.923 78.5874 103.923C78.7431 103.923 78.9006 103.885 79.0452 103.806C79.5048 103.553 79.6716 102.977 79.4177 102.519L77.3457 98.7661C77.0269 98.1871 76.9528 97.5201 77.1363 96.8874C77.3197 96.2556 77.7405 95.7311 78.3205 95.4119C78.8988 95.0956 79.566 95.0197 80.2017 95.2029C80.8374 95.386 81.3619 95.8051 81.6825 96.3832C81.9345 96.8421 82.5165 97.0067 82.9705 96.756C83.4302 96.5035 83.597 95.9272 83.3431 95.4693C82.7797 94.4471 81.8511 93.7062 80.728 93.3824Z" fill="#B19AF1"/>
<path d="M102.453 43.6165C103.111 44.8089 102.673 46.3139 101.48 46.9716C101.02 47.2242 100.853 47.8005 101.107 48.2584C101.28 48.5719 101.604 48.7486 101.938 48.7486C102.093 48.7486 102.251 48.7107 102.395 48.6311C104.506 47.4693 105.277 44.8098 104.113 42.7026C103.442 41.4859 102.267 40.7332 100.99 40.5224C101.058 40.3623 101.134 40.2069 101.183 40.0375C101.508 38.9182 101.376 37.7397 100.811 36.7176C99.6488 34.6085 96.9818 33.8435 94.8727 34.9998C94.4131 35.2523 94.2463 35.8277 94.4984 36.2865C94.7541 36.7462 95.3342 36.909 95.7883 36.6593C96.9837 36.0025 98.4923 36.441 99.1502 37.6315C99.469 38.2106 99.5431 38.8775 99.3597 39.5103C99.1762 40.1421 98.7555 40.6666 98.1754 40.9857L94.4168 43.0532C93.9572 43.3057 93.7904 43.882 94.0443 44.3399C94.2982 44.7996 94.8783 44.9624 95.3324 44.7127L99.0909 42.6452C100.286 41.9912 101.793 42.4232 102.453 43.6165Z" fill="#B19AF1"/>
<path d="M24.0454 76.6977C23.3737 75.4802 22.1973 74.7273 20.9188 74.5173C21.4243 73.3263 21.4156 71.9303 20.7428 70.7118C19.5808 68.6027 16.9138 67.8368 14.8048 68.9949C14.3451 69.2475 14.1783 69.8238 14.4322 70.2817C14.6861 70.7414 15.2662 70.9051 15.7203 70.6545C16.9157 70.0005 18.4206 70.4325 19.0822 71.6258C19.401 72.2048 19.4751 72.8727 19.2917 73.5045C19.1082 74.1372 18.6875 74.6617 18.1074 74.9809L14.3488 77.0483C13.8892 77.3009 13.7224 77.8772 13.9763 78.3351C14.2302 78.7948 14.8085 78.9576 15.2644 78.7079L19.0229 76.6404C20.2183 75.9845 21.7269 76.4184 22.3849 77.6117C22.7018 78.188 22.7759 78.8549 22.5924 79.4886C22.409 80.1232 21.9901 80.6486 21.41 80.9668C20.9504 81.2193 20.7836 81.7956 21.0375 82.2535C21.2099 82.5671 21.5342 82.7438 21.8678 82.7438C22.0235 82.7438 22.181 82.7059 22.3256 82.6263C23.3486 82.063 24.0918 81.1361 24.4161 80.0149C24.7404 78.8947 24.6089 77.7171 24.0454 76.6977Z" fill="#B19AF1"/>
<path d="M67.3029 17.7973C67.7811 18.0018 68.3426 17.7779 68.5483 17.2978C69.008 16.222 70.2645 15.7188 71.3394 16.1794C71.8639 16.4024 72.2698 16.8149 72.4811 17.3403C72.6924 17.8658 72.685 18.443 72.4607 18.9656C72.4093 19.0862 72.3847 19.2115 72.3844 19.3346C72.3836 19.5806 72.4795 19.8188 72.6507 19.9961C72.7363 20.0848 72.8406 20.1582 72.9611 20.2098C73.0816 20.2613 73.2073 20.2852 73.3312 20.2852C73.332 20.2852 73.3328 20.2857 73.3336 20.2857C73.337 20.2857 73.3398 20.2829 73.3431 20.2829C73.5019 20.2808 73.6502 20.2279 73.7878 20.1515C73.8251 20.131 73.8566 20.1108 73.891 20.0853C74.0204 19.9898 74.1343 19.8728 74.203 19.7154C74.2038 19.7137 74.2057 19.713 74.2065 19.7112C74.2063 19.7118 74.2068 19.7106 74.2065 19.7112C74.4309 19.1892 74.8444 18.7833 75.3704 18.5725C75.8912 18.3607 76.4695 18.3653 76.9977 18.5919C77.5221 18.8149 77.928 19.2274 78.1393 19.7529C78.3506 20.2783 78.3432 20.8555 78.1189 21.3791C77.9132 21.8601 78.1375 22.416 78.6193 22.6223C78.7398 22.6738 78.8655 22.6977 78.9894 22.6977C78.9902 22.6977 78.991 22.6982 78.9918 22.6982C78.9952 22.6982 78.9979 22.6954 79.0012 22.6954C79.1601 22.6933 79.3086 22.6405 79.4464 22.5639C79.4835 22.5435 79.5146 22.5233 79.5489 22.498C79.6801 22.4014 79.7963 22.283 79.8648 22.1228C80.3262 21.0451 81.5791 20.5447 82.6559 21.0035C83.1804 21.2264 83.5862 21.6399 83.7975 22.1654C84.0088 22.6899 84.0014 23.2671 83.7771 23.7897C83.5714 24.2717 83.7957 24.8276 84.2775 25.0339C84.398 25.0857 84.5259 25.1098 84.65 25.1098C85.0189 25.1098 85.3691 24.8942 85.523 24.5353C85.9455 23.5464 85.9585 22.454 85.5582 21.4586C85.1579 20.4642 84.3924 19.6835 83.4009 19.2607C82.2628 18.778 81.029 18.8755 80.0022 19.3958C79.9671 19.2792 79.946 19.1604 79.9 19.0461C79.4996 18.0517 78.7324 17.271 77.7427 16.8501C76.7549 16.4264 75.6614 16.4135 74.6625 16.814C74.5494 16.8593 74.45 16.9255 74.3428 16.9799C74.308 16.8649 74.2872 16.7474 74.2418 16.6345C73.8414 15.6392 73.0742 14.8585 72.0845 14.4366C70.0514 13.5662 67.6754 14.5134 66.8025 16.5541C66.5968 17.0351 66.821 17.591 67.3029 17.7973Z" fill="#B19AF1"/>
<path d="M49.145 99.6382C48.1498 99.2155 47.0545 99.2053 46.063 99.6031C45.9493 99.6486 45.8495 99.715 45.7418 99.7698C45.4088 98.6691 44.6262 97.7122 43.4868 97.2267C42.4972 96.8039 41.4018 96.791 40.4048 97.1915C40.2912 97.2371 40.1914 97.3034 40.0837 97.3582C39.7509 96.2572 38.9681 95.2997 37.8286 94.8142C36.8389 94.3923 35.7436 94.3794 34.7465 94.779C33.7495 95.1786 32.9692 95.9436 32.5466 96.9316C32.3409 97.4135 32.5652 97.9695 33.047 98.1748C33.5345 98.3793 34.0868 98.1563 34.2925 97.6753C34.5149 97.1517 34.9282 96.7484 35.4545 96.5375C35.9827 96.3257 36.5591 96.334 37.0836 96.5569C38.1622 97.0158 38.6645 98.2664 38.2049 99.3441C37.9991 99.826 38.2234 100.382 38.7052 100.587C38.9908 100.708 39.2908 100.667 39.5382 100.527C39.5721 100.508 39.6004 100.49 39.6319 100.466C39.7642 100.369 39.8813 100.25 39.9507 100.088C40.1731 99.5642 40.5864 99.1609 41.1127 98.95C41.6428 98.7382 42.2173 98.7456 42.7418 98.9694C43.8204 99.4283 44.3227 100.679 43.8631 101.756C43.6573 102.238 43.8816 102.794 44.3635 102.999C44.6493 103.12 44.9496 103.079 45.1971 102.939C45.2306 102.92 45.2587 102.901 45.2898 102.878C45.4223 102.781 45.5395 102.662 45.6089 102.499C45.8313 101.977 46.2446 101.572 46.7709 101.362C47.301 101.15 47.8774 101.157 48.4 101.381C49.4786 101.841 49.9809 103.091 49.5213 104.168C49.3155 104.65 49.5398 105.206 50.0217 105.411C50.144 105.463 50.27 105.487 50.3942 105.487C50.763 105.487 51.1133 105.272 51.2671 104.912C52.1363 102.874 51.1856 100.509 49.145 99.6382Z" fill="#B19AF1"/>
<path d="M24.7341 42.9007C25.0701 42.5447 25.4419 42.198 25.8454 41.8659C26.2495 41.5338 26.3069 40.9362 25.9733 40.5329C25.6397 40.1259 25.0411 40.0713 24.6371 40.4043C24.3624 40.6302 24.1269 40.8754 23.8772 41.114L17.5847 37.8977C17.628 37.5353 17.6911 37.1835 17.6945 36.8022C17.7001 36.2786 17.2794 35.8513 16.7549 35.8457C16.2526 35.8818 15.8023 36.2601 15.7967 36.7837C15.7911 37.3026 15.7429 37.8003 15.6503 38.2647C15.3778 39.6393 14.7032 40.9158 13.6468 42.0583C13.6465 42.0586 13.6472 42.0579 13.6468 42.0583C13.3109 42.4134 12.9385 42.7622 12.5367 43.0925C12.1308 43.4246 12.0734 44.0212 12.4051 44.4254C12.5941 44.6539 12.8647 44.7714 13.139 44.7714C13.3522 44.7714 13.5653 44.7011 13.7414 44.5559C14.0172 44.3298 14.2526 44.0845 14.5026 43.8458L20.7649 47.0468C20.7221 47.3938 20.6923 47.7563 20.6858 48.1524C20.6784 48.6751 21.0954 49.1061 21.6199 49.1145C21.6254 49.1145 21.6291 49.1145 21.6347 49.1145C22.1518 49.1145 22.5743 48.7001 22.5836 48.182C22.5928 47.6252 22.6429 47.1469 22.7411 46.6955C23.0098 45.2987 23.6629 44.057 24.7341 42.9007C24.7345 42.9004 24.7338 42.9011 24.7341 42.9007ZM15.865 42.3338C16.0995 42.0112 16.3031 41.6777 16.4926 41.3395C16.5327 41.2681 16.5844 41.2006 16.6225 41.1286C16.8397 40.7167 17.023 40.2935 17.1742 39.8605C17.1786 39.8478 17.186 39.8361 17.1904 39.8234L22.5521 42.5652C22.5361 42.5868 22.5257 42.6104 22.5099 42.6321C22.269 42.9641 22.0594 43.3068 21.8667 43.6551C21.8344 43.7135 21.7919 43.7682 21.7609 43.8271C21.541 44.2449 21.3574 44.6741 21.2068 45.1122C21.2037 45.1212 21.1986 45.1296 21.1954 45.1387L15.8263 42.395C15.8409 42.3752 15.8506 42.3537 15.865 42.3338Z" fill="#B19AF1"/>
<path d="M94.813 74.6727C94.477 75.0287 94.1052 75.3755 93.7017 75.7076C93.2976 76.0397 93.2402 76.6373 93.5738 77.0406C93.761 77.2681 94.0334 77.3856 94.3058 77.3856C94.519 77.3856 94.7321 77.3144 94.91 77.1692C95.1847 76.9432 95.4202 76.6981 95.6699 76.4594L101.932 79.6601C101.889 80.0071 101.859 80.3696 101.853 80.7657C101.845 81.2884 102.262 81.7194 102.787 81.7278C102.792 81.7278 102.796 81.7278 102.801 81.7278C103.319 81.7278 103.741 81.3133 103.75 80.7953C103.76 80.2384 103.81 79.7602 103.908 79.3097C103.974 78.9651 104.066 78.6269 104.182 78.2956C104.533 77.3017 105.108 76.3699 105.9 75.5152C105.9 75.5155 105.901 75.5148 105.9 75.5152C106.236 75.1592 106.609 74.8112 107.012 74.4791C107.416 74.1471 107.474 73.5495 107.14 73.1462C106.805 72.7391 106.208 72.6846 105.804 73.0176C105.529 73.2435 105.294 73.4887 105.044 73.7273L98.7515 70.511C98.7948 70.1486 98.858 69.7968 98.8613 69.4155C98.8669 68.8919 98.4462 68.4645 97.9217 68.459C97.3212 68.4747 96.9691 68.8734 96.9635 69.397C96.958 69.9159 96.9098 70.4136 96.8171 70.878C96.5447 72.2526 95.8694 73.5303 94.813 74.6727C94.8133 74.6724 94.8126 74.6731 94.813 74.6727ZM103.677 75.2454C103.436 75.5774 103.226 75.9201 103.034 76.2684C103.001 76.3268 102.959 76.3815 102.928 76.4403C102.708 76.8582 102.524 77.2873 102.374 77.7255C102.37 77.7345 102.365 77.7429 102.362 77.7519L96.9932 75.0083C97.0078 74.9885 97.0174 74.967 97.0319 74.9471C97.2663 74.6245 97.4699 74.291 97.6594 73.9528C97.6995 73.8813 97.7512 73.8139 97.7893 73.7419C98.0065 73.33 98.1898 72.9068 98.341 72.4738C98.3454 72.4611 98.3528 72.4494 98.3572 72.4367L103.719 75.1785C103.703 75.2001 103.692 75.2237 103.677 75.2454Z" fill="#B19AF1"/>
</g>
</svg>
