<svg width="244" height="227" viewBox="0 0 244 227" fill="none" xmlns="http://www.w3.org/2000/svg">
<g filter="url(#filter0_d_3904_21428)">
<g clip-path="url(#clip0_3904_21428)">
<rect x="10" y="98.8096" width="126.629" height="189.943" rx="8.86402" transform="rotate(-16 10 98.8096)" fill="url(#paint0_linear_3904_21428)"/>
<rect x="17.0566" y="102.719" width="115.232" height="178.547" rx="4.43201" transform="rotate(-16 17.0566 102.719)" stroke="white" stroke-width="1.26629"/>
<path d="M28.7185 106.62C29.2004 108.3 28.2286 110.053 26.548 110.535C24.8673 111.017 23.1142 110.046 22.6323 108.365C22.1504 106.684 23.1221 104.931 24.8028 104.449C26.4834 103.967 28.2365 104.939 28.7185 106.62Z" stroke="#D2C5F7" stroke-width="1.26629"/>
<path d="M126.105 78.6988C126.587 80.3794 125.615 82.1326 123.935 82.6145C122.254 83.0964 120.501 82.1246 120.019 80.444C119.537 78.7633 120.509 77.0102 122.19 76.5283C123.87 76.0464 125.623 77.0181 126.105 78.6988Z" stroke="#D2C5F7" stroke-width="1.26629"/>
<line x1="24.3664" y1="114.449" x2="66.2508" y2="260.517" stroke="white" stroke-width="1.26629"/>
<line x1="127.839" y1="84.7845" x2="169.723" y2="230.853" stroke="white" stroke-width="1.26629"/>
<line x1="32.095" y1="102.358" x2="114.867" y2="78.6237" stroke="white" stroke-width="1.26629"/>
<path d="M64.0185 105.715C66.2157 103.696 65.1438 100.123 62.2733 99.6285C64.0992 99.1049 65.6654 99.9731 66.189 101.799C66.7126 103.625 65.8444 105.191 64.0185 105.715Z" fill="#D2C5F7"/>
<path d="M68.2771 104.494C69.2142 102.249 68.5161 99.8145 66.5319 98.4075C68.7229 97.7792 70.5326 98.5776 71.0562 100.403C71.5797 102.229 70.4681 103.865 68.2771 104.494Z" fill="#D2C5F7"/>
<circle cx="75.318" cy="99.1812" r="3.16572" transform="rotate(-16 75.318 99.1812)" fill="#B19AF1"/>
<path d="M84.1039 99.9561C82.1197 98.549 81.4216 96.1146 82.3587 93.8699C80.1677 94.4981 79.0561 96.1342 79.5796 97.9601C80.1032 99.7859 81.9129 100.584 84.1039 99.9561Z" fill="#D2C5F7"/>
<path d="M88.3625 98.7341C85.4293 98.1863 84.4449 94.5882 86.6173 92.6479C84.7915 93.1715 83.9233 94.7377 84.4468 96.5636C84.9704 98.3894 86.5366 99.2576 88.3625 98.7341Z" fill="#D2C5F7"/>
<path d="M76.5616 116.475L72.6731 110.029L73.2083 109.689L77.0967 116.135L76.5616 116.475Z" fill="#D2C5F7"/>
<path d="M76.0985 119.454L67.8936 112.184L68.2985 111.687L76.5034 118.957L76.0985 119.454Z" fill="#D2C5F7"/>
<path d="M73.2147 121.04L66.9131 118.036L67.1663 117.438L73.4679 120.443L73.2147 121.04Z" fill="#D2C5F7"/>
<path d="M74.0377 123.609L64.1481 122.321L64.2123 121.667L74.1019 122.956L74.0377 123.609Z" fill="#D2C5F7"/>
<path d="M73.0043 126.681C72.7351 126.758 71.4792 127.001 70.0494 127.269C68.6073 127.539 66.9588 127.84 65.8807 128.035L65.7579 127.386C66.8351 127.191 68.4822 126.891 69.9226 126.621C71.3753 126.349 72.5887 126.113 72.8222 126.046L73.0043 126.681Z" fill="#D2C5F7"/>
<path d="M75.0253 128.849L65.336 133.002L65.0823 132.392L74.7716 128.239L75.0253 128.849Z" fill="#D2C5F7"/>
<path d="M80.6388 116.587L77.5427 105.79L76.9353 105.964L80.0314 116.761L80.6388 116.587Z" fill="#D2C5F7"/>
<path d="M83.4296 114.505L83.3113 106.978L82.6772 106.974L82.7956 114.501L83.4296 114.505Z" fill="#D2C5F7"/>
<path d="M85.4011 116.787L88.5065 106.273L87.8999 106.066L84.7945 116.58L85.4011 116.787Z" fill="#D2C5F7"/>
<path d="M88.6873 116.604L92.4392 110.716L91.9079 110.344L88.156 116.231L88.6873 116.604Z" fill="#D2C5F7"/>
<path d="M89.3505 119.218L97.0546 112.885L96.6539 112.365L88.9498 118.698L89.3505 119.218Z" fill="#D2C5F7"/>
<path d="M91.8548 121.276C92.1239 121.199 93.3178 120.739 94.6724 120.209C96.0386 119.674 97.596 119.055 98.6133 118.649L98.3735 118.033C97.357 118.439 95.801 119.057 94.4364 119.592C93.0602 120.131 91.9061 120.574 91.6726 120.641L91.8548 121.276Z" fill="#D2C5F7"/>
<path d="M91.2895 124.185L101.707 122.572L101.599 121.921L91.1815 123.533L91.2895 124.185Z" fill="#D2C5F7"/>
<ellipse cx="81.7772" cy="121.7" rx="1.26629" ry="1.26629" transform="rotate(-16 81.7772 121.7)" fill="#B19AF1"/>
<circle cx="0.633144" cy="0.633144" r="0.633144" transform="matrix(-0.961262 0.275637 0.275637 0.961262 83.082 123.961)" fill="#B19AF1"/>
<circle cx="0.633144" cy="0.633144" r="0.633144" transform="matrix(-0.961262 0.275637 0.275637 0.961262 83.7812 126.395)" fill="#B19AF1"/>
<circle cx="0.633144" cy="0.633144" r="0.633144" transform="matrix(-0.961262 0.275637 0.275637 0.961262 84.4805 128.829)" fill="#B19AF1"/>
<ellipse cx="85.0916" cy="133.264" rx="1.89943" ry="1.89943" transform="rotate(-16 85.0916 133.264)" fill="#8F6EEB"/>
<rect x="53.3613" y="148.949" width="69.6458" height="69.6458" rx="34.8229" transform="rotate(-16 53.3613 148.949)" stroke="white" stroke-width="1.26629"/>
<path fill-rule="evenodd" clip-rule="evenodd" d="M89.2837 147.875L85.1694 162.523L69.7247 166.951L81.0339 177.246L76.8983 191.969L92.3431 187.54L103.594 197.782L107.708 183.134L123.153 178.706L111.844 168.411L115.98 153.688L100.535 158.117L89.2837 147.875ZM98.6836 158.647L90.1435 150.874L87.0206 161.992L98.6836 158.647ZM86.5037 163.832L100.097 159.934L109.993 168.942L106.374 181.825L92.7806 185.723L82.8851 176.715L86.5037 163.832ZM84.6525 164.363L72.9895 167.707L81.5296 175.481L84.6525 164.363ZM82.3894 178.48L79.2665 189.598L90.9295 186.253L82.3894 178.48ZM94.1943 187.009L102.734 194.783L105.857 183.665L94.1943 187.009ZM108.225 181.294L119.888 177.95L111.348 170.176L108.225 181.294ZM110.489 167.177L101.948 159.403L113.611 156.059L110.489 167.177Z" fill="#D2C5F7"/>
<circle cx="1.26629" cy="1.26629" r="1.26629" transform="matrix(0.961262 -0.275637 -0.275637 -0.961262 110.227 225.514)" fill="#B19AF1"/>
<ellipse cx="110.221" cy="220.905" rx="0.633144" ry="0.633144" transform="rotate(164 110.221 220.905)" fill="#B19AF1"/>
<ellipse cx="109.522" cy="218.47" rx="0.633144" ry="0.633144" transform="rotate(164 109.522 218.47)" fill="#B19AF1"/>
<ellipse cx="108.826" cy="216.036" rx="0.633144" ry="0.633144" transform="rotate(164 108.826 216.036)" fill="#B19AF1"/>
<ellipse cx="1.89943" cy="1.89943" rx="1.89943" ry="1.89943" transform="matrix(0.961262 -0.275637 -0.275637 -0.961262 106.477 214.733)" fill="#8F6EEB"/>
<path d="M109.439 231.144L109.557 238.671L110.191 238.676L110.073 231.148L109.439 231.144Z" fill="#D2C5F7"/>
<path d="M107.467 228.862L104.362 239.376L104.969 239.583L108.074 229.069L107.467 228.862Z" fill="#D2C5F7"/>
<path d="M104.181 229.045L100.429 234.933L100.961 235.305L104.713 229.418L104.181 229.045Z" fill="#D2C5F7"/>
<path d="M103.518 226.431L95.814 232.764L96.2147 233.284L103.919 226.951L103.518 226.431Z" fill="#D2C5F7"/>
<path d="M101.014 224.373C100.745 224.45 99.5508 224.91 98.1962 225.44C96.83 225.975 95.2726 226.594 94.2553 227L94.4951 227.616C95.5116 227.21 97.0676 226.592 98.4322 226.057C99.8084 225.518 100.962 225.075 101.196 225.008L101.014 224.373Z" fill="#D2C5F7"/>
<path d="M101.579 221.464L91.1613 223.077L91.2692 223.728L101.687 222.116L101.579 221.464Z" fill="#D2C5F7"/>
<path d="M112.837 228.888L115.933 239.685L115.326 239.859L112.23 229.062L112.837 228.888Z" fill="#D2C5F7"/>
<path d="M116.307 229.174L120.195 235.62L119.66 235.96L115.772 229.514L116.307 229.174Z" fill="#D2C5F7"/>
<path d="M116.77 226.195L124.975 233.465L124.57 233.962L116.365 226.692L116.77 226.195Z" fill="#D2C5F7"/>
<path d="M119.654 224.609L125.956 227.613L125.702 228.211L119.401 225.206L119.654 224.609Z" fill="#D2C5F7"/>
<path d="M118.831 222.04L128.721 223.328L128.656 223.982L118.767 222.693L118.831 222.04Z" fill="#D2C5F7"/>
<path d="M119.864 218.968C120.133 218.891 121.389 218.648 122.819 218.38C124.261 218.11 125.91 217.809 126.988 217.614L127.111 218.263C126.034 218.458 124.386 218.758 122.946 219.028C121.493 219.3 120.28 219.536 120.046 219.603L119.864 218.968Z" fill="#D2C5F7"/>
<path d="M117.843 216.8L127.533 212.647L127.786 213.257L118.097 217.41L117.843 216.8Z" fill="#D2C5F7"/>
<circle cx="0.633144" cy="0.633144" r="0.633144" transform="matrix(-0.961262 0.275637 0.275637 0.961262 59.5078 207.124)" fill="#8F6EEB"/>
<circle cx="0.633144" cy="0.633144" r="0.633144" transform="matrix(-0.961262 0.275637 0.275637 0.961262 137.223 170.352)" fill="#8F6EEB"/>
<circle cx="0.633144" cy="0.633144" r="0.633144" transform="matrix(-0.961262 0.275637 0.275637 0.961262 107.41 98.5459)" fill="#8F6EEB"/>
<circle cx="0.633144" cy="0.633144" r="0.633144" transform="matrix(-0.961262 0.275637 0.275637 0.961262 128.309 125.484)" fill="#8F6EEB"/>
<circle cx="0.633144" cy="0.633144" r="0.633144" transform="matrix(-0.961262 0.275637 0.275637 0.961262 49.0195 152.173)" fill="#8F6EEB"/>
<path d="M72.4638 224.752L75.8146 236.438M68.2965 232.27L79.9819 228.92M75.702 227.776L72.5764 233.414M71.3199 229.032L76.9585 232.158" stroke="#B19AF1" stroke-width="0.759772"/>
<path d="M138.458 197.659L139.854 202.528M136.722 200.792L141.59 199.396M139.807 198.919L138.505 201.269M137.981 199.443L140.331 200.745" stroke="#B19AF1" stroke-width="0.316572"/>
<path d="M137.017 146.695L138.413 151.563M135.28 149.827L140.149 148.431M138.366 147.954L137.063 150.304M136.54 148.478L138.889 149.78" stroke="#B19AF1" stroke-width="0.316572"/>
<path d="M152.924 220.519L155.368 229.039M149.886 226.001L158.406 223.557M155.286 222.723L153.006 226.835M152.09 223.639L156.202 225.918" stroke="#B19AF1" stroke-width="0.554001"/>
<path d="M37.5601 116.808L40.5898 127.374M33.7922 123.606L44.3578 120.576M40.488 119.542L37.662 124.64M36.5259 120.678L41.6241 123.504" stroke="#B19AF1" stroke-width="0.686961"/>
<path d="M62.2353 143.112L63.6314 147.981M60.4989 146.245L65.3678 144.849M63.5845 144.372L62.2822 146.722M61.7586 144.896L64.108 146.198" stroke="#B19AF1" stroke-width="0.316572"/>
<path d="M54.658 181.015L56.6684 188.027M52.1576 185.526L59.1688 183.516M56.6009 182.829L54.7255 186.212M53.9716 183.583L57.3548 185.459" stroke="#B19AF1" stroke-width="0.455864"/>
<path d="M116.814 103.755L119.607 113.493M113.341 110.02L123.079 107.228M119.513 106.275L116.908 110.974M115.861 107.322L120.56 109.926" stroke="#B19AF1" stroke-width="0.633144"/>
</g>
<rect x="10.7831" y="99.2437" width="125.363" height="188.677" rx="8.23087" transform="rotate(-16 10.7831 99.2437)" stroke="#D2C5F7" stroke-width="1.26629"/>
</g>
<g filter="url(#filter1_d_3904_21428)">
<g clip-path="url(#clip1_3904_21428)">
<rect x="61.3516" y="42.5566" width="136.19" height="204.284" rx="9.53327" transform="rotate(-6 61.3516 42.5566)" fill="url(#paint1_linear_3904_21428)"/>
<rect x="68.0804" y="48.0055" width="123.933" height="192.027" rx="4.76664" transform="rotate(-6 68.0804 48.0055)" stroke="white" stroke-width="1.3619"/>
<path d="M79.6812 54.3194C79.8777 56.1895 78.521 57.8648 76.651 58.0614C74.7809 58.2579 73.1055 56.9013 72.909 55.0312C72.7124 53.1611 74.0691 51.4858 75.9392 51.2892C77.8093 51.0927 79.4846 52.4493 79.6812 54.3194Z" stroke="#D2C5F7" stroke-width="1.3619"/>
<path d="M188.044 42.9288C188.241 44.7989 186.884 46.4742 185.014 46.6708C183.144 46.8673 181.469 45.5107 181.272 43.6406C181.076 41.7705 182.432 40.0951 184.302 39.8986C186.173 39.702 187.848 41.0587 188.044 42.9288Z" stroke="#D2C5F7" stroke-width="1.3619"/>
<path d="M98.1968 230.389C98.3933 232.259 97.0367 233.934 95.1666 234.131C93.2965 234.327 91.6212 232.971 91.4246 231.101C91.228 229.23 92.5847 227.555 94.4548 227.359C96.3249 227.162 98.0002 228.519 98.1968 230.389Z" stroke="#D2C5F7" stroke-width="1.3619"/>
<path d="M206.541 219.004C206.737 220.874 205.38 222.549 203.51 222.746C201.64 222.943 199.965 221.586 199.768 219.716C199.572 217.846 200.928 216.17 202.799 215.974C204.669 215.777 206.344 217.134 206.541 219.004Z" stroke="#D2C5F7" stroke-width="1.3619"/>
<line x1="73.6342" y1="61.8028" x2="90.7171" y2="224.335" stroke="white" stroke-width="1.3619"/>
<line x1="188.759" y1="49.6944" x2="205.842" y2="212.227" stroke="white" stroke-width="1.3619"/>
<line x1="84.0812" y1="50.4312" x2="176.183" y2="40.7509" stroke="white" stroke-width="1.3619"/>
<line x1="103.296" y1="233.279" x2="195.398" y2="223.599" stroke="white" stroke-width="1.3619"/>
<path d="M117.255 59.9552C119.96 58.2272 119.492 54.2426 116.544 53.183C118.575 52.9695 120.072 54.1816 120.286 56.2132C120.499 58.2449 119.287 59.7417 117.255 59.9552Z" fill="#D2C5F7"/>
<path d="M121.996 59.4561C123.408 57.2536 123.123 54.5447 121.284 52.6839C123.722 52.4277 125.49 53.6113 125.704 55.6429C125.917 57.6746 124.434 59.1998 121.996 59.4561Z" fill="#D2C5F7"/>
<ellipse cx="130.445" cy="55.1454" rx="3.40474" ry="3.40474" transform="rotate(-6 130.445 55.1454)" fill="#B19AF1"/>
<path d="M139.603 57.6059C137.764 55.745 137.48 53.0362 138.891 50.8337C136.453 51.0899 134.97 52.6152 135.184 54.6468C135.398 56.6785 137.165 57.8621 139.603 57.6059Z" fill="#D2C5F7"/>
<path d="M144.344 57.1077C141.34 55.9797 140.969 51.9848 143.632 50.3355C141.601 50.549 140.388 52.0458 140.602 54.0775C140.816 56.1091 142.312 57.3212 144.344 57.1077Z" fill="#D2C5F7"/>
<path d="M128.53 73.6927L125.615 66.1391L126.246 65.8788L129.16 73.4325L128.53 73.6927Z" fill="#D2C5F7"/>
<path d="M127.483 76.7618L120.151 67.5288L120.672 67.0783L128.005 76.3113L127.483 76.7618Z" fill="#D2C5F7"/>
<path d="M124.132 77.9034L118.019 73.5442L118.399 72.9587L124.512 77.318L124.132 77.9034Z" fill="#D2C5F7"/>
<path d="M124.524 80.7777L114.29 77.5661L114.48 76.886L124.714 80.0976L124.524 80.7777Z" fill="#D2C5F7"/>
<path d="M122.856 83.8384C122.557 83.8699 121.181 83.8928 119.617 83.9095C118.039 83.9264 116.236 83.9371 115.058 83.9418L115.049 83.2315C116.227 83.2268 118.027 83.2161 119.603 83.1992C121.193 83.1822 122.522 83.159 122.782 83.1317L122.856 83.8384Z" fill="#D2C5F7"/>
<path d="M124.592 86.5116L113.554 89.1008L113.399 88.4077L124.437 85.8185L124.592 86.5116Z" fill="#D2C5F7"/>
<path d="M132.827 74.5731L131.565 62.5586L130.889 62.6297L132.152 74.6442L132.827 74.5731Z" fill="#D2C5F7"/>
<path d="M136.172 72.8895L137.453 64.895L136.782 64.7714L135.501 72.766L136.172 72.8895Z" fill="#D2C5F7"/>
<path d="M137.834 75.6738L143.087 65.1181L142.483 64.7859L137.23 75.3416L137.834 75.6738Z" fill="#D2C5F7"/>
<path d="M141.349 76.0939L146.422 70.5588L145.929 70.0651L140.856 75.6002L141.349 76.0939Z" fill="#D2C5F7"/>
<path d="M141.563 78.9868L150.906 73.7176L150.579 73.0919L141.236 78.3611L141.563 78.9868Z" fill="#D2C5F7"/>
<path d="M143.831 81.6338C144.131 81.6023 145.481 81.3387 147.015 81.0298C148.562 80.7183 150.327 80.354 151.48 80.1137L151.341 79.4171C150.189 79.6572 148.425 80.0212 146.88 80.3323C145.322 80.6462 144.017 80.8998 143.757 80.9271L143.831 81.6338Z" fill="#D2C5F7"/>
<path d="M142.689 84.6095L154.025 84.8471L154.032 84.137L142.697 83.8993L142.689 84.6095Z" fill="#D2C5F7"/>
<ellipse cx="133.075" cy="80.2013" rx="1.3619" ry="1.3619" transform="rotate(-6 133.075 80.2013)" fill="#B19AF1"/>
<ellipse cx="0.680948" cy="0.680948" rx="0.680948" ry="0.680948" transform="matrix(-0.994522 0.104528 0.104528 0.994522 134.039 82.8389)" fill="#B19AF1"/>
<ellipse cx="0.680948" cy="0.680948" rx="0.680948" ry="0.680948" transform="matrix(-0.994522 0.104528 0.104528 0.994522 134.324 85.5479)" fill="#B19AF1"/>
<ellipse cx="0.680948" cy="0.680948" rx="0.680948" ry="0.680948" transform="matrix(-0.994522 0.104528 0.104528 0.994522 134.609 88.2568)" fill="#B19AF1"/>
<ellipse cx="134.429" cy="93.0681" rx="2.04284" ry="2.04284" transform="rotate(-6 134.429 93.0681)" fill="#8F6EEB"/>
<rect x="97.8968" y="103.755" width="74.9043" height="74.9043" rx="37.4521" transform="rotate(-6 97.8968 103.755)" stroke="white" stroke-width="1.3619"/>
<path fill-rule="evenodd" clip-rule="evenodd" d="M136.137 109.32L129.043 124.065L111.858 125.872L121.913 138.887L114.784 153.709L131.969 151.903L141.973 164.851L149.066 150.106L166.252 148.3L156.196 135.284L163.326 120.462L146.141 122.268L136.137 109.32ZM144.081 122.485L136.487 112.656L131.103 123.849L144.081 122.485ZM130.212 125.702L145.338 124.112L154.137 135.5L147.898 148.47L132.772 150.059L123.973 138.671L130.212 125.702ZM128.152 125.918L115.175 127.282L122.768 137.111L128.152 125.918ZM123.119 140.447L117.735 151.64L130.712 150.276L123.119 140.447ZM134.029 151.686L141.623 161.515L147.007 150.322L134.029 151.686ZM149.958 148.253L162.935 146.889L155.342 137.06L149.958 148.253ZM154.991 133.724L147.398 123.895L160.375 122.531L154.991 133.724Z" fill="#D2C5F7"/>
<ellipse cx="1.3619" cy="1.3619" rx="1.3619" ry="1.3619" transform="matrix(0.994522 -0.104528 -0.104528 -0.994522 143.82 195.471)" fill="#B19AF1"/>
<ellipse cx="144.677" cy="190.588" rx="0.680948" ry="0.680948" transform="rotate(174 144.677 190.588)" fill="#B19AF1"/>
<ellipse cx="144.392" cy="187.879" rx="0.680948" ry="0.680948" transform="rotate(174 144.392 187.879)" fill="#B19AF1"/>
<ellipse cx="144.107" cy="185.17" rx="0.680948" ry="0.680948" transform="rotate(174 144.107 185.17)" fill="#B19AF1"/>
<ellipse cx="2.04284" cy="2.04284" rx="2.04284" ry="2.04284" transform="matrix(0.994522 -0.104528 -0.104528 -0.994522 141.863 183.353)" fill="#8F6EEB"/>
<path d="M141.941 201.287L140.661 209.282L141.332 209.405L142.612 201.411L141.941 201.287Z" fill="#D2C5F7"/>
<path d="M140.279 198.503L135.027 209.058L135.631 209.391L140.883 198.835L140.279 198.503Z" fill="#D2C5F7"/>
<path d="M136.765 198.083L131.691 203.618L132.184 204.111L137.258 198.576L136.765 198.083Z" fill="#D2C5F7"/>
<path d="M136.55 195.19L127.208 200.459L127.535 201.085L136.878 195.815L136.55 195.19Z" fill="#D2C5F7"/>
<path d="M134.282 192.543C133.983 192.574 132.632 192.838 131.099 193.147C129.552 193.458 127.787 193.823 126.633 194.063L126.772 194.759C127.925 194.519 129.688 194.155 131.233 193.844C132.792 193.53 134.097 193.277 134.357 193.249L134.282 192.543Z" fill="#D2C5F7"/>
<path d="M135.424 189.567L124.089 189.329L124.082 190.04L135.417 190.277L135.424 189.567Z" fill="#D2C5F7"/>
<path d="M145.962 199.532L147.225 211.547L146.549 211.618L145.286 199.603L145.962 199.532Z" fill="#D2C5F7"/>
<path d="M149.584 200.484L152.498 208.037L151.868 208.298L148.953 200.744L149.584 200.484Z" fill="#D2C5F7"/>
<path d="M150.631 197.415L157.963 206.648L157.441 207.098L150.109 197.865L150.631 197.415Z" fill="#D2C5F7"/>
<path d="M153.981 196.273L160.095 200.632L159.715 201.218L153.601 196.859L153.981 196.273Z" fill="#D2C5F7"/>
<path d="M153.589 193.399L163.823 196.61L163.633 197.291L153.399 194.079L153.589 193.399Z" fill="#D2C5F7"/>
<path d="M155.257 190.338C155.557 190.307 156.933 190.284 158.497 190.267C160.075 190.25 161.877 190.239 163.055 190.235L163.064 190.945C161.887 190.95 160.086 190.96 158.51 190.977C156.921 190.994 155.592 191.018 155.332 191.045L155.257 190.338Z" fill="#D2C5F7"/>
<path d="M153.522 187.665L164.56 185.076L164.715 185.769L153.676 188.358L153.522 187.665Z" fill="#D2C5F7"/>
<path d="M134.482 223.842C137.186 222.114 136.718 218.129 133.77 217.07C135.802 216.856 137.299 218.068 137.512 220.1C137.726 222.132 136.514 223.628 134.482 223.842Z" fill="#D2C5F7"/>
<path d="M139.223 223.343C140.634 221.14 140.35 218.431 138.511 216.571C140.949 216.314 142.717 217.498 142.93 219.53C143.144 221.561 141.661 223.087 139.223 223.343Z" fill="#D2C5F7"/>
<ellipse cx="147.672" cy="219.032" rx="3.40474" ry="3.40474" transform="rotate(-6 147.672 219.032)" fill="#B19AF1"/>
<path d="M156.83 221.493C154.991 219.632 154.706 216.923 156.118 214.72C153.68 214.977 152.197 216.502 152.411 218.534C152.624 220.565 154.392 221.749 156.83 221.493Z" fill="#D2C5F7"/>
<path d="M161.571 220.994C158.566 219.866 158.195 215.872 160.859 214.222C158.827 214.436 157.615 215.933 157.829 217.964C158.042 219.996 159.539 221.208 161.571 220.994Z" fill="#D2C5F7"/>
<ellipse cx="0.680948" cy="0.680948" rx="0.680948" ry="0.680948" transform="matrix(-0.994522 0.104528 0.104528 0.994522 93.5391 166.528)" fill="#8F6EEB"/>
<ellipse cx="0.680948" cy="0.680948" rx="0.680948" ry="0.680948" transform="matrix(-0.994522 0.104528 0.104528 0.994522 182.719 142.091)" fill="#8F6EEB"/>
<ellipse cx="0.680948" cy="0.680948" rx="0.680948" ry="0.680948" transform="matrix(-0.994522 0.104528 0.104528 0.994522 117.762 214.647)" fill="#8F6EEB"/>
<ellipse cx="0.680948" cy="0.680948" rx="0.680948" ry="0.680948" transform="matrix(-0.994522 0.104528 0.104528 0.994522 164.539 60.4668)" fill="#8F6EEB"/>
<ellipse cx="0.680948" cy="0.680948" rx="0.680948" ry="0.680948" transform="matrix(-0.994522 0.104528 0.104528 0.994522 181.648 92.8994)" fill="#8F6EEB"/>
<ellipse cx="0.680948" cy="0.680948" rx="0.680948" ry="0.680948" transform="matrix(-0.994522 0.104528 0.104528 0.994522 92.6797 106.362)" fill="#8F6EEB"/>
<path d="M103.979 187.722L105.323 200.508M98.2579 194.786L111.044 193.443M106.796 191.465L102.505 196.764M102.001 191.969L107.3 196.26" stroke="#B19AF1" stroke-width="0.803519"/>
<path d="M178.932 171.245L179.501 176.662M176.507 174.238L181.925 173.669M180.125 172.831L178.307 175.076M178.094 173.044L180.339 174.863" stroke="#B19AF1" stroke-width="0.340474"/>
<path d="M186.924 116.998L187.493 122.415M184.5 119.991L189.917 119.422M188.117 118.584L186.299 120.829M186.086 118.797L188.331 120.615" stroke="#B19AF1" stroke-width="0.340474"/>
<path d="M189.971 198.16L190.967 207.641M185.729 203.399L195.21 202.402M192.06 200.936L188.878 204.865M188.505 201.31L192.434 204.491" stroke="#B19AF1" stroke-width="0.59583"/>
<path d="M87.1213 66.3354L88.4466 78.9452M81.4791 73.3029L94.0889 71.9776M89.8998 70.0274L85.6681 75.2531M85.1711 70.5244L90.3968 74.7561" stroke="#B19AF1" stroke-width="0.792453"/>
<path d="M108.377 99.2358L108.946 104.654M105.953 102.229L111.37 101.66M109.571 100.822L107.752 103.067M107.539 101.036L109.784 102.854" stroke="#B19AF1" stroke-width="0.340474"/>
<path d="M93.2173 137.554L94.1227 146.168M89.3629 142.314L97.9771 141.409M95.1154 140.076L92.2246 143.646M91.885 140.416L95.4549 143.307" stroke="#B19AF1" stroke-width="0.541354"/>
<path d="M173.535 67.7372L174.674 78.5727M168.687 73.7244L179.522 72.5855M175.922 70.9098L172.286 75.4001M171.859 71.3368L176.35 74.9731" stroke="#B19AF1" stroke-width="0.680948"/>
</g>
<rect x="62.1" y="43.1627" width="134.828" height="202.923" rx="8.85232" transform="rotate(-6 62.1 43.1627)" stroke="#D2C5F7" stroke-width="1.3619"/>
</g>
<g filter="url(#filter2_d_3904_21428)">
<g clip-path="url(#clip2_3904_21428)">
<rect x="135.188" y="9.00098" width="148" height="222" rx="10.36" transform="rotate(4 135.188 9.00098)" fill="url(#paint2_linear_3904_21428)"/>
<rect x="141.374" y="16.1082" width="134.68" height="208.68" rx="5.18" transform="rotate(4 141.374 16.1082)" stroke="white" stroke-width="1.48"/>
<path d="M152.615 25.0546C152.473 27.0931 150.705 28.6301 148.666 28.4875C146.628 28.345 145.091 26.5769 145.233 24.5384C145.376 22.4999 147.144 20.963 149.182 21.1055C151.221 21.2481 152.758 23.0161 152.615 25.0546Z" stroke="#D2C5F7" stroke-width="1.48"/>
<path d="M139.193 216.984C139.051 219.023 137.283 220.56 135.244 220.417C133.206 220.275 131.669 218.507 131.811 216.468C131.954 214.43 133.722 212.893 135.76 213.035C137.799 213.178 139.336 214.946 139.193 216.984Z" stroke="#D2C5F7" stroke-width="1.48"/>
<line x1="144.723" y1="31.9217" x2="132.334" y2="209.089" stroke="white" stroke-width="1.48"/>
<line x1="158.048" y1="21.7218" x2="258.443" y2="28.7421" stroke="white" stroke-width="1.48"/>
<line x1="144.102" y1="221.036" x2="244.497" y2="228.057" stroke="white" stroke-width="1.48"/>
<path d="M191.746 38.1756C194.966 36.8366 195.217 32.4839 192.262 30.7937C194.477 30.9485 195.85 32.5282 195.695 34.7427C195.54 36.9573 193.961 38.3305 191.746 38.1756Z" fill="#D2C5F7"/>
<path d="M196.914 38.5371C198.841 36.4464 199.047 33.4936 197.43 31.1551C200.088 31.341 201.756 32.9412 201.601 35.1558C201.446 37.3704 199.572 38.7229 196.914 38.5371Z" fill="#D2C5F7"/>
<ellipse cx="206.769" cy="35.5174" rx="3.7" ry="3.7" transform="rotate(4 206.769 35.5174)" fill="#B19AF1"/>
<path d="M216.104 39.8792C214.488 37.5407 214.694 34.5879 216.621 32.4972C213.963 32.3114 212.088 33.6639 211.933 35.8785C211.778 38.0931 213.447 39.6934 216.104 39.8792Z" fill="#D2C5F7"/>
<path d="M221.272 40.2407C218.27 38.4665 218.627 34.1212 221.789 32.8587C219.574 32.7038 217.994 34.077 217.84 36.2916C217.685 38.5062 219.058 40.0858 221.272 40.2407Z" fill="#D2C5F7"/>
<path d="M201.22 55.0064L199.526 46.3724L200.25 46.2128L201.944 54.8468L201.22 55.0064Z" fill="#D2C5F7"/>
<path d="M199.521 58.0934L193.416 46.8285L194.059 46.4448L200.164 57.7097L199.521 58.0934Z" fill="#D2C5F7"/>
<path d="M195.719 58.6829L189.999 52.8639L190.516 52.309L196.236 58.128L195.719 58.6829Z" fill="#D2C5F7"/>
<path d="M195.596 61.8329L185.25 56.4646L185.581 55.7726L195.928 61.1409L195.596 61.8329Z" fill="#D2C5F7"/>
<path d="M193.233 64.7937C192.907 64.7709 191.43 64.5358 189.753 64.2585C188.061 63.9788 186.13 63.6502 184.869 63.4328L184.993 62.671C186.254 62.8881 188.183 63.2165 189.873 63.4958C191.577 63.7776 193.004 64.0035 193.287 64.0233L193.233 64.7937Z" fill="#D2C5F7"/>
<path d="M194.587 67.9821L182.285 68.6702L182.25 67.8992L194.552 67.2111L194.587 67.9821Z" fill="#D2C5F7"/>
<path d="M205.653 56.7596L206.569 43.6632L205.832 43.6117L204.916 56.7081L205.653 56.7596Z" fill="#D2C5F7"/>
<path d="M209.55 55.5889L212.429 47.2747L211.735 47.0159L208.856 55.3302L209.55 55.5889Z" fill="#D2C5F7"/>
<path d="M210.804 58.8824L218.417 48.5768L217.834 48.1073L210.22 58.4129L210.804 58.8824Z" fill="#D2C5F7"/>
<path d="M214.486 59.9952L220.96 55.0289L220.526 54.4075L214.051 59.3737L214.486 59.9952Z" fill="#D2C5F7"/>
<path d="M214.169 63.1317L225.162 59.2555L224.93 58.5241L213.937 62.4002L214.169 63.1317Z" fill="#D2C5F7"/>
<path d="M216.097 66.3925C216.424 66.4153 217.919 66.388 219.618 66.3469C221.333 66.3054 223.29 66.2486 224.57 66.2091L224.553 65.4373C223.274 65.4769 221.318 65.5335 219.606 65.575C217.879 65.6168 216.434 65.6419 216.151 65.6221L216.097 66.3925Z" fill="#D2C5F7"/>
<path d="M214.314 69.3615L226.4 71.755L226.542 70.9964L214.455 68.6029L214.314 69.3615Z" fill="#D2C5F7"/>
<ellipse cx="204.858" cy="62.8306" rx="1.48" ry="1.48" transform="rotate(4 204.858 62.8306)" fill="#B19AF1"/>
<ellipse cx="0.74" cy="0.74" rx="0.74" ry="0.74" transform="matrix(-0.997564 -0.0697565 -0.0697565 0.997564 205.391 65.835)" fill="#B19AF1"/>
<ellipse cx="0.74" cy="0.74" rx="0.74" ry="0.74" transform="matrix(-0.997564 -0.0697565 -0.0697565 0.997564 205.184 68.7881)" fill="#B19AF1"/>
<ellipse cx="0.74" cy="0.74" rx="0.74" ry="0.74" transform="matrix(-0.997564 -0.0697565 -0.0697565 0.997564 204.977 71.7402)" fill="#B19AF1"/>
<ellipse cx="203.876" cy="76.8558" rx="2.22" ry="2.22" transform="rotate(4 203.876 76.8558)" fill="#8F6EEB"/>
<rect x="162.761" y="81.3992" width="81.4" height="81.4" rx="40.7" transform="rotate(4 162.761 81.3992)" stroke="white" stroke-width="1.48"/>
<path fill-rule="evenodd" clip-rule="evenodd" d="M202.641 94.5729L192.267 109.015L173.534 107.705L181.84 123.532L171.412 138.049L190.146 139.359L198.409 155.105L208.782 140.663L227.516 141.973L219.21 126.146L229.637 111.628L210.904 110.319L202.641 94.5729ZM208.659 110.162L202.387 98.2099L194.513 109.172L208.659 110.162ZM193.209 110.987L209.697 112.14L216.965 125.989L207.841 138.691L191.353 137.538L184.085 123.689L193.209 110.987ZM190.964 110.83L176.818 109.841L183.09 121.792L190.964 110.83ZM182.835 125.429L174.961 136.392L189.107 137.381L182.835 125.429ZM192.391 139.516L198.663 151.468L206.537 140.506L192.391 139.516ZM210.086 138.848L224.232 139.837L217.96 127.886L210.086 138.848ZM218.214 124.249L211.942 112.297L226.089 113.286L218.214 124.249Z" fill="#D2C5F7"/>
<ellipse cx="1.48" cy="1.48" rx="1.48" ry="1.48" transform="matrix(0.997564 0.0697565 0.0697565 -0.997564 194.605 188.221)" fill="#B19AF1"/>
<ellipse cx="196.442" cy="183.156" rx="0.74" ry="0.74" transform="rotate(-176 196.442 183.156)" fill="#B19AF1"/>
<ellipse cx="196.649" cy="180.203" rx="0.74" ry="0.74" transform="rotate(-176 196.649 180.203)" fill="#B19AF1"/>
<ellipse cx="196.856" cy="177.251" rx="0.74" ry="0.74" transform="rotate(-176 196.856 177.251)" fill="#B19AF1"/>
<ellipse cx="2.22" cy="2.22" rx="2.22" ry="2.22" transform="matrix(0.997564 0.0697565 0.0697565 -0.997564 194.797 174.882)" fill="#8F6EEB"/>
<path d="M191.495 194.089L188.616 202.404L189.311 202.662L192.19 194.348L191.495 194.089Z" fill="#D2C5F7"/>
<path d="M190.242 190.796L182.629 201.101L183.212 201.571L190.826 191.265L190.242 190.796Z" fill="#D2C5F7"/>
<path d="M186.56 189.683L180.086 194.649L180.52 195.271L186.994 190.305L186.56 189.683Z" fill="#D2C5F7"/>
<path d="M186.876 186.547L175.883 190.423L176.116 191.154L187.109 187.278L186.876 186.547Z" fill="#D2C5F7"/>
<path d="M184.948 183.286C184.622 183.263 183.127 183.29 181.427 183.331C179.713 183.373 177.755 183.43 176.476 183.469L176.493 184.241C177.772 184.201 179.728 184.145 181.44 184.103C183.167 184.061 184.611 184.036 184.895 184.056L184.948 183.286Z" fill="#D2C5F7"/>
<path d="M186.732 180.317L174.646 177.923L174.504 178.682L186.59 181.075L186.732 180.317Z" fill="#D2C5F7"/>
<path d="M196.129 192.97L195.214 206.067L194.477 206.015L195.393 192.919L196.129 192.97Z" fill="#D2C5F7"/>
<path d="M199.826 194.672L201.519 203.306L200.796 203.465L199.102 194.831L199.826 194.672Z" fill="#D2C5F7"/>
<path d="M201.525 191.585L207.63 202.85L206.987 203.233L200.882 191.969L201.525 191.585Z" fill="#D2C5F7"/>
<path d="M205.327 190.995L211.046 196.814L210.53 197.369L204.81 191.55L205.327 190.995Z" fill="#D2C5F7"/>
<path d="M205.449 187.845L215.796 193.214L215.464 193.906L205.118 188.537L205.449 187.845Z" fill="#D2C5F7"/>
<path d="M207.812 184.885C208.139 184.907 209.615 185.142 211.293 185.42C212.985 185.699 214.916 186.028 216.177 186.245L216.053 187.007C214.792 186.79 212.863 186.462 211.173 186.182C209.469 185.901 208.042 185.675 207.758 185.655L207.812 184.885Z" fill="#D2C5F7"/>
<path d="M206.459 181.696L218.761 181.008L218.796 181.779L206.494 182.467L206.459 181.696Z" fill="#D2C5F7"/>
<path d="M179.254 216.819C182.474 215.48 182.725 211.127 179.77 209.437C181.985 209.592 183.358 211.172 183.203 213.386C183.048 215.601 181.468 216.974 179.254 216.819Z" fill="#D2C5F7"/>
<path d="M184.422 217.181C186.348 215.09 186.555 212.137 184.938 209.799C187.596 209.985 189.264 211.585 189.109 213.799C188.954 216.014 187.079 217.366 184.422 217.181Z" fill="#D2C5F7"/>
<ellipse cx="194.277" cy="214.161" rx="3.7" ry="3.7" transform="rotate(4 194.277 214.161)" fill="#B19AF1"/>
<path d="M203.612 218.523C201.995 216.184 202.202 213.231 204.128 211.141C201.471 210.955 199.596 212.307 199.441 214.522C199.286 216.737 200.955 218.337 203.612 218.523Z" fill="#D2C5F7"/>
<path d="M208.78 218.884C205.778 217.11 206.135 212.765 209.296 211.502C207.082 211.347 205.502 212.721 205.347 214.935C205.193 217.15 206.566 218.729 208.78 218.884Z" fill="#D2C5F7"/>
<ellipse cx="0.74" cy="0.74" rx="0.74" ry="0.74" transform="matrix(-0.997564 -0.0697565 -0.0697565 0.997564 146.254 147.75)" fill="#8F6EEB"/>
<ellipse cx="0.74" cy="0.74" rx="0.74" ry="0.74" transform="matrix(-0.997564 -0.0697565 -0.0697565 0.997564 163.117 203.821)" fill="#8F6EEB"/>
<ellipse cx="0.74" cy="0.74" rx="0.74" ry="0.74" transform="matrix(-0.997564 -0.0697565 -0.0697565 0.997564 242.281 47.6426)" fill="#8F6EEB"/>
<ellipse cx="0.74" cy="0.74" rx="0.74" ry="0.74" transform="matrix(-0.997564 -0.0697565 -0.0697565 0.997564 156.707 83.2012)" fill="#8F6EEB"/>
<path d="M153.451 172.17L152.443 186.579M145.742 178.871L160.152 179.878M155.838 176.862L150.056 181.888M150.434 176.484L155.46 182.265" stroke="#B19AF1" stroke-width="0.9028"/>
<path d="M236.754 168.915L236.341 174.821M233.594 171.662L239.5 172.075M237.732 170.838L235.362 172.898M235.517 170.684L237.577 173.053" stroke="#B19AF1" stroke-width="0.37"/>
<path d="M243.507 199.8L242.785 210.135M237.979 204.606L248.313 205.329M245.219 203.165L241.073 206.769M241.344 202.894L244.948 207.04" stroke="#B19AF1" stroke-width="0.6475"/>
<path d="M158.261 39.676L157.35 52.6978M151.295 45.7316L164.317 46.6422M160.418 43.916L155.193 48.4577M155.535 43.5746L160.076 48.7992" stroke="#B19AF1" stroke-width="0.81585"/>
<path d="M174.92 77.2952L174.333 85.6811M170.433 81.1949L178.819 81.7813M176.309 80.0257L172.944 82.9505M173.164 79.8058L176.089 83.1704" stroke="#B19AF1" stroke-width="0.5254"/>
<path d="M151.41 116.421L150.716 126.342M146.102 121.035L156.024 121.729M153.053 119.652L149.073 123.112M149.333 119.391L152.793 123.372" stroke="#B19AF1" stroke-width="0.6216"/>
<path d="M250.503 57.1219L249.677 68.9331M244.185 62.6146L255.996 63.4405M252.46 60.9678L247.721 65.0873M248.031 60.6581L252.15 65.397" stroke="#B19AF1" stroke-width="0.74"/>
</g>
<rect x="135.874" y="9.79079" width="146.52" height="220.52" rx="9.62" transform="rotate(4 135.874 9.79079)" stroke="#D2C5F7" stroke-width="1.48"/>
</g>
<defs>
<filter id="filter0_d_3904_21428" x="-1.84" y="55.0263" width="197.758" height="241.168" filterUnits="userSpaceOnUse" color-interpolation-filters="sRGB">
<feFlood flood-opacity="0" result="BackgroundImageFix"/>
<feColorMatrix in="SourceAlpha" type="matrix" values="0 0 0 0 0 0 0 0 0 0 0 0 0 0 0 0 0 0 127 0" result="hardAlpha"/>
<feOffset dy="2.96"/>
<feGaussianBlur stdDeviation="5.92"/>
<feComposite in2="hardAlpha" operator="out"/>
<feColorMatrix type="matrix" values="0 0 0 0 0 0 0 0 0 0 0 0 0 0 0 0 0 0 0.06 0"/>
<feBlend mode="normal" in2="BackgroundImageFix" result="effect1_dropShadow_3904_21428"/>
<feBlend mode="normal" in="SourceGraphic" in2="effect1_dropShadow_3904_21428" result="shape"/>
</filter>
<filter id="filter1_d_3904_21428" x="49.5116" y="19.4413" width="180.477" height="241.08" filterUnits="userSpaceOnUse" color-interpolation-filters="sRGB">
<feFlood flood-opacity="0" result="BackgroundImageFix"/>
<feColorMatrix in="SourceAlpha" type="matrix" values="0 0 0 0 0 0 0 0 0 0 0 0 0 0 0 0 0 0 127 0" result="hardAlpha"/>
<feOffset dy="2.96"/>
<feGaussianBlur stdDeviation="5.92"/>
<feComposite in2="hardAlpha" operator="out"/>
<feColorMatrix type="matrix" values="0 0 0 0 0 0 0 0 0 0 0 0 0 0 0 0 0 0 0.06 0"/>
<feBlend mode="normal" in2="BackgroundImageFix" result="effect1_dropShadow_3904_21428"/>
<feBlend mode="normal" in="SourceGraphic" in2="effect1_dropShadow_3904_21428" result="shape"/>
</filter>
<filter id="filter2_d_3904_21428" x="107.863" y="0.120978" width="186.805" height="255.463" filterUnits="userSpaceOnUse" color-interpolation-filters="sRGB">
<feFlood flood-opacity="0" result="BackgroundImageFix"/>
<feColorMatrix in="SourceAlpha" type="matrix" values="0 0 0 0 0 0 0 0 0 0 0 0 0 0 0 0 0 0 127 0" result="hardAlpha"/>
<feOffset dy="2.96"/>
<feGaussianBlur stdDeviation="5.92"/>
<feComposite in2="hardAlpha" operator="out"/>
<feColorMatrix type="matrix" values="0 0 0 0 0 0 0 0 0 0 0 0 0 0 0 0 0 0 0.06 0"/>
<feBlend mode="normal" in2="BackgroundImageFix" result="effect1_dropShadow_3904_21428"/>
<feBlend mode="normal" in="SourceGraphic" in2="effect1_dropShadow_3904_21428" result="shape"/>
</filter>
<linearGradient id="paint0_linear_3904_21428" x1="136.396" y1="99.4915" x2="10.0305" y2="289.214" gradientUnits="userSpaceOnUse">
<stop stop-color="#EBD7FB"/>
<stop offset="1" stop-color="#F2EDF6"/>
</linearGradient>
<linearGradient id="paint1_linear_3904_21428" x1="197.29" y1="43.29" x2="61.3845" y2="247.338" gradientUnits="userSpaceOnUse">
<stop stop-color="#EBD7FB"/>
<stop offset="1" stop-color="#F2EDF6"/>
</linearGradient>
<linearGradient id="paint2_linear_3904_21428" x1="282.915" y1="9.79797" x2="135.223" y2="231.541" gradientUnits="userSpaceOnUse">
<stop stop-color="#EBD7FB"/>
<stop offset="1" stop-color="#F2EDF6"/>
</linearGradient>
<clipPath id="clip0_3904_21428">
<rect x="10" y="98.8096" width="126.629" height="189.943" rx="8.86402" transform="rotate(-16 10 98.8096)" fill="white"/>
</clipPath>
<clipPath id="clip1_3904_21428">
<rect x="61.3516" y="42.5566" width="136.19" height="204.284" rx="9.53327" transform="rotate(-6 61.3516 42.5566)" fill="white"/>
</clipPath>
<clipPath id="clip2_3904_21428">
<rect x="135.188" y="9.00098" width="148" height="222" rx="10.36" transform="rotate(4 135.188 9.00098)" fill="white"/>
</clipPath>
</defs>
</svg>
