<svg xmlns="http://www.w3.org/2000/svg" width="46" height="46" viewBox="0 0 46 46">
  <g id="icon" transform="translate(-31 -110)">
    <rect id="Rectangle_3364" data-name="Rectangle 3364" width="46" height="46" transform="translate(31 110)" fill="none"/>
    <g id="Group_11471" data-name="Group 11471" transform="translate(34.633 114.133)">
      <path id="Path_47373" data-name="Path 47373" d="M-527.357,483.157q-1.113-1.1-2.217-2.206,1.106,1.107,2.217,2.207a3.621,3.621,0,0,0,5.443-.281h0A3.621,3.621,0,0,1-527.357,483.157Z" transform="translate(539.658 -447.967)" fill="none"/>
      <path id="Path_47374" data-name="Path 47374" d="M-596.342,414.145l2.374,2.373Z" transform="translate(600.55 -387.041)" fill="none"/>
      <path id="Path_47375" data-name="Path 47375" d="M-424.594,481.469h0l-.569.526Z" transform="translate(444.437 -448.439)" fill="none"/>
      <path id="Path_47376" data-name="Path 47376" d="M-626.25,332.86l2.418,2.408-2.418-2.409a3.6,3.6,0,0,0-1.108,4.366A3.6,3.6,0,0,1-626.25,332.86Z" transform="translate(629.138 -312.91)" fill="none"/>
      <path id="Path_47377" data-name="Path 47377" d="M-582.228,363.129a2.923,2.923,0,0,1,.485-.791l-.769-.767.769.766A2.921,2.921,0,0,0-582.228,363.129Z" transform="translate(587.938 -339.094)" fill="none"/>
      <path id="Path_47378" data-name="Path 47378" d="M-465.71,452.06l2.015,2.022-2.015-2.022Z" transform="translate(481.415 -421.619)" fill="none"/>
      <path id="Path_47379" data-name="Path 47379" d="M-307.26,239.216l.708.273h0l-.708-.273Z" transform="translate(336.911 -227.508)" fill="none"/>
      <path id="Path_47380" data-name="Path 47380" d="M-306.88,257.88a1.083,1.083,0,0,1,.57.623,1.083,1.083,0,0,0-.57-.623v2.364c.03-.017.059-.035.087-.054-.028.019-.057.037-.087.054Z" transform="translate(336.564 -244.529)" fill="none"/>
      <path id="Path_47381" data-name="Path 47381" d="M-310.338,305.758a2.28,2.28,0,0,0-.1.24,2.327,2.327,0,0,1,.1-.238Z" transform="translate(339.811 -288.193)" fill="none"/>
      <path id="Path_47382" data-name="Path 47382" d="M-441.276,458.793l1.245,1.25Z" transform="translate(459.132 -427.759)" fill="none"/>
      <path id="Path_47383" data-name="Path 47383" d="M-472.264,259.622h0V257.18h0Z" transform="translate(487.392 -243.891)" fill="none"/>
      <path id="Path_47384" data-name="Path 47384" d="M-305.894,302.441l-.012.006h0Z" transform="translate(335.676 -285.168)" fill="none"/>
      <path id="Path_47385" data-name="Path 47385" d="M-590.86,312.12h0l.2.2Z" transform="translate(595.55 -293.995)" fill="none"/>
      <path id="Path_47386" data-name="Path 47386" d="M-412.235,367.125l-.125-.125h0Z" transform="translate(432.761 -344.045)" fill="none"/>
      <path id="Path_47387" data-name="Path 47387" d="M-475.555,230.609l-.36.144.361-.143v-.81q.264.016.521.017-.258,0-.522-.017Z" transform="translate(490.722 -218.92)" fill="none"/>
      <path id="Path_47388" data-name="Path 47388" d="M-391.08,367.023a7.449,7.449,0,0,1-2.289.261A7.432,7.432,0,0,0-391.08,367.023Z" transform="translate(415.441 -344.066)" fill="none"/>
      <path id="Path_47389" data-name="Path 47389" d="M-465.582,229.995h0Z" transform="translate(481.309 -219.098)" fill="none"/>
      <path id="Path_47390" data-name="Path 47390" d="M-576.971,341.614l1.385,1.385.117-.121-.117.121Z" transform="translate(582.883 -320.894)" fill="none"/>
      <path id="Path_47391" data-name="Path 47391" d="M-523,455.5a2.426,2.426,0,0,1-.685-.485l-.875-.868.875.868A2.423,2.423,0,0,0-523,455.5Z" transform="translate(535.082 -423.519)" fill="none"/>
      <path id="Path_47392" data-name="Path 47392" d="M-389.7,193.078h0a8.84,8.84,0,0,0,4.072,2.861A8.837,8.837,0,0,1-389.7,193.078Z" transform="translate(412.093 -185.431)" fill="none"/>
      <path id="Path_47393" data-name="Path 47393" d="M-501.648,464.95h0a2.289,2.289,0,0,1-2.1.505A2.288,2.288,0,0,0-501.648,464.95Z" transform="translate(516.102 -433.374)" fill="none"/>
      <path id="Path_47394" data-name="Path 47394" d="M-579.712,393.695a2.981,2.981,0,0,0,.385.786A2.994,2.994,0,0,1-579.712,393.695Z" transform="translate(585.383 -368.391)" fill="none"/>
      <path id="Path_47395" data-name="Path 47395" d="M-598.35,315.276l.442-.48-.442.479Z" transform="translate(602.381 -296.436)" fill="none"/>
      <path id="Path_47396" data-name="Path 47396" d="M-467.289,122.921a7.921,7.921,0,0,1,9.833,7.475c.013.6.01,1.2.007,1.806,0-.609.007-1.208-.007-1.806a7.922,7.922,0,0,0-9.833-7.475,7.633,7.633,0,0,0-5.435,4.512A7.633,7.633,0,0,1-467.289,122.921Z" transform="translate(487.812 -121.21)" fill="none"/>
      <path id="Path_47397" data-name="Path 47397" d="M-518.873,436.6a.775.775,0,0,1-.057-.059.726.726,0,0,0,.057.059c.439.408.849.848,1.278,1.267h0C-518.024,437.45-518.433,437.01-518.873,436.6Z" transform="translate(529.951 -407.468)" fill="none"/>
      <path id="Path_47398" data-name="Path 47398" d="M-519.663,419.3c-.118.346-.228.7-.355,1.038a.8.8,0,0,0-.039.144.77.77,0,0,1,.04-.144C-519.89,420-519.781,419.647-519.663,419.3Z" transform="translate(530.979 -391.743)" fill="none"/>
      <path id="Path_47399" data-name="Path 47399" d="M-427.961,379.61a.575.575,0,0,0-.422-.125A.579.579,0,0,1-427.961,379.61Z" transform="translate(447.373 -355.43)" fill="none"/>
      <path id="Path_47400" data-name="Path 47400" d="M-302.458,389.354a3.579,3.579,0,0,0-2.34-1.414c-.24-.045-.481-.088-.723-.129.241.042.482.084.723.13A3.578,3.578,0,0,1-302.458,389.354Z" transform="translate(335.325 -363.024)" fill="none"/>
      <path id="Path_47401" data-name="Path 47401" d="M-356.453,380.077c.267.065.536.122.806.177-.269-.055-.538-.112-.805-.177a1.5,1.5,0,0,0-1.314.179A1.5,1.5,0,0,1-356.453,380.077Z" transform="translate(382.972 -355.908)" fill="none"/>
      <path id="Path_47402" data-name="Path 47402" d="M-381.481,384.4a2.62,2.62,0,0,1,.242-.241,2.628,2.628,0,0,0-.243.241c-.582.654-1.217,1.263-1.86,1.89C-382.7,385.66-382.063,385.051-381.481,384.4Z" transform="translate(406.296 -359.691)" fill="none"/>
      <path id="Path_47403" data-name="Path 47403" d="M-389.464,368.795l2.031-2.035h0l-2.032,2.034Z" transform="translate(411.88 -343.826)" fill="none"/>
      <path id="Path_47404" data-name="Path 47404" d="M-460.128,420.814l.426-.379.595.594-.595-.594Z" transform="translate(476.324 -392.777)" fill="none"/>
      <path id="Path_47405" data-name="Path 47405" d="M-503.748,451.621a.75.75,0,0,0,.805.269A.751.751,0,0,1-503.748,451.621Z" transform="translate(516.105 -421.218)" fill="none"/>
      <path id="Path_47406" data-name="Path 47406" d="M-486.037,435.419q-.677.614-1.357,1.225Q-486.714,436.034-486.037,435.419Z" transform="translate(501.191 -406.442)" fill="none"/>
      <path id="Path_47407" data-name="Path 47407" d="M-358.274,383.005l.025-.019Z" transform="translate(383.435 -358.624)" fill="none"/>
      <path id="Path_47408" data-name="Path 47408" d="M-257.879,437.178c-.168-.5-.326-.99-.484-1.471.158.481.317.97.484,1.471Z" transform="translate(292.318 -406.705)" fill="none"/>
      <path id="Path_47409" data-name="Path 47409" d="M-607.891,138.117a.139.139,0,0,0,.141-.155.114.114,0,0,0,0-.017c-.565-1.691-1.09-3.4-1.711-5.067A4.786,4.786,0,0,0-613,129.769c-.894-.216-1.809-.346-2.714-.515l-2.307-.431a.142.142,0,0,1-.094-.216,1.324,1.324,0,0,1,.233-.312,6.857,6.857,0,0,0,1.179-.972,2.14,2.14,0,0,1,.389-.412.122.122,0,0,0,.022-.022,10.083,10.083,0,0,0,1.437-2.625.11.11,0,0,0,0-.013c.024-.086.049-.171.079-.254a2.362,2.362,0,0,1,.1-.234l.006-.014.04-.115a.141.141,0,0,1,.076-.084l.178-.08.012-.006c.041-.02.085-.039.129-.057l.539-.241h0a2.383,2.383,0,0,0,1.149-1.421,5.015,5.015,0,0,0,.228-1.5c-.013-1.844.059-3.694-.077-5.529a9.4,9.4,0,0,0-10.435-8.45,9.45,9.45,0,0,0-8.354,9.417c-.008,1.624,0,3.249,0,4.873a2.918,2.918,0,0,0,2.059,2.941.587.587,0,0,1,.308.349,7.406,7.406,0,0,0,3.16,4.433,1.116,1.116,0,0,1,.27.329.142.142,0,0,1-.083.216c-.125.032-.2.053-.28.067-1.467.268-2.935.525-4.4.8a4.975,4.975,0,0,0-3.959,3.338c-.083.218-.158.44-.239.675a.143.143,0,0,1-.234.055c-.807-.794-1.594-1.553-2.356-2.336a.7.7,0,0,1,.075-.991c.394-.413.8-.812,1.209-1.213.5-.494,1.009-.985,1.485-1.449a.142.142,0,0,0,0-.2l-5.2-5.194a.141.141,0,0,0-.2,0c-.953.955-1.931,1.936-2.908,2.917a5.071,5.071,0,0,0,.017,7.529q3.6,3.6,7.2,7.2c.5.5,1.014.975,1.487,1.494a6.654,6.654,0,0,0,3.892,2.411l.024,0h1.2a.14.14,0,0,0,.033,0,5.121,5.121,0,0,0,2.274-.923c1.376-1.191,2.718-2.422,4.183-3.737a.143.143,0,0,0,0-.215l-1.006-.843c.017-.029.032-.059.048-.089Zm-6.486-16.263c-.028.019-.057.037-.087.054v-2.364a1.085,1.085,0,0,1,.571.623A1.422,1.422,0,0,1-614.376,121.854Zm-14.643.071h0a1.285,1.285,0,0,1-.695-1.057,1.4,1.4,0,0,1,.695-1.385h0Zm.56-4.835q-.257,0-.521-.017v.81l-.361.143-.325.13a11.67,11.67,0,0,1,.606-5.739,7.632,7.632,0,0,1,5.435-4.512,7.922,7.922,0,0,1,9.833,7.475c.013.6.01,1.2.006,1.806,0,.326,0,.655,0,.989h0l-.708-.273h0v-.822a8.644,8.644,0,0,1-3.183-.376,8.839,8.839,0,0,1-4.072-2.861,8.4,8.4,0,0,1-6.667,3.249h-.039Zm.9,5.183c-.035-1.141,0-2.283-.013-3.425,0-.266.1-.354.347-.38a9.352,9.352,0,0,0,5.442-2.5,2.563,2.563,0,0,1,.26.18,9.4,9.4,0,0,0,5.2,2.332c.13.016.352.171.351.259-.014,1.505-.055,3.01-.092,4.514a.382.382,0,0,1-.02.13,13,13,0,0,1-.444,1.25l0,0a5.434,5.434,0,0,1-1.435,1.886h0a5.43,5.43,0,0,1-2.672,1.332A5.791,5.791,0,0,1-627.558,122.272Zm3.811,6.876a7.539,7.539,0,0,0,1.672.263,7.448,7.448,0,0,0,2.289-.261l.087-.023h0l-2.031,2.035h0l-1.89-1.889-.125-.124h0Zm-15.711-4.83h0l.2.2,3.084,3.089-.557.573-.117.121-1.385-1.385-1.881-1.881h0l.442-.479Zm7.612,17.066q-1.114-1.1-2.218-2.206-1.547-1.548-3.093-3.1l-.409-.408-2.374-2.373q-.782-.782-1.562-1.564a4.288,4.288,0,0,1-.864-1.224,3.6,3.6,0,0,1,1.107-4.366l2.418,2.409.119.118.77.767a2.921,2.921,0,0,0-.485.791,1.816,1.816,0,0,0-.045,1.25l.007.02a2.988,2.988,0,0,0,.385.786,2,2,0,0,0,.2.242q2.115,2.165,4.27,4.292l.875.868a2.422,2.422,0,0,0,.685.485,2.049,2.049,0,0,0,.272.1,2.289,2.289,0,0,0,2.1-.505h0l3.29,3.334h0A3.621,3.621,0,0,1-631.846,141.384Zm7.541-2.161-.569.526-.242.224-1.312-1.316-2.015-2.022h0l.82-.744,1.331,1.337,1.245,1.251.742.745h0Zm.006-2.55a.921.921,0,0,1-.725-.308c-.625-.642-1.26-1.275-1.906-1.919l-.6-.594-.425.379c-.18.16-.357.318-.532.476l-.511.463q-.677.614-1.357,1.225l-.249.225a1.185,1.185,0,0,1-.385.245.75.75,0,0,1-.806-.268h0c-.429-.419-.839-.858-1.278-1.267a.731.731,0,0,1-.057-.06.382.382,0,0,1-.1-.335.777.777,0,0,1,.039-.144c.127-.343.237-.692.355-1.039.019-.055.037-.109.056-.164a3.655,3.655,0,0,1,3.332-2.544,31.621,31.621,0,0,0,4.106-.767,1.063,1.063,0,0,1,.18-.027.576.576,0,0,1,.422.125.926.926,0,0,1,.1.09c.938.963,1.893,1.91,2.867,2.888q.287-.286.573-.564c.643-.627,1.278-1.236,1.86-1.89a2.59,2.59,0,0,1,.242-.241c.035-.03.069-.058.1-.084l.024-.019.02-.013a1.5,1.5,0,0,1,1.314-.179c.267.065.536.122.8.177.822.167,1.652.3,2.48.44.241.042.482.084.723.129a3.579,3.579,0,0,1,2.34,1.415,3.97,3.97,0,0,1,.507.973c.2.559.391,1.123.58,1.7.159.481.317.97.484,1.471h-.5Q-617.252,136.666-624.3,136.673Z" transform="translate(644.148 -106.193)" fill="#373a3c"/>
      <path id="Path_47410" data-name="Path 47410" d="M-511.92,385.6a.919.919,0,0,0,.725.308q7.046-.013,14.093-.006h.5c-.167-.5-.326-.99-.484-1.471-.189-.575-.378-1.14-.581-1.7a3.967,3.967,0,0,0-.507-.973,3.577,3.577,0,0,0-2.34-1.414c-.24-.045-.482-.088-.723-.13-.828-.143-1.658-.274-2.479-.44-.269-.055-.538-.112-.805-.177a1.5,1.5,0,0,0-1.313.179l-.02.013-.025.019c-.035.026-.069.054-.1.084a2.611,2.611,0,0,0-.242.24c-.582.655-1.217,1.263-1.86,1.89q-.286.279-.573.564c-.974-.979-1.929-1.926-2.868-2.889a.975.975,0,0,0-.1-.09.579.579,0,0,0-.423-.125,1.078,1.078,0,0,0-.132.017c-1.521.291-3.048.557-4.571.838a3.585,3.585,0,0,0-2.915,2.484q-.029.082-.056.164c-.118.346-.228.7-.355,1.038a.772.772,0,0,0-.04.144.384.384,0,0,0,.1.336.723.723,0,0,0,.057.059c.439.408.849.848,1.278,1.267h0a.751.751,0,0,0,.805.269,1.189,1.189,0,0,0,.385-.245l.249-.225q.68-.61,1.357-1.225l.511-.464c.175-.158.352-.315.532-.476l.426-.379.595.594C-513.18,384.327-512.544,384.96-511.92,385.6Z" transform="translate(531.043 -355.431)" fill="#92e0c0"/>
      <path id="Path_47411" data-name="Path 47411" d="M-494.6,449.806a1.183,1.183,0,0,0,.385-.245l.25-.225-.25.225A1.183,1.183,0,0,1-494.6,449.806Z" transform="translate(507.761 -419.135)" fill="#fff"/>
      <path id="Path_47412" data-name="Path 47412" d="M-503.757,451.612h0Z" transform="translate(516.114 -421.211)" fill="#fff"/>
      <path id="Path_47413" data-name="Path 47413" d="M-431.805,429.406h0q-7.046,0-14.093.006a.92.92,0,0,1-.725-.308c-.625-.642-1.26-1.275-1.906-1.919.647.645,1.282,1.277,1.906,1.919a.921.921,0,0,0,.725.308Q-438.852,429.4-431.805,429.406Z" transform="translate(465.747 -398.933)" fill="#fff"/>
      <path id="Path_47414" data-name="Path 47414" d="M-359.454,383.286c.034-.03.069-.058.1-.084Q-359.4,383.241-359.454,383.286Z" transform="translate(384.511 -358.821)" fill="#fff"/>
      <path id="Path_47415" data-name="Path 47415" d="M-357.995,382.847l.02-.013Z" transform="translate(383.181 -358.486)" fill="#fff"/>
      <path id="Path_47416" data-name="Path 47416" d="M-471.98,425.686l.512-.463c.175-.158.352-.316.532-.476-.18.16-.357.318-.532.475Z" transform="translate(487.133 -396.71)" fill="#fff"/>
      <path id="Path_47417" data-name="Path 47417" d="M-333.693,382.808c.822.167,1.652.3,2.48.44C-332.041,383.105-332.871,382.975-333.693,382.808Z" transform="translate(361.017 -358.462)" fill="#fff"/>
      <path id="Path_47418" data-name="Path 47418" d="M-512.606,380.362c1.524-.281,3.051-.547,4.572-.838a1.106,1.106,0,0,1,.132-.017,1.076,1.076,0,0,0-.131.017c-1.521.292-3.048.557-4.572.838a3.585,3.585,0,0,0-2.915,2.484c-.02.054-.037.109-.056.164.019-.055.037-.109.056-.164A3.585,3.585,0,0,1-512.606,380.362Z" transform="translate(526.893 -355.451)" fill="#fff"/>
      <path id="Path_47419" data-name="Path 47419" d="M-420.615,383.9q.286-.286.573-.564-.286.279-.573.564c-.974-.979-1.929-1.926-2.867-2.889a.938.938,0,0,0-.1-.09.936.936,0,0,1,.1.09C-422.544,381.977-421.589,382.924-420.615,383.9Z" transform="translate(442.997 -356.744)" fill="#fff"/>
      <path id="Path_47420" data-name="Path 47420" d="M-269.632,408.023c-.189-.576-.378-1.14-.58-1.7a3.965,3.965,0,0,0-.507-.973,3.962,3.962,0,0,1,.507.973C-270.009,406.883-269.821,407.447-269.632,408.023Z" transform="translate(303.586 -379.021)" fill="#fff"/>
      <path id="Path_47421" data-name="Path 47421" d="M-520.123,432.731a.383.383,0,0,0,.1.336A.384.384,0,0,1-520.123,432.731Z" transform="translate(531.044 -403.991)" fill="#fff"/>
      <path id="Path_47422" data-name="Path 47422" d="M-472.784,128.86h0a8.838,8.838,0,0,0,4.072,2.862,8.646,8.646,0,0,0,3.184.376v.823l.708.273c0-.334,0-.663,0-.989,0-.609.006-1.208-.007-1.806a7.921,7.921,0,0,0-9.833-7.475,7.633,7.633,0,0,0-5.435,4.512,11.675,11.675,0,0,0-.606,5.739l.325-.129.36-.144v-.81c.176.01.35.016.522.017h.039A8.4,8.4,0,0,0-472.784,128.86Z" transform="translate(495.179 -121.213)" fill="#d3a06c"/>
      <path id="Path_47423" data-name="Path 47423" d="M-299.22,232.066c0-.334,0-.663,0-.989,0,.326,0,.655,0,.989Z" transform="translate(329.579 -220.085)" fill="#fff"/>
      <path id="Path_47424" data-name="Path 47424" d="M-343.434,225.593a8.647,8.647,0,0,0,3.183.377v.822h0v-.823A8.646,8.646,0,0,1-343.434,225.593Z" transform="translate(369.901 -215.084)" fill="#fff"/>
      <path id="Path_47425" data-name="Path 47425" d="M-465.868,229.991h0Z" transform="translate(481.584 -219.095)" fill="#fff"/>
      <path id="Path_47426" data-name="Path 47426" d="M-480.094,176.9a11.67,11.67,0,0,0-.606,5.739l.325-.13-.325.129A11.676,11.676,0,0,1-480.094,176.9Z" transform="translate(495.181 -170.674)" fill="#fff"/>
      <path id="Path_47427" data-name="Path 47427" d="M-465.451,196.329a8.4,8.4,0,0,0,6.667-3.249h0A8.4,8.4,0,0,1-465.451,196.329Z" transform="translate(481.179 -185.433)" fill="#fff"/>
      <path id="Path_47428" data-name="Path 47428" d="M-448.9,229.106a5.432,5.432,0,0,0,2.672-1.332h0a5.435,5.435,0,0,0,1.435-1.886l0,0a13.02,13.02,0,0,0,.444-1.25.388.388,0,0,0,.02-.13c.037-1.5.078-3.009.092-4.514,0-.088-.221-.243-.351-.259a9.4,9.4,0,0,1-5.2-2.332,2.615,2.615,0,0,0-.26-.18,9.352,9.352,0,0,1-5.442,2.5c-.251.026-.35.114-.347.38.013,1.142-.021,2.284.013,3.425A5.791,5.791,0,0,0-448.9,229.106Z" transform="translate(472.413 -207.448)" fill="#f9e0a6"/>
      <path id="Path_47429" data-name="Path 47429" d="M-611.393,347.822l-3.29-3.334a2.288,2.288,0,0,1-2.1.505,2.041,2.041,0,0,1-.271-.1,2.424,2.424,0,0,1-.685-.485l-.875-.868q-2.149-2.132-4.27-4.292a2.03,2.03,0,0,1-.2-.242,2.986,2.986,0,0,1-.385-.786l-.007-.02a1.813,1.813,0,0,1,.045-1.25,2.933,2.933,0,0,1,.484-.791l-.769-.766-.119-.118-2.418-2.408a3.6,3.6,0,0,0-1.108,4.366,4.284,4.284,0,0,0,.865,1.224q.78.784,1.562,1.564l2.374,2.373.409.408q1.549,1.548,3.093,3.1,1.106,1.106,2.217,2.206A3.621,3.621,0,0,0-611.393,347.822Z" transform="translate(629.137 -312.912)" fill="#fb5968"/>
      <path id="Path_47430" data-name="Path 47430" d="M-580.722,380.516l.007.02-.007-.02a1.814,1.814,0,0,1,.045-1.25A1.813,1.813,0,0,0-580.722,380.516Z" transform="translate(586.387 -355.232)" fill="#fff"/>
      <path id="Path_47431" data-name="Path 47431" d="M-568.956,441.51l-.409-.408.409.408q1.548,1.548,3.093,3.1Q-567.41,443.061-568.956,441.51Z" transform="translate(575.947 -411.625)" fill="#fff"/>
      <path id="Path_47432" data-name="Path 47432" d="M-570.867,407.161q-2.148-2.133-4.269-4.292a2,2,0,0,1-.2-.242,1.984,1.984,0,0,0,.2.242Q-573.021,405.034-570.867,407.161Z" transform="translate(581.392 -376.537)" fill="#fff"/>
      <path id="Path_47433" data-name="Path 47433" d="M-623.913,382.466a4.284,4.284,0,0,0,.864,1.224q.78.784,1.563,1.565-.781-.782-1.562-1.565A4.287,4.287,0,0,1-623.913,382.466Z" transform="translate(625.694 -358.15)" fill="#fff"/>
      <path id="Path_47434" data-name="Path 47434" d="M-506.831,469.52a2.064,2.064,0,0,0,.272.1A2.064,2.064,0,0,1-506.831,469.52Z" transform="translate(518.917 -437.542)" fill="#fff"/>
      <path id="Path_47435" data-name="Path 47435" d="M-476.629,468.284l-3.29-3.334h0l3.29,3.334Z" transform="translate(494.374 -433.374)" fill="#fff"/>
      <path id="Path_47436" data-name="Path 47436" d="M-583.862,360.226l.119.118Z" transform="translate(589.168 -337.867)" fill="#fff"/>
      <path id="Path_47437" data-name="Path 47437" d="M-463.559,444.946l-1.331-1.336-.819.744,2.015,2.022,1.312,1.316.242-.223.569-.526-.741-.745Z" transform="translate(481.415 -413.913)" fill="#fb5968"/>
      <path id="Path_47438" data-name="Path 47438" d="M-442.815,475.03l1.312,1.316.242-.224-.242.223Z" transform="translate(460.535 -442.567)" fill="#fff"/>
      <path id="Path_47439" data-name="Path 47439" d="M-463.561,444.943l-1.331-1.337-.82.744h0l.819-.744Z" transform="translate(481.417 -413.909)" fill="#fff"/>
      <path id="Path_47440" data-name="Path 47440" d="M-427.126,473l.742.745h0Z" transform="translate(446.227 -440.717)" fill="#fff"/>
      <path id="Path_47441" data-name="Path 47441" d="M-596.465,314.716l1.385,1.385.117-.121.556-.573-3.084-3.09-.2-.2-.218.236-.442.479Z" transform="translate(602.378 -293.995)" fill="#fb5968"/>
      <path id="Path_47442" data-name="Path 47442" d="M-593.114,312.116l-.217.236.218-.236Z" transform="translate(597.804 -293.992)" fill="#fff"/>
      <path id="Path_47443" data-name="Path 47443" d="M-586.091,318.028l.557-.573-3.084-3.09,3.084,3.09Z" transform="translate(593.506 -296.044)" fill="#fff"/>
      <path id="Path_47444" data-name="Path 47444" d="M-598.348,320.243l1.882,1.881-1.881-1.881Z" transform="translate(602.379 -301.404)" fill="#fff"/>
      <path id="Path_47445" data-name="Path 47445" d="M-410.344,368.795l2.032-2.034-.087.023a7.433,7.433,0,0,1-2.289.261,7.541,7.541,0,0,1-1.671-.263l.124.124Z" transform="translate(432.76 -343.826)" fill="#f9e0a6"/>
      <path id="Path_47446" data-name="Path 47446" d="M-412.36,367h0a7.532,7.532,0,0,0,1.671.263A7.547,7.547,0,0,1-412.36,367Z" transform="translate(432.761 -344.044)" fill="#fff"/>
      <path id="Path_47447" data-name="Path 47447" d="M-367.277,366.76l-.087.023.087-.023Z" transform="translate(391.725 -343.826)" fill="#fff"/>
      <path id="Path_47448" data-name="Path 47448" d="M-409.054,370.3h0l-1.891-1.889Z" transform="translate(431.469 -345.335)" fill="#fff"/>
      <path id="Path_47449" data-name="Path 47449" d="M-480.239,258.568a1.283,1.283,0,0,0,.694,1.057v-2.442A1.4,1.4,0,0,0-480.239,258.568Z" transform="translate(494.673 -243.894)" fill="#f9e0a6"/>
      <path id="Path_47450" data-name="Path 47450" d="M-480.243,258.566a1.4,1.4,0,0,1,.694-1.385h0a1.4,1.4,0,0,0-.694,1.385,1.285,1.285,0,0,0,.694,1.057h0A1.284,1.284,0,0,1-480.243,258.566Z" transform="translate(494.677 -243.892)" fill="#fff"/>
      <path id="Path_47451" data-name="Path 47451" d="M-306.307,258.506a1.084,1.084,0,0,0-.57-.623v2.364q.045-.026.087-.054A1.422,1.422,0,0,0-306.307,258.506Z" transform="translate(336.562 -244.532)" fill="#f9e0a6"/>
      <path id="Path_47452" data-name="Path 47452" d="M-305.889,266.648a1.421,1.421,0,0,0,.483-1.687A1.422,1.422,0,0,1-305.889,266.648Z" transform="translate(335.661 -250.987)" fill="#fff"/>
    </g>
  </g>
</svg>
